<!-- Generated by IcoMoon.io -->
<svg version="1.1" xmlns="http://www.w3.org/2000/svg" width="32" height="32" viewBox="0 0 32 32">
<path fill="#1784c4" stroke="#1784c4" stroke-linejoin="miter" stroke-linecap="butt" stroke-miterlimit="4" stroke-width="1.7778" d="M32 16c0 8.837-7.163 16-16 16s-16-7.163-16-16c0-8.837 7.163-16 16-16s16 7.163 16 16z"></path>
<path fill="none" stroke="#1784c4" stroke-linejoin="miter" stroke-linecap="butt" stroke-miterlimit="4" stroke-width="1.7778" d="M31.111 16c0 8.346-6.765 15.111-15.111 15.111s-15.111-6.765-15.111-15.111c0-8.346 6.765-15.111 15.111-15.111s15.111 6.765 15.111 15.111z"></path>
<path fill="#fff" d="M16 7.596c-5.778 0-11.556 6.484-11.556 8.644 0 1.801 5.316 8.164 11.556 8.164s11.556-6.843 11.556-8.164c0-1.44-5.547-8.644-11.556-8.644zM16 22.363c-4.738 0-8.889-4.683-9.591-6.123 0.578-1.68 5.084-6.603 9.591-6.603 4.391 0 8.551 4.8 9.476 6.484-0.924 1.68-4.978 6.244-9.476 6.244zM15.884 11.319c-2.318 0.094-4.162 1.996-4.162 4.329 0 0.041 0.001 0.081 0.002 0.121l-0-0.006c-0.001 0.034-0.002 0.075-0.002 0.115 0 2.333 1.843 4.235 4.153 4.329l0.009 0c2.318-0.094 4.162-1.996 4.162-4.329 0-0.041-0.001-0.081-0.002-0.121l0 0.006c0-0.012 0-0.027 0-0.041 0-2.348-1.834-4.267-4.148-4.403l-0.012-0.001zM15.884 18.402c-1.353-0.052-2.43-1.16-2.43-2.521 0-0.043 0.001-0.085 0.003-0.127l-0 0.006c-0-0.014-0-0.031-0-0.048 0-1.375 1.068-2.501 2.419-2.593l0.008-0c1.353 0.052 2.43 1.16 2.43 2.521 0 0.043-0.001 0.085-0.003 0.127l0-0.006c0 0.014 0 0.031 0 0.048 0 1.375-1.068 2.501-2.419 2.593l-0.008 0zM15.884 14.313c-0.771 0.027-1.387 0.658-1.387 1.434 0 0.002 0 0.004 0 0.006v-0c-0.001 0.023-0.002 0.051-0.002 0.079 0 0.752 0.61 1.362 1.362 1.362 0.010 0 0.019-0 0.029-0l-0.001 0c0.774-0.028 1.391-0.662 1.391-1.441s-0.617-1.413-1.389-1.441l-0.003-0z"></path>
</svg>