<?xml version="1.0" standalone="no"?>
<svg xmlns="http://www.w3.org/2000/svg" version="1.1" width="32" height="32" viewBox="0 0 32 32">
<path fill="#007CBE" d="M28.8 2.4v1.92l-25.6 5.76v-1.28h-3.2v12.8h3.2v-1.28l1.6 0.32v5.76c-0.001 0.020-0.001 0.043-0.001 0.066 0 0.763 0.548 1.398 1.272 1.532l0.010 0.002 6.4 1.6h0.32c0.022 0.001 0.048 0.002 0.074 0.002 0.5 0 0.941-0.252 1.203-0.637l0.003-0.005 4-5.28 10.72 2.4v1.92h3.2v-25.6zM12.16 26.24l-4.16-1.12v-3.68l6.56 1.44-2.4 3.36zM3.2 17.12v-3.84l25.6-5.76v15.2l-25.6-5.6z"/>
</svg>