<?xml version="1.0" standalone="no"?>
<svg xmlns="http://www.w3.org/2000/svg" version="1.1" width="32" height="32" viewBox="0 0 32 32">
<path fill="#007CBE" d="M16 4.364c-8 0-16 8.976-16 11.969 0 2.493 7.36 11.303 16 11.303s16-9.475 16-11.303c0-1.996-7.68-11.969-16-11.969zM16 24.81c-6.56 0-12.32-6.483-13.28-8.479 0.8-2.327 7.040-9.143 13.28-9.143 6.080 0 11.84 6.649 13.12 8.976-1.28 2.327-6.88 8.644-13.12 8.644zM15.84 9.517c-3.21 0.131-5.762 2.764-5.762 5.994 0 0.055 0.001 0.111 0.002 0.165l-0-0.008c-0.001 0.046-0.002 0.101-0.002 0.156 0 3.23 2.552 5.863 5.75 5.993l0.012 0c3.21-0.131 5.762-2.764 5.762-5.994 0-0.055-0.001-0.111-0.002-0.165l0 0.008c0-0.015 0-0.033 0-0.051 0-3.251-2.54-5.909-5.744-6.098l-0.017-0.001zM15.84 19.325c-1.873-0.070-3.364-1.605-3.364-3.489 0-0.059 0.001-0.118 0.004-0.176l-0 0.008c-0-0.019-0.001-0.042-0.001-0.065 0-1.904 1.478-3.463 3.349-3.591l0.011-0.001c1.873 0.070 3.364 1.605 3.364 3.489 0 0.059-0.001 0.118-0.004 0.176l0-0.008c0 0.019 0.001 0.042 0.001 0.065 0 1.904-1.478 3.463-3.349 3.591l-0.011 0.001zM15.84 13.673c-1.068 0.036-1.92 0.911-1.92 1.984 0 0.003 0 0.007 0 0.010v-0.001c-0.002 0.031-0.003 0.067-0.003 0.104 0 1.044 0.847 1.891 1.891 1.891 0.011 0 0.022-0 0.034-0l-0.002 0c1.079-0.030 1.942-0.912 1.942-1.995s-0.863-1.965-1.939-1.995l-0.003-0z"/>
</svg>