<?xml version="1.0" standalone="no"?>
<svg xmlns="http://www.w3.org/2000/svg" version="1.1" width="32" height="32" viewBox="0 0 32 32">
<path fill="#007CBE" opacity="0.005" stroke="#707070" stroke-linejoin="miter" stroke-linecap="butt" stroke-miterlimit="4" stroke-width="2" d="M0 0h32v32h-32v-32z"/>
<path fill="none" opacity="0.005" stroke="#707070" stroke-linejoin="miter" stroke-linecap="butt" stroke-miterlimit="4" stroke-width="2" d="M1 1h30v30h-30v-30z"/>
<path fill="#007CBE" d="M23.82 8.932l-6.888-5.446c-0.371-0.368-0.601-0.878-0.601-1.442s0.23-1.074 0.601-1.442l0-0c0.338-0.37 0.823-0.601 1.362-0.601s1.024 0.231 1.361 0.6l0.001 0.001 10.252 8.33c0.335 0.327 0.543 0.784 0.543 1.289 0 0.168-0.023 0.331-0.066 0.486l0.003-0.013c0.040 0.142 0.063 0.305 0.063 0.473 0 0.505-0.208 0.961-0.543 1.288l-0 0-10.26 9.452c-0.338 0.37-0.823 0.601-1.362 0.601s-1.024-0.231-1.361-0.599l-0.001-0.001c-0.371-0.368-0.601-0.878-0.601-1.442s0.23-1.074 0.601-1.442l0-0 7.048-6.4h-8.482c-5.286 0-9.772 3.524-9.772 10.734v6.4c0.001 0.025 0.002 0.055 0.002 0.085 0 1.166-0.925 2.117-2.082 2.157l-0.004 0c-1.141-0.021-2.061-0.941-2.082-2.080l-0-0.002v-6.568c-0.001-0.055-0.001-0.12-0.001-0.185 0-7.791 6.187-14.137 13.916-14.392l0.023-0.001h8.33z"/>
</svg>