<?xml version="1.0" standalone="no"?>
<svg xmlns="http://www.w3.org/2000/svg" version="1.1" width="32" height="32" viewBox="0 0 32 32">
<path fill="#007CBE" d="M28.918 2.4h-25.706c-1.772 0.005-3.207 1.441-3.213 3.212v16.068c0.005 1.772 1.441 3.207 3.212 3.213h25.706c1.772-0.005 3.207-1.441 3.213-3.212v-16.068c-0.005-1.772-1.441-3.207-3.212-3.213h-0.001zM28.918 21.68h-25.706v-16.067h25.706z"/>
<path fill="#007CBE" d="M24.101 26.499h-16.074c-0.887 0-1.606 0.719-1.606 1.606s0.719 1.606 1.606 1.606v0h16.074c0.887 0 1.606-0.719 1.606-1.606s-0.719-1.606-1.606-1.606v0z"/>
</svg>