<svg width="32" height="26" viewBox="0 0 32 26" fill="none" xmlns="http://www.w3.org/2000/svg">
<path fill-rule="evenodd" clip-rule="evenodd" d="M3.47782 0H28.3636C30.0829 0 31.9622 1.01818 32 2.36945V17.1767C32 18.5382 30.3898 19.6495 28.6764 19.6495H3.83564C2.07127 19.6495 0 18.5338 0 17.1767V2.36945C0 1.01818 1.76436 0 3.47782 0ZM2.55709 17.2756H29.3993L29.4051 2.47273H2.55709V17.2756Z" fill="#3F5C69"/>
<path d="M8.56139 22.6705H23.0705C23.2606 22.6592 23.451 22.6865 23.6303 22.7507C23.8097 22.8149 23.9741 22.9147 24.1139 23.0441C24.2536 23.1735 24.3658 23.3298 24.4435 23.5036C24.5213 23.6775 24.5631 23.8652 24.5665 24.0557C24.5698 24.2461 24.5346 24.4352 24.463 24.6117C24.3913 24.7882 24.2847 24.9483 24.1496 25.0825C24.0145 25.2167 23.8536 25.3222 23.6766 25.3926C23.4997 25.4631 23.3103 25.497 23.1199 25.4924H8.61084C8.4194 25.4939 8.22956 25.4574 8.05239 25.3848C7.87521 25.3123 7.71425 25.2052 7.57887 25.0698C7.44349 24.9344 7.33641 24.7735 7.26386 24.5963C7.19131 24.4191 7.15475 24.2293 7.1563 24.0378C7.15293 23.8541 7.18726 23.6717 7.25717 23.5018C7.32708 23.3318 7.43109 23.1781 7.56277 23.0499C7.69445 22.9218 7.85101 22.822 8.02277 22.7568C8.19453 22.6915 8.37784 22.6622 8.56139 22.6705Z" fill="#3F5C69"/>
</svg>
