<?xml version="1.0" standalone="no"?>
<svg xmlns="http://www.w3.org/2000/svg" version="1.1" width="32" height="32" viewBox="0 0 32 32">
<path fill="#007CBE" d="M9.44 9.936h-7.912c-0.844 0-1.528 0.684-1.528 1.528s0.684 1.528 1.528 1.528v0h7.912c0.844 0 1.528-0.684 1.528-1.528s-0.684-1.528-1.528-1.528v0z"/>
<path fill="#007CBE" d="M31.686 10.893l-6.422-4.36c-0.445-0.285-0.778-0.094-0.778 0.418v3.014h-8.33c-0.089 0.009-0.17 0.029-0.246 0.060l0.006-0.002c-0.093 0.019-0.16 0.038-0.24 0.058-0.099 0.043-0.184 0.094-0.262 0.154l0.003-0.002c-0.070 0.040-0.131 0.084-0.187 0.134l0.001-0.001c-0.065 0.069-0.126 0.143-0.181 0.221l-0.004 0.006c-0.046 0.051-0.088 0.107-0.126 0.166l-0.003 0.005-6.478 12.757c-0.1 0.191-0.158 0.417-0.158 0.656 0 0.542 0.3 1.015 0.743 1.26l0.007 0.004c0.184 0.098 0.403 0.156 0.635 0.156 0.538 0 1.004-0.31 1.228-0.761l0.004-0.008 6.090-12h7.496v3.040c0 0.512 0.352 0.72 0.778 0.437l6.422-4.341c0.194-0.104 0.323-0.305 0.323-0.536 0-0.23-0.128-0.43-0.317-0.533l-0.003-0.002z"/>
</svg>