<?xml version="1.0" standalone="no"?>
<svg xmlns="http://www.w3.org/2000/svg" version="1.1" width="32" height="32" viewBox="0 0 32 32">
<path fill="#007CBE" d="M27.52 9.6c-0.457-5.387-4.936-9.587-10.399-9.6h-1.761c-5.425 0.024-9.859 4.235-10.238 9.567l-0.002 0.033h-0.32c-2.648 0.008-4.792 2.152-4.8 4.799v4.801c0.066 2.624 2.176 4.734 4.794 4.8l0.006 0c2.648-0.008 4.792-2.152 4.8-4.799v-4.801c0-1.28 0-2.56-1.6-3.36v-0.8c0.189-3.921 3.41-7.030 7.359-7.040h1.921c3.726 0.062 6.723 3.097 6.723 6.833 0 0.073-0.001 0.146-0.003 0.218l0-0.011v0.16c-1.6 0.96-1.6 2.4-1.6 4v4.8c0.043 1.72 0.912 3.228 2.223 4.149l0.017 0.011c-1.438 1.311-3.224 2.264-5.204 2.706l-0.076 0.014c-0.656-0.664-1.556-1.085-2.554-1.12l-0.006-0c-1.944 0-3.52 1.576-3.52 3.52s1.576 3.52 3.52 3.52v0c1.729-0.007 3.17-1.229 3.516-2.856l0.004-0.024c3.35-0.786 6.171-2.671 8.135-5.245l0.025-0.035c2.014-0.636 3.46-2.462 3.52-4.633l0-0.007v-4.8c0-0.016 0-0.035 0-0.054 0-2.529-1.975-4.597-4.467-4.745l-0.013-0.001zM6.4 19.2c-0.060 0.859-0.741 1.54-1.595 1.6l-0.005 0c-0.859-0.060-1.54-0.741-1.6-1.595l-0-0.005v-4.8c0.060-0.859 0.741-1.54 1.595-1.6l0.005-0c0.859 0.060 1.54 0.741 1.6 1.595l0 0.005zM28.8 19.2c0 0.884-0.716 1.6-1.6 1.6s-1.6-0.716-1.6-1.6v0-4.8c0-0.884 0.716-1.6 1.6-1.6s1.6 0.716 1.6 1.6v0z"/>
</svg>