<!-- Generated by IcoMoon.io -->
<svg version="1.1" xmlns="http://www.w3.org/2000/svg" width="32" height="32" viewBox="0 0 32 32">
    <path fill="#adadad" d="M16 0c8.837 0 16 7.163 16 16s-7.163 16-16 16c-8.837 0-16-7.163-16-16s7.163-16 16-16z"></path>
    <path fill="#7c7c7c" d="M15.603 17.029c2.556 0 4.629-2.072 4.629-4.629s-2.072-4.629-4.629-4.629c-2.556 0-4.629 2.072-4.629 4.629v0c0.001 2.556 2.073 4.628 4.628 4.629h0zM19.717 18.057h-1.771c-0.687 0.325-1.493 0.514-2.343 0.514s-1.656-0.19-2.377-0.529l0.034 0.014h-1.771c-2.272 0-4.114 1.842-4.114 4.114v0 0.514c0 0.852 0.691 1.543 1.543 1.543h13.371c0.852-0 1.543-0.691 1.543-1.543v-0.514c0-2.272-1.842-4.114-4.114-4.114v0z"></path>
</svg>