<!-- Generated by IcoMoon.io -->
<svg version="1.1" xmlns="http://www.w3.org/2000/svg" width="35" height="32" viewBox="0 0 35 32">
<path fill="none" stroke="#007ab8" stroke-linejoin="round" stroke-linecap="round" stroke-miterlimit="4" stroke-width="3.2" d="M2.399 11.2h30.4M14.399 1.6l-3.2 9.6 6.4 18.4 6.4-18.4-3.2-9.6M18.583 29.22l14.334-17.201c0.243-0.292 0.364-0.437 0.411-0.6 0.041-0.143 0.041-0.296 0-0.439-0.046-0.163-0.168-0.308-0.411-0.6l-6.933-8.32c-0.141-0.169-0.212-0.254-0.298-0.315-0.077-0.054-0.162-0.094-0.252-0.118-0.102-0.027-0.212-0.027-0.433-0.027h-14.801c-0.22 0-0.331 0-0.433 0.027-0.090 0.024-0.176 0.064-0.253 0.118-0.086 0.061-0.157 0.145-0.298 0.315l-6.933 8.32c-0.243 0.291-0.364 0.437-0.411 0.6-0.041 0.143-0.041 0.296 0 0.439 0.046 0.163 0.168 0.308 0.411 0.6l14.334 17.201c0.338 0.405 0.506 0.608 0.709 0.682 0.177 0.065 0.372 0.065 0.549 0 0.202-0.074 0.371-0.276 0.709-0.682z"></path>
</svg>
