<!-- Generated by IcoMoon.io -->
<svg version="1.1" xmlns="http://www.w3.org/2000/svg" width="32" height="32" viewBox="0 0 32 32">
<title>clock</title>
<path d="M0 16v16h32v-32h-32zM18.625 3.125c4.675 1 8.35 4.25 9.925 8.825 0.8 2.35 0.8 5.75 0 8.1-2.45 7.1-10.025 10.85-16.925 8.35-4.425-1.6-7.525-5.175-8.5-9.775-0.45-2.2-0.45-3.050 0-5.25 1.075-5.1 5.075-9.15 10.125-10.225 2.125-0.475 3.25-0.475 5.375-0.025z"></path>
<path d="M15.95 6.875c-0.35 0.625-0.45 1.9-0.5 5.675l-0.050 4.075h1.2l-0.050-4.25c-0.050-3.975-0.275-6.050-0.6-5.5z"></path>
</svg>
