<svg width="16" height="16" viewBox="0 0 16 16" fill="none" xmlns="http://www.w3.org/2000/svg">
<path d="M0.874652 5.75H15.1247M6.49965 1.25L4.99965 5.75L7.99965 14.375L10.9997 5.75L9.49965 1.25M8.46059 14.1969L15.1796 6.13411C15.2934 5.99746 15.3504 5.92914 15.3721 5.85287C15.3913 5.78563 15.3913 5.71437 15.3721 5.64713C15.3504 5.57086 15.2934 5.50253 15.1796 5.36589L11.9296 1.46589C11.8634 1.38653 11.8304 1.34685 11.7898 1.31833C11.7539 1.29306 11.7138 1.27429 11.6714 1.26288C11.6236 1.25 11.5719 1.25 11.4686 1.25H4.53068C4.42738 1.25 4.37573 1.25 4.32787 1.26288C4.28546 1.27429 4.24539 1.29306 4.20947 1.31833C4.16894 1.34685 4.13588 1.38653 4.06974 1.46589L0.819745 5.36589C0.705873 5.50253 0.648937 5.57086 0.62718 5.64712C0.607997 5.71437 0.607997 5.78563 0.62718 5.85287C0.648937 5.92914 0.705873 5.99746 0.819744 6.13411L7.53872 14.1969C7.69701 14.3868 7.77616 14.4818 7.87092 14.5164C7.95405 14.5468 8.04525 14.5468 8.12839 14.5164C8.22315 14.4818 8.30229 14.3868 8.46059 14.1969Z" stroke="#F8C00A" stroke-linecap="round" stroke-linejoin="round"/>
</svg>
