<svg width="24" height="25" viewBox="0 0 24 25" fill="none" xmlns="http://www.w3.org/2000/svg">
<g clip-path="url(#clip0_826_12140)">
<path d="M12 0.5C5.4 0.5 0 5.9 0 12.5C0 19.1 5.4 24.5 12 24.5C18.6 24.5 24 19.1 24 12.5C24 5.9 18.6 0.5 12 0.5ZM12 22.1C6.72 22.1 2.4 17.78 2.4 12.5C2.4 7.22 6.72 2.9 12 2.9C17.28 2.9 21.6 7.22 21.6 12.5C21.6 17.78 17.28 22.1 12 22.1ZM8.4 11.54C9.72 11.54 10.8 10.46 10.8 9.14C10.8 7.82 9.72 6.74 8.4 6.74C7.08 6.74 6 7.82 6 9.14C6 10.46 7.08 11.54 8.4 11.54ZM15.6 11.54C16.92 11.54 18 10.46 18 9.14C18 7.82 16.92 6.74 15.6 6.74C14.28 6.74 13.2 7.82 13.2 9.14C13.2 10.46 14.28 11.54 15.6 11.54ZM19.32 14.18C19.32 13.58 18.72 12.98 18.12 12.98C17.52 12.98 17.04 13.46 16.92 14.06C16.08 16.46 14.28 17.66 12 17.66C9.72 17.66 7.8 16.34 6.96 13.94C6.84 13.46 6.36 12.98 5.76 12.98C5.04 12.98 4.56 13.58 4.56 14.18C4.56 14.42 4.68 14.66 4.8 14.78C5.88 17.9 8.52 20.06 12 20.06C15.36 20.06 18.12 17.9 19.08 14.78C19.32 14.66 19.32 14.42 19.32 14.18Z" fill="#36C700"/>
</g>
<defs>
<clipPath id="clip0_826_12140">
<rect width="24" height="24" fill="white" transform="translate(0 0.5)"/>
</clipPath>
</defs>
</svg>
