<svg width="18" height="18" viewBox="0 0 18 18" fill="none" xmlns="http://www.w3.org/2000/svg">
<path fill-rule="evenodd" clip-rule="evenodd" d="M9 18C13.9706 18 18 13.9705 18 9C18 4.02954 13.9706 0 9 0C4.02942 0 0 4.02954 0 9C0 13.9705 4.02942 18 9 18ZM5.01685 3.00049H12.8528C13.0448 2.99438 13.2325 3.05884 13.3804 3.18164C13.5282 3.30444 13.626 3.47705 13.6552 3.66699C13.6605 3.72388 13.6593 3.78101 13.6517 3.8374C13.6454 3.88501 13.6344 3.93213 13.6189 3.97778C13.5852 4.07788 13.5306 4.16943 13.4591 4.24683C13.3875 4.32422 13.3003 4.38574 13.2034 4.42725C13.1512 4.44946 13.0969 4.46582 13.0414 4.47583C12.9937 4.48438 12.9451 4.48828 12.8962 4.48755H5.84326C5.80127 4.48706 5.76013 4.49512 5.72192 4.5105C5.68457 4.52563 5.65002 4.5481 5.62048 4.5769C5.56091 4.63477 5.52673 4.71411 5.52539 4.79712V13.1992C5.52673 13.2825 5.56091 13.3616 5.62048 13.4197C5.68005 13.4775 5.76013 13.5098 5.84326 13.509H12.8528C12.9187 13.5068 12.9841 13.5132 13.0476 13.5273C13.1689 13.5542 13.2833 13.6096 13.3804 13.6902C13.5282 13.813 13.626 13.9856 13.6552 14.1755C13.6655 14.2808 13.6536 14.3872 13.62 14.4873C13.5863 14.5876 13.532 14.6797 13.4603 14.7573C13.3885 14.8352 13.3013 14.897 13.2041 14.9385C13.1069 14.9802 13.002 15.0007 12.8962 14.999H5.01685C4.88501 15.0007 4.75415 14.9763 4.63159 14.9275C4.50916 14.8787 4.39758 14.8059 4.3031 14.7139C4.20862 14.6218 4.1333 14.5122 4.0813 14.3909C4.0293 14.2698 4.00171 14.1394 4 14.0076V3.9917C4.00171 3.85986 4.0293 3.72974 4.0813 3.6084C4.1333 3.4873 4.20862 3.37744 4.3031 3.2854C4.39758 3.19336 4.50916 3.12085 4.63159 3.07202C4.75415 3.02295 4.88501 2.99878 5.01685 3.00049ZM12.9982 9.57104V10.7876C12.9982 10.9976 13.1384 11.0762 13.3086 10.96L15.8741 9.20752C15.9121 9.18726 15.9438 9.15723 15.9661 9.12036C15.9811 9.09546 15.9913 9.06812 15.9963 9.03979C15.9988 9.02612 16 9.01245 16 8.99854C16 8.95557 15.9883 8.91333 15.9661 8.87671C15.9438 8.83984 15.9121 8.80981 15.8741 8.78979L13.3071 7.04102C13.137 6.92456 12.9982 7.00269 12.9982 7.21118V8.42896H10.0128C9.86365 8.4314 9.72156 8.49268 9.61768 8.59985C9.51379 8.70679 9.45654 8.85059 9.45862 8.99976C9.45679 9.14893 9.51404 9.29248 9.61792 9.39966C9.72168 9.50684 9.86365 9.56836 10.0128 9.57104H12.9982Z" fill="#A5A7AA"/>
</svg>
