<svg width="24" height="25" viewBox="0 0 24 25" fill="none" xmlns="http://www.w3.org/2000/svg">
<g clip-path="url(#clip0_826_12144)">
<path d="M12 0.5C5.4 0.5 0 5.9 0 12.5C0 19.1 5.4 24.5 12 24.5C18.6 24.5 24 19.1 24 12.5C24 5.9 18.6 0.5 12 0.5ZM12 22.1C6.72 22.1 2.4 17.78 2.4 12.5C2.4 7.22 6.72 2.9 12 2.9C17.28 2.9 21.6 7.22 21.6 12.5C21.6 17.78 17.28 22.1 12 22.1ZM10.8 9.14C10.8 7.82 9.72 6.74 8.4 6.74C7.08 6.74 6 7.82 6 9.14C6 10.46 7.08 11.54 8.4 11.54C9.72 11.54 10.8 10.46 10.8 9.14ZM15.6 6.74C14.28 6.74 13.2 7.82 13.2 9.14C13.2 10.46 14.28 11.54 15.6 11.54C16.92 11.54 18 10.46 18 9.14C18 7.82 16.92 6.74 15.6 6.74ZM15.6 14.9H8.4C7.68 14.9 7.2 15.38 7.2 16.1C7.2 16.82 7.68 17.3 8.4 17.3H15.6C16.32 17.3 16.8 16.82 16.8 16.1C16.8 15.38 16.32 14.9 15.6 14.9Z" fill="#FFBA1F"/>
</g>
<defs>
<clipPath id="clip0_826_12144">
<rect width="24" height="24" fill="white" transform="translate(0 0.5)"/>
</clipPath>
</defs>
</svg>
