<!-- Generated by IcoMoon.io -->
<svg version="1.1" xmlns="http://www.w3.org/2000/svg" width="32" height="32" viewBox="0 0 878 1024">
<title></title>
<g id="icomoon-ignore">
</g>
<path fill="#3f5c69" d="M682.667 707.048h-487.619v92.648h487.619v-92.648z"></path>
<path fill="#3f5c69" d="M195.048 512h487.619v92.648h-487.619v-92.648z"></path>
<path fill="#3f5c69" d="M682.667 321.829h-487.619v92.648h487.619v-92.648z"></path>
<path fill="#3f5c69" d="M633.905 73.143h146.286c53.638 0 97.524 43.886 97.524 97.524v731.429c0 53.638-43.886 97.524-97.524 97.524h-682.667c-53.638 0-97.524-43.886-97.524-97.524v-731.429c0-53.638 43.886-97.524 97.524-97.524h146.286v-48.762h390.095v48.762zM97.524 902.095h682.667v-731.429h-146.286v48.762h-390.095v-48.762h-146.286v731.429z"></path>
</svg>
