<!-- Generated by IcoMoon.io -->
<svg version="1.1" xmlns="http://www.w3.org/2000/svg" width="32" height="32" viewBox="0 0 32 32">
<path fill="#526B7A" d="M16.001 0c-8.8 0-16 7.2-16 16s7.2 16 16 16c8.8 0 16-7.2 16-16s-7.2-16-16-16zM16.001 28.8c-7.040 0-12.8-5.76-12.8-12.8s5.76-12.8 12.8-12.8c7.040 0 12.8 5.76 12.8 12.8s-5.76 12.8-12.8 12.8zM11.201 14.72c1.76 0 3.2-1.44 3.2-3.2s-1.44-3.2-3.2-3.2c-1.76 0-3.2 1.44-3.2 3.2s1.44 3.2 3.2 3.2zM20.801 14.72c1.76 0 3.2-1.44 3.2-3.2s-1.44-3.2-3.2-3.2c-1.76 0-3.2 1.44-3.2 3.2s1.44 3.2 3.2 3.2zM25.761 18.24c0-0.8-0.8-1.6-1.6-1.6s-1.44 0.64-1.6 1.44c-1.12 3.2-3.52 4.8-6.56 4.8s-5.6-1.76-6.72-4.96c-0.16-0.64-0.8-1.28-1.6-1.28-0.96 0-1.6 0.8-1.6 1.6 0 0.32 0.16 0.64 0.32 0.8 1.44 4.16 4.96 7.040 9.6 7.040 4.48 0 8.16-2.88 9.44-7.040 0.32-0.16 0.32-0.48 0.32-0.8z"></path>
</svg>
