<svg width="24" height="24" viewBox="0 0 24 24" fill="none" xmlns="http://www.w3.org/2000/svg">
<path d="M22.05 14.0585C22.4412 12.1201 23.9892 6.40848 23.9892 6.40848C24.0143 6.24337 24.0095 6.07447 23.9749 5.9114C23.9404 5.74834 23.8768 5.59432 23.7878 5.45813C23.6989 5.32195 23.5862 5.20626 23.4564 5.11768C23.3265 5.0291 23.182 4.96936 23.031 4.94187C22.88 4.91438 22.7256 4.91968 22.5765 4.95746C22.4274 4.99525 22.2866 5.06479 22.1621 5.1621C22.0375 5.25941 21.9317 5.38259 21.8508 5.52461C21.7698 5.66664 21.7151 5.82471 21.69 5.98982L19.6344 13.8393H8.0628L5.2344 4.56061C5.0819 4.05736 4.78816 3.61953 4.39496 3.30944C4.00177 2.99935 3.52916 2.8328 3.0444 2.83348H1.1616C1.00599 2.82801 0.850971 2.8568 0.705742 2.91815C0.560513 2.9795 0.428042 3.07215 0.3162 3.1906C0.204359 3.30905 0.11543 3.45088 0.0546976 3.60766C-0.00603464 3.76444 -0.0373306 3.93297 -0.0373306 4.10324C-0.0373306 4.27351 -0.00603464 4.44204 0.0546976 4.59882C0.11543 4.7556 0.204359 4.89743 0.3162 5.01587C0.428042 5.13432 0.560513 5.22697 0.705742 5.28832C0.850971 5.34967 1.00599 5.37846 1.1616 5.37299L3.0312 5.36249L6.9564 18.2451C7.15315 18.8876 7.51835 19.4527 8.00654 19.8699C8.49473 20.2872 9.08435 20.5382 9.702 20.5917C9.43688 20.9598 9.29199 21.4144 9.2904 21.8831C9.2904 22.161 9.34045 22.4362 9.43769 22.6929C9.53494 22.9497 9.67747 23.183 9.85715 23.3795C10.0368 23.576 10.2501 23.7319 10.4849 23.8382C10.7197 23.9446 10.9713 23.9993 11.2254 23.9993C11.4795 23.9993 11.7311 23.9446 11.9659 23.8382C12.2007 23.7319 12.414 23.576 12.5937 23.3795C12.7733 23.183 12.9159 22.9497 13.0131 22.6929C13.1103 22.4362 13.1604 22.161 13.1604 21.8831C13.1594 21.424 13.0202 20.978 12.7644 20.614H16.65C16.3942 20.978 16.255 21.424 16.254 21.8831C16.254 22.1611 16.3041 22.4364 16.4013 22.6932C16.4986 22.95 16.6412 23.1834 16.8209 23.38C17.0007 23.5765 17.214 23.7325 17.4489 23.8389C17.6837 23.9452 17.9354 24 18.1896 24C18.4438 24 18.6955 23.9452 18.9303 23.8389C19.1652 23.7325 19.3785 23.5765 19.5583 23.38C19.738 23.1834 19.8806 22.95 19.9779 22.6932C20.0751 22.4364 20.1252 22.1611 20.1252 21.8831C20.1242 21.424 19.985 20.978 19.7292 20.614H21.2892C21.5973 20.614 21.8927 20.4801 22.1106 20.2419C22.3284 20.0036 22.4508 19.6805 22.4508 19.3436C22.4508 19.0066 22.3284 18.6835 22.1106 18.4453C21.8927 18.207 21.5973 18.0732 21.2892 18.0732H9.9636C9.78585 18.0733 9.61257 18.0123 9.46827 17.8988C9.32398 17.7852 9.216 17.6249 9.1596 17.4406L8.8368 16.3802H19.77C20.3318 16.3249 20.8608 16.0668 21.2736 15.6464C21.6864 15.226 21.9595 14.6674 22.05 14.0585ZM14.466 10.3588C14.3999 10.434 14.3193 10.4921 14.23 10.5286C14.1407 10.5652 14.045 10.5794 13.95 10.5701C13.8446 10.5565 13.7433 10.5173 13.6536 10.4553C13.5639 10.3933 13.4881 10.3101 13.4316 10.2118L11.0448 6.32186C10.9533 6.19957 10.9053 6.04531 10.9095 5.88739C10.9137 5.72948 10.9698 5.57852 11.0676 5.46223C11.1333 5.39469 11.211 5.34252 11.2958 5.3089C11.3806 5.27527 11.4708 5.26091 11.5608 5.26669L12.816 5.29031L12.7536 1.2061C12.7505 1.04678 12.7769 0.888417 12.8312 0.740549C12.8855 0.592681 12.9666 0.458363 13.0697 0.345681C13.1727 0.232999 13.2955 0.144284 13.4307 0.0848755C13.5659 0.0254669 13.7107 -0.00340616 13.8564 -5.68861e-06C14.1496 0.00960067 14.4283 0.141534 14.6354 0.368732C14.8424 0.59593 14.9622 0.901171 14.97 1.22185L15.0324 5.32837L16.3068 5.35199C16.4236 5.34631 16.5397 5.37556 16.6424 5.43661C16.7452 5.49766 16.8308 5.58819 16.89 5.69847C16.9401 5.8115 16.961 5.93731 16.9507 6.0624C16.9403 6.18749 16.899 6.30713 16.8312 6.40848L14.5632 10.2145C14.5334 10.2663 14.4988 10.3147 14.46 10.3588H14.466Z" fill="#526B7A"/>
</svg>
