<svg width="16" height="16" viewBox="0 0 16 16" fill="none" xmlns="http://www.w3.org/2000/svg">
<path d="M5.56606 7.36603C5.88251 7.36603 6.19185 7.27218 6.45497 7.09637C6.71809 6.92056 6.9231 6.67066 7.0442 6.3783C7.16531 6.08593 7.19701 5.76423 7.13527 5.45386C7.07353 5.14349 6.92117 4.85841 6.6974 4.63464C6.47364 4.41088 6.18856 4.25845 5.87819 4.19672C5.56782 4.13498 5.24611 4.16668 4.95375 4.28778C4.66139 4.40888 4.41142 4.61396 4.23561 4.87708C4.0598 5.14019 3.96596 5.44954 3.96596 5.76599C3.96596 6.19034 4.13453 6.59734 4.43459 6.8974C4.73464 7.19746 5.14171 7.36603 5.56606 7.36603ZM8.00002 9C7.25189 8.98367 6.51048 9.14374 5.83571 9.46722C5.16094 9.79071 4.57175 10.2685 4.11598 10.862H4.13002C4.04659 10.9765 3.99925 11.1134 3.99403 11.255C3.99927 11.4539 4.08314 11.6425 4.22731 11.7795C4.37148 11.9166 4.5641 11.9909 4.76295 11.986C4.89334 11.9857 5.02151 11.9522 5.13539 11.8887C5.24927 11.8252 5.34512 11.7337 5.41396 11.623C5.73741 11.257 6.13502 10.9639 6.58034 10.7632C7.02566 10.5626 7.50852 10.4589 7.99696 10.459C8.47266 10.4445 8.94571 10.5356 9.38197 10.7258C9.81823 10.916 10.2069 11.2006 10.52 11.559C10.5833 11.6904 10.6828 11.801 10.8068 11.8777C10.9308 11.9544 11.0742 11.9941 11.22 11.992C11.4192 11.9971 11.6124 11.923 11.7571 11.786C11.9018 11.649 11.9862 11.4602 11.992 11.261C11.9898 11.1504 11.9616 11.042 11.9094 10.9445C11.8573 10.8469 11.7828 10.7632 11.692 10.7C11.2357 10.167 10.6695 9.73913 10.0322 9.44568C9.39494 9.15223 8.70163 9.00019 8.00002 9ZM10.4 4.16199C10.0836 4.16199 9.77424 4.25583 9.51112 4.43164C9.248 4.60745 9.04287 4.85736 8.92177 5.14972C8.80067 5.44208 8.76897 5.76379 8.8307 6.07416C8.89244 6.38453 9.04493 6.66961 9.26869 6.89337C9.49246 7.11714 9.77754 7.2695 10.0879 7.33124C10.3983 7.39297 10.72 7.36133 11.0123 7.24023C11.3047 7.11913 11.5546 6.91406 11.7304 6.65094C11.9062 6.38782 12 6.07847 12 5.76202C11.999 5.33837 11.8299 4.93243 11.5299 4.63324C11.23 4.33405 10.8237 4.16601 10.4 4.16602V4.16199ZM8.00002 0C6.41776 0 4.87103 0.469215 3.55543 1.34827C2.23984 2.22732 1.21452 3.47673 0.609024 4.93854C0.00352281 6.40035 -0.15498 8.00888 0.153702 9.56073C0.462383 11.1126 1.22433 12.538 2.34315 13.6569C3.46197 14.7757 4.8875 15.5376 6.43935 15.8463C7.99119 16.1549 9.59973 15.9966 11.0615 15.3911C12.5233 14.7856 13.7727 13.7602 14.6517 12.4446C15.5308 11.129 16 9.58225 16 8C16 5.87827 15.1572 3.84343 13.6569 2.34314C12.1566 0.842849 10.1217 0 8.00002 0ZM8.00002 14.4C6.73421 14.4 5.49683 14.0247 4.44435 13.3214C3.39188 12.6182 2.57157 11.6186 2.08717 10.4492C1.60277 9.27971 1.47609 7.99288 1.72304 6.7514C1.96998 5.50993 2.57945 4.36954 3.4745 3.47449C4.36956 2.57943 5.51 1.96991 6.75148 1.72296C7.99296 1.47602 9.27979 1.60276 10.4492 2.08716C11.6187 2.57156 12.6182 3.39186 13.3214 4.44434C14.0247 5.49681 14.4 6.7342 14.4 8C14.3982 9.69682 13.7233 11.3236 12.5235 12.5234C11.3236 13.7233 9.69683 14.3982 8.00002 14.4Z" fill="#F54C26"/>
</svg>
