<svg version="1.1" xmlns="http://www.w3.org/2000/svg" width="1024" height="1024" viewBox="0 0 1024 1024">
<path fill="#005c99" d="M244.779 597.879l160.973-80.474c48.307-24.149 87.471-63.326 111.625-111.629l80.516-161.003c5.286-10.56 16.085-17.237 27.904-17.237 11.81 0 22.622 6.677 27.904 17.237l80.491 160.973c24.145 48.303 63.317 87.467 111.612 111.616l160.943 80.516c10.581 5.274 17.254 16.085 17.254 27.904s-6.673 22.618-17.254 27.904l-160.969 80.486c-48.299 24.141-87.471 63.313-111.612 111.607l-80.491 160.973c-5.286 10.573-16.098 17.246-27.904 17.246-11.819 0-22.622-6.673-27.904-17.246l-80.491-160.973c-24.154-48.294-63.317-87.467-111.625-111.607l-160.973-80.512c-10.556-5.299-17.22-16.090-17.22-27.895 0-11.81 6.665-22.601 17.22-27.887zM264.93 217.122l68.983-34.543c4.523-2.266 7.373-6.886 7.373-11.942s-2.85-9.677-7.373-11.942l-68.983-34.505c-20.706-10.351-37.487-27.132-47.838-47.837l-34.505-68.981c-2.27-4.524-6.886-7.372-11.947-7.372-5.056 0-9.677 2.848-11.942 7.372l-34.505 68.981c-10.351 20.706-27.136 37.487-47.839 47.837l-68.983 34.505c-4.524 2.266-7.372 6.886-7.372 11.942s2.848 9.677 7.372 11.942l68.993 34.496c20.707 10.342 37.487 27.14 47.829 47.838l34.505 68.988c2.27 4.527 6.886 7.373 11.942 7.373 5.060 0 9.677-2.846 11.947-7.373l34.492-68.988c10.355-20.706 27.145-37.449 47.851-47.791z"></path>
</svg>
