<svg version="1.1" xmlns="http://www.w3.org/2000/svg" width="40" height="40" viewBox="0 0 40 40">
<path fill="#c2041a" d="M27.429 18.571c-0.192-2.332-1.253-4.508-2.973-6.095s-3.973-2.471-6.313-2.477h-1.571c-2.325 0.010-4.56 0.899-6.256 2.489s-2.728 3.763-2.887 6.082h-0.286c-1.136 0.003-2.224 0.456-3.027 1.259s-1.256 1.891-1.259 3.027v4.286c0.028 1.128 0.488 2.202 1.286 3s1.872 1.258 3 1.286c1.136-0.003 2.224-0.456 3.027-1.259s1.256-1.891 1.259-3.027v-4.286c0-1.143 0-2.286-1.429-3v-0.714c0.079-1.691 0.806-3.287 2.029-4.457s2.85-1.825 4.543-1.829h1.714c0.808 0.013 1.606 0.187 2.347 0.511s1.41 0.792 1.968 1.377 0.995 1.275 1.284 2.030c0.289 0.755 0.426 1.56 0.401 2.368v0.143c-1.429 0.857-1.429 2.143-1.429 3.571v4.286c0.018 0.733 0.208 1.451 0.556 2.096s0.842 1.2 1.444 1.618c-1.331 1.21-2.957 2.047-4.714 2.429-0.606-0.613-1.424-0.971-2.286-1-0.834 0-1.633 0.331-2.222 0.921s-0.921 1.389-0.921 2.222 0.331 1.633 0.921 2.222c0.589 0.589 1.389 0.921 2.222 0.921 0.739-0.003 1.455-0.26 2.027-0.728s0.966-1.119 1.116-1.843c2.907-0.667 5.486-2.336 7.286-4.714 0.891-0.275 1.674-0.823 2.237-1.566s0.88-1.644 0.905-2.577v-4.286c0.012-1.092-0.396-2.146-1.141-2.944s-1.769-1.279-2.859-1.341zM8.571 27.143c-0.025 0.371-0.184 0.72-0.446 0.982s-0.612 0.421-0.982 0.446c-0.371-0.025-0.72-0.184-0.982-0.446s-0.421-0.612-0.446-0.982v-4.286c0.025-0.371 0.184-0.72 0.446-0.982s0.612-0.421 0.982-0.446c0.371 0.025 0.72 0.184 0.982 0.446s0.421 0.612 0.446 0.982v4.286zM28.571 27.143c0 0.379-0.151 0.742-0.418 1.010s-0.631 0.418-1.010 0.418c-0.379 0-0.742-0.151-1.010-0.418s-0.418-0.631-0.418-1.010v-4.286c0-0.379 0.151-0.742 0.418-1.010s0.631-0.418 1.010-0.418c0.379 0 0.742 0.151 1.010 0.418s0.418 0.631 0.418 1.010v4.286z"></path>
<path fill="#c2041a" d="M34.524 2.857c0.92 0 1.667 0.746 1.667 1.667v5.833c0 0.92-0.746 1.667-1.667 1.667s-1.667-0.746-1.667-1.667v-5.833c0-0.92 0.746-1.667 1.667-1.667zM32.857 16.19c0-0.92 0.746-1.667 1.667-1.667h0.017c0.921 0 1.667 0.746 1.667 1.667s-0.746 1.667-1.667 1.667h-0.017c-0.921 0-1.667-0.746-1.667-1.667z"></path>
</svg>
