<!-- Generated by IcoMoon.io -->
<svg version="1.1" xmlns="http://www.w3.org/2000/svg" width="32" height="32" viewBox="0 0 32 32">
<title>Vector</title>
<path fill="#003d7a" d="M12.8 22.4c0-0.64 0-12.32 0-12.8 0-0.64 0.96-1.12 1.6-0.8 0.48 0.32 6.88 5.92 7.68 6.4 0.48 0.32 0.48 1.12 0 1.44s-7.040 6.080-7.68 6.4c-0.48 0.32-1.6 0-1.6-0.64z"></path>
<path fill="#003d7a" d="M16 3.2c7.040 0 12.8 5.76 12.8 12.8s-5.76 12.8-12.8 12.8c-7.040 0-12.8-5.76-12.8-12.8s5.76-12.8 12.8-12.8zM16 0c-8.8 0-16 7.2-16 16s7.2 16 16 16c8.8 0 16-7.2 16-16s-7.2-16-16-16z"></path>
</svg>
