<!-- Generated by IcoMoon.io -->
<svg version="1.1" xmlns="http://www.w3.org/2000/svg" width="32" height="32" viewBox="0 0 32 32">
<path fill="#e5e5e5" d="M0 0h32v32h-32v-32z"></path>
<path fill="#f4faff" d="M-9886.222-1409.778c0-1.964 1.6-3.556 3.556-3.556h25002.667c1.956 0 3.556 1.591 3.556 3.556v5642.667c0 1.956-1.6 3.556-3.556 3.556h-25002.667c-1.956 0-3.556-1.6-3.556-3.556v-5642.667z"></path>
<path fill="#eaf1f7" d="M1688.889-723.556h-2275.556v1280h2275.556v-1280z"></path>
<path fill="#fff" d="M2101.333-81.778h-2440.889v92.444h2440.889v-92.444z"></path>
<path fill="#f5f8fa" stroke="#007ab8" stroke-linejoin="miter" stroke-linecap="butt" stroke-miterlimit="4" stroke-width="3.5556" d="M-337.778 14.222h2437.333v128h-2437.333v-128z"></path>
<path fill="#05131a" opacity="0.48" d="M-586.667-723.556h2277.333v1287.111h-2277.333v-1287.111z"></path>
<path fill="#fff" d="M-44.444-608h1191.111c7.855 0 14.222 6.367 14.222 14.222v1048.889c0 7.855-6.368 14.222-14.222 14.222h-1191.111c-7.855 0-14.222-6.368-14.222-14.222v-1048.889c0-7.855 6.367-14.222 14.222-14.222z"></path>
<path fill="#fff" d="M1120-39.111h-1134.222v110.222h1134.222v-110.222z"></path>
<path fill="#ffb000" d="M16 32c8.837 0 16-7.163 16-16s-7.163-16-16-16c-8.837 0-16 7.163-16 16s7.163 16 16 16z"></path>
<path fill="#fff" d="M16 22.588c3.639 0 6.588-2.95 6.588-6.588s-2.95-6.588-6.588-6.588c-3.639 0-6.588 2.95-6.588 6.588s2.95 6.588 6.588 6.588z"></path>
<path fill="#000" opacity="0.1" d="M-9882.667-1411.556v0zM15121.778-1409.778v5642.667h3.556v-5642.667h-3.556zM15120 4234.667v0zM-9884.444 4232.889v-5642.667h-3.556v5642.667h3.556zM-9882.667 4234.667c-0.978 0-1.778-0.8-1.778-1.778h-3.556c0 2.951 2.382 5.333 5.333 5.333v-3.556zM15121.778 4232.889c0 0.978-0.8 1.778-1.778 1.778v3.556c2.951 0 5.333-2.382 5.333-5.333h-3.556zM15120-1411.556c0.978 0 1.778 0.796 1.778 1.778h3.556c0-2.946-2.382-5.333-5.333-5.333v3.556zM-9882.667-1415.111c-2.951 0-5.333 2.388-5.333 5.333h3.556c0-0.981 0.8-1.778 1.778-1.778v-3.556z"></path>
</svg>
