<svg width="24" height="24" viewBox="0 0 24 24" fill="none" xmlns="http://www.w3.org/2000/svg">
<path d="M14.3804 5H9.61955C8.13495 4.99476 6.70904 5.58491 5.65527 6.64074C4.6015 7.69657 4.00612 9.13165 4 10.6305V10.7275C4.00612 12.2263 4.6015 13.6614 5.65527 14.7172C6.70904 15.7731 8.13495 16.3632 9.61955 16.358H11.9111L16.8169 19.9154C16.894 19.9673 16.9839 19.9965 17.0766 19.9997C17.1692 20.0029 17.2609 19.9799 17.3413 19.9334C17.4134 19.8907 17.4732 19.8299 17.5151 19.7569C17.557 19.684 17.5795 19.6013 17.5804 19.517L16.8471 15.7693C17.7884 15.3132 18.5835 14.5986 19.1411 13.7073C19.6987 12.8161 19.9964 11.7843 20 10.7301V10.6332C19.9946 9.13388 19.3995 7.6981 18.3457 6.64169C17.2918 5.58528 15.8655 4.99476 14.3804 5V5Z" fill="#245900"/>
</svg>
