<svg width="24" height="24" viewBox="0 0 24 24" fill="none" xmlns="http://www.w3.org/2000/svg">
<path d="M17.026 5.842V4.895C17.0285 4.64864 16.9824 4.40419 16.8905 4.17562C16.7985 3.94706 16.6624 3.73884 16.49 3.56287C16.3175 3.38691 16.1121 3.24663 15.8855 3.15005C15.6588 3.05347 15.4153 3.00248 15.169 3H7.85698C7.61061 3.00248 7.36715 3.05347 7.14049 3.15005C6.91383 3.24663 6.70842 3.38691 6.53598 3.56287C6.36354 3.73884 6.22745 3.94706 6.13548 4.17562C6.04351 4.40419 5.99747 4.64864 5.99998 4.895V19.105C5.99747 19.3514 6.04351 19.5958 6.13548 19.8244C6.22745 20.0529 6.36354 20.2612 6.53598 20.4371C6.70842 20.6131 6.91383 20.7534 7.14049 20.85C7.36715 20.9465 7.61061 20.9975 7.85698 21H15.169C15.4153 20.9975 15.6588 20.9465 15.8855 20.85C16.1121 20.7534 16.3175 20.6131 16.49 20.4371C16.6624 20.2612 16.7985 20.0529 16.8905 19.8244C16.9824 19.5958 17.0285 19.3514 17.026 19.105V15.316H15.169V16.737C15.1696 16.7986 15.1582 16.8597 15.1352 16.9169C15.1122 16.974 15.0782 17.0261 15.0352 17.0701C14.9921 17.1141 14.9407 17.1492 14.8841 17.1734C14.8274 17.1976 14.7666 17.2103 14.705 17.211H8.32098C8.25938 17.2103 8.19853 17.1976 8.14187 17.1734C8.08522 17.1492 8.03389 17.1141 7.9908 17.0701C7.94771 17.0261 7.91372 16.974 7.89076 16.9169C7.86779 16.8597 7.85632 16.7986 7.85698 16.737V5.368C7.85632 5.30641 7.86779 5.24529 7.89076 5.18814C7.91372 5.13098 7.94771 5.07891 7.9908 5.03489C8.03389 4.99088 8.08522 4.95578 8.14187 4.93161C8.19853 4.90743 8.25938 4.89465 8.32098 4.894H14.704C14.7656 4.89465 14.8264 4.90743 14.8831 4.93161C14.9397 4.95578 14.9911 4.99088 15.0342 5.03489C15.0772 5.07891 15.1112 5.13098 15.1342 5.18814C15.1572 5.24529 15.1686 5.30641 15.168 5.368V5.842H17.026ZM10.584 18.158H12.437C12.6829 18.166 12.9162 18.2693 13.0873 18.4461C13.2585 18.623 13.3542 18.8594 13.3542 19.1055C13.3542 19.3516 13.2585 19.588 13.0873 19.7649C12.9162 19.9417 12.6829 20.045 12.437 20.053H10.584C10.338 20.045 10.1048 19.9417 9.93363 19.7649C9.76246 19.588 9.66676 19.3516 9.66676 19.1055C9.66676 18.8594 9.76246 18.623 9.93363 18.4461C10.1048 18.2693 10.338 18.166 10.584 18.158ZM19 9.632V11.527C19.0025 11.7734 18.9564 12.0178 18.8645 12.2464C18.7725 12.4749 18.6364 12.6832 18.464 12.8591C18.2915 13.0351 18.0861 13.1754 17.8595 13.272C17.6328 13.3685 17.3893 13.4195 17.143 13.422H13.429L11.572 15.317V13.421C11.3256 13.4185 11.0822 13.3675 10.8555 13.271C10.6288 13.1744 10.4234 13.0341 10.251 12.8581C10.0785 12.6822 9.94245 12.4739 9.85048 12.2454C9.75851 12.0168 9.71247 11.7724 9.71498 11.526V9.632C9.71247 9.38564 9.75851 9.14119 9.85048 8.91263C9.94245 8.68406 10.0785 8.47584 10.251 8.29988C10.4234 8.12391 10.6288 7.98363 10.8555 7.88705C11.0822 7.79047 11.3256 7.73948 11.572 7.737H17.143C17.3893 7.73948 17.6328 7.79047 17.8595 7.88705C18.0861 7.98363 18.2915 8.12391 18.464 8.29988C18.6364 8.47584 18.7725 8.68406 18.8645 8.91263C18.9564 9.14119 19.0025 9.38564 19 9.632Z" fill="#55A734"/>
</svg>
