<svg width="24" height="24" viewBox="0 0 24 24" fill="none" xmlns="http://www.w3.org/2000/svg">
<path d="M13.026 5.842V4.895C13.0285 4.64864 12.9824 4.40419 12.8905 4.17562C12.7985 3.94706 12.6624 3.73884 12.49 3.56287C12.3175 3.38691 12.1121 3.24663 11.8855 3.15005C11.6588 3.05347 11.4153 3.00248 11.169 3H3.85698C3.61061 3.00248 3.36715 3.05347 3.14049 3.15005C2.91383 3.24663 2.70842 3.38691 2.53598 3.56287C2.36354 3.73884 2.22745 3.94706 2.13548 4.17562C2.04351 4.40419 1.99747 4.64864 1.99998 4.895V19.105C1.99747 19.3514 2.04351 19.5958 2.13548 19.8244C2.22745 20.0529 2.36354 20.2612 2.53598 20.4371C2.70842 20.6131 2.91383 20.7534 3.14049 20.85C3.36715 20.9465 3.61061 20.9975 3.85698 21H11.169C11.4153 20.9975 11.6588 20.9465 11.8855 20.85C12.1121 20.7534 12.3175 20.6131 12.49 20.4371C12.6624 20.2612 12.7985 20.0529 12.8905 19.8244C12.9824 19.5958 13.0285 19.3514 13.026 19.105V15.316H11.169V16.737C11.1696 16.7986 11.1582 16.8597 11.1352 16.9169C11.1122 16.974 11.0782 17.0261 11.0352 17.0701C10.9921 17.1141 10.9407 17.1492 10.8841 17.1734C10.8274 17.1976 10.7666 17.2103 10.705 17.211H4.32098C4.25938 17.2103 4.19853 17.1976 4.14187 17.1734C4.08522 17.1492 4.03389 17.1141 3.9908 17.0701C3.94771 17.0261 3.91372 16.974 3.89076 16.9169C3.86779 16.8597 3.85632 16.7986 3.85698 16.737V5.368C3.85632 5.30641 3.86779 5.24529 3.89076 5.18814C3.91372 5.13098 3.94771 5.07891 3.9908 5.03489C4.03389 4.99088 4.08522 4.95578 4.14187 4.93161C4.19853 4.90743 4.25938 4.89465 4.32098 4.894H10.704C10.7656 4.89465 10.8264 4.90743 10.8831 4.93161C10.9397 4.95578 10.9911 4.99088 11.0342 5.03489C11.0772 5.07891 11.1112 5.13098 11.1342 5.18814C11.1572 5.24529 11.1686 5.30641 11.168 5.368V5.842H13.026ZM6.58398 18.158H8.43698C8.68294 18.166 8.91616 18.2693 9.08732 18.4461C9.25849 18.623 9.35419 18.8594 9.35419 19.1055C9.35419 19.3516 9.25849 19.588 9.08732 19.7649C8.91616 19.9417 8.68294 20.045 8.43698 20.053H6.58398C6.33801 20.045 6.10479 19.9417 5.93363 19.7649C5.76246 19.588 5.66676 19.3516 5.66676 19.1055C5.66676 18.8594 5.76246 18.623 5.93363 18.4461C6.10479 18.2693 6.33801 18.166 6.58398 18.158ZM15 9.632V11.527C15.0025 11.7734 14.9564 12.0178 14.8645 12.2464C14.7725 12.4749 14.6364 12.6832 14.464 12.8591C14.2915 13.0351 14.0861 13.1754 13.8595 13.272C13.6328 13.3685 13.3893 13.4195 13.143 13.422H9.42898L7.57198 15.317V13.421C7.32561 13.4185 7.08215 13.3675 6.85549 13.271C6.62883 13.1744 6.42342 13.0341 6.25098 12.8581C6.07854 12.6822 5.94245 12.4739 5.85048 12.2454C5.75851 12.0168 5.71247 11.7724 5.71498 11.526V9.632C5.71247 9.38564 5.75851 9.14119 5.85048 8.91263C5.94245 8.68406 6.07854 8.47584 6.25098 8.29988C6.42342 8.12391 6.62883 7.98363 6.85549 7.88705C7.08215 7.79047 7.32561 7.73948 7.57198 7.737H13.143C13.3893 7.73948 13.6328 7.79047 13.8595 7.88705C14.0861 7.98363 14.2915 8.12391 14.464 8.29988C14.6364 8.47584 14.7725 8.68406 14.8645 8.91263C14.9564 9.14119 15.0025 9.38564 15 9.632Z" fill="#55A734"/>
<path d="M20.75 15.25C20.75 15.6642 20.4142 16 20 16C19.5858 16 19.25 15.6642 19.25 15.25V12H17.2732C17.0485 12 16.9202 11.7546 17.055 11.5826L19.7819 8.10435C19.8909 7.96522 20.1091 7.96522 20.2182 8.10435L22.945 11.5826C23.0798 11.7546 22.9515 12 22.7268 12H20.75V15.25Z" fill="#55A734"/>
</svg>
