<svg width="24" height="24" viewBox="0 0 24 24" fill="none" xmlns="http://www.w3.org/2000/svg">
<path d="M19.2 4H4.8C4.58783 4 4.38434 4.08429 4.23431 4.23431C4.08429 4.38434 4 4.58783 4 4.8V19.2C4 19.4122 4.08429 19.6157 4.23431 19.7657C4.38434 19.9157 4.58783 20 4.8 20H19.2C19.4122 20 19.6157 19.9157 19.7657 19.7657C19.9157 19.6157 20 19.4122 20 19.2V4.8C20 4.58783 19.9157 4.38434 19.7657 4.23431C19.6157 4.08429 19.4122 4 19.2 4V4ZM9.48 15.488V15.491C9.48001 15.5398 9.47008 15.5881 9.45083 15.633C9.43157 15.6779 9.40339 15.7184 9.368 15.752C9.33354 15.7899 9.29154 15.8201 9.2447 15.8408C9.19785 15.8614 9.1472 15.8721 9.096 15.872H7.368C7.31692 15.8721 7.26638 15.8615 7.21962 15.8409C7.17286 15.8204 7.13093 15.7902 7.0965 15.7525V15.752C7.06106 15.7184 7.03285 15.6779 7.01359 15.633C6.99433 15.5882 6.98444 15.5398 6.9845 15.491V11.647C6.9845 11.541 7.0275 11.4455 7.0965 11.376C7.1301 11.3406 7.17058 11.3123 7.21545 11.2931C7.26033 11.2738 7.30867 11.2639 7.3575 11.264H7.369H7.3685H9.1075C9.21 11.264 9.303 11.307 9.3685 11.376C9.44021 11.448 9.48048 11.5454 9.4805 11.647V11.648L9.48 15.488ZM17.144 12.992V13.016C17.144 13.3095 17.0445 13.58 16.8775 13.795L16.8795 13.792C16.9525 14.024 16.9518 14.2729 16.8775 14.5045L16.88 14.496C16.8286 14.709 16.7178 14.903 16.5605 15.0555L16.56 15.056C16.586 15.2486 16.5729 15.4444 16.5216 15.6318C16.4704 15.8193 16.3819 15.9945 16.2615 16.147L16.264 16.144C16.1136 16.3062 15.9288 16.4328 15.7232 16.5145C15.5175 16.5961 15.2963 16.6308 15.0755 16.616H15.08H14.28C13.9798 16.6133 13.6807 16.5793 13.3875 16.5145L13.416 16.52C13.1533 16.4718 12.8935 16.4087 12.638 16.331L12.688 16.344C12.512 16.296 12.272 16.216 11.96 16.112C11.6649 15.9863 11.3551 15.8984 11.038 15.8505L11.016 15.8475C10.9143 15.8397 10.8183 15.7974 10.744 15.7275C10.7086 15.6939 10.6803 15.6534 10.6611 15.6085C10.6418 15.5637 10.6319 15.5153 10.632 15.4665V11.632C10.632 11.532 10.6715 11.442 10.736 11.3755C10.8061 11.3048 10.8996 11.2621 10.999 11.2555H11C11.096 11.2555 11.248 11.1275 11.456 10.9035C11.664 10.6795 11.864 10.4315 12.056 10.1755C12.2565 9.9095 12.456 9.6745 12.6675 9.452L12.664 9.4555C12.742 9.3755 12.8045 9.2795 12.846 9.1735L12.848 9.1675C12.889 9.0855 12.9245 8.9895 12.95 8.8895L12.952 8.8795C12.952 8.7995 13 8.6795 13.04 8.5115C13.08 8.3435 13.088 8.2315 13.112 8.1435C13.148 8.022 13.1885 7.9185 13.2375 7.8195L13.232 7.8315C13.2806 7.72179 13.3484 7.62157 13.432 7.5355C13.4656 7.50006 13.5061 7.47185 13.551 7.45259C13.5958 7.43333 13.6442 7.42344 13.693 7.4235H13.7045H13.704L13.75 7.423C13.9105 7.423 14.0655 7.4465 14.2115 7.4905L14.2 7.4875C14.3365 7.522 14.4565 7.574 14.565 7.6425L14.56 7.6395C14.6525 7.708 14.7315 7.787 14.798 7.8765L14.8 7.8795C14.8535 7.9622 14.9002 8.04916 14.9395 8.1395L14.944 8.1515C14.944 8.2315 14.992 8.3355 15.016 8.4555C15.0217 8.54558 15.0217 8.63592 15.016 8.726L15.0165 8.7195C15.0211 8.80127 15.0211 8.88323 15.0165 8.965L15.017 8.9595C15.014 9.123 14.9935 9.2795 14.958 9.4305L14.961 9.4155C14.9265 9.5555 14.885 9.6755 14.835 9.7905L14.841 9.7755C14.7931 9.89598 14.7372 10.0131 14.6735 10.126L14.681 10.1115L14.617 10.2155L14.553 10.3515L14.505 10.4955H16.169C16.4738 10.4976 16.7655 10.6196 16.9811 10.8351C17.1967 11.0505 17.3188 11.3422 17.321 11.647V11.6675C17.321 12.001 17.1965 12.3055 16.9915 12.537L16.9925 12.5355C17.0615 12.6675 17.1145 12.8205 17.143 12.982L17.1445 12.9915L17.144 12.992Z" fill="#009DD8"/>
</svg>
