<svg width="24" height="24" viewBox="0 0 24 24" fill="none" xmlns="http://www.w3.org/2000/svg">
<path d="M15.2 4H0.8C0.587827 4 0.384344 4.08429 0.234315 4.23431C0.0842855 4.38434 0 4.58783 0 4.8L0 19.2C0 19.4122 0.0842855 19.6157 0.234315 19.7657C0.384344 19.9157 0.587827 20 0.8 20H15.2C15.4122 20 15.6157 19.9157 15.7657 19.7657C15.9157 19.6157 16 19.4122 16 19.2V4.8C16 4.58783 15.9157 4.38434 15.7657 4.23431C15.6157 4.08429 15.4122 4 15.2 4V4ZM5.48 15.488V15.491C5.48001 15.5398 5.47008 15.5881 5.45083 15.633C5.43157 15.6779 5.40339 15.7184 5.368 15.752C5.33354 15.7899 5.29154 15.8201 5.2447 15.8408C5.19785 15.8614 5.1472 15.8721 5.096 15.872H3.368C3.31692 15.8721 3.26638 15.8615 3.21962 15.8409C3.17286 15.8204 3.13093 15.7902 3.0965 15.7525V15.752C3.06106 15.7184 3.03285 15.6779 3.01359 15.633C2.99433 15.5882 2.98444 15.5398 2.9845 15.491V11.647C2.9845 11.541 3.0275 11.4455 3.0965 11.376C3.1301 11.3406 3.17058 11.3123 3.21545 11.2931C3.26033 11.2738 3.30867 11.2639 3.3575 11.264H3.369H3.3685H5.1075C5.21 11.264 5.303 11.307 5.3685 11.376C5.44021 11.448 5.48048 11.5454 5.4805 11.647V11.648L5.48 15.488ZM13.144 12.992V13.016C13.144 13.3095 13.0445 13.58 12.8775 13.795L12.8795 13.792C12.9525 14.024 12.9518 14.2729 12.8775 14.5045L12.88 14.496C12.8286 14.709 12.7178 14.903 12.5605 15.0555L12.56 15.056C12.586 15.2486 12.5729 15.4444 12.5216 15.6318C12.4704 15.8193 12.3819 15.9945 12.2615 16.147L12.264 16.144C12.1136 16.3062 11.9288 16.4328 11.7232 16.5145C11.5175 16.5961 11.2963 16.6308 11.0755 16.616H11.08H10.28C9.97978 16.6133 9.68066 16.5793 9.3875 16.5145L9.416 16.52C9.1533 16.4718 8.89355 16.4087 8.638 16.331L8.688 16.344C8.512 16.296 8.272 16.216 7.96 16.112C7.66493 15.9863 7.35513 15.8984 7.038 15.8505L7.016 15.8475C6.91429 15.8397 6.8183 15.7974 6.744 15.7275C6.70856 15.6939 6.68035 15.6534 6.66109 15.6085C6.64183 15.5637 6.63194 15.5153 6.632 15.4665V11.632C6.632 11.532 6.6715 11.442 6.736 11.3755C6.80611 11.3048 6.89964 11.2621 6.999 11.2555H7C7.096 11.2555 7.248 11.1275 7.456 10.9035C7.664 10.6795 7.864 10.4315 8.056 10.1755C8.2565 9.9095 8.456 9.6745 8.6675 9.452L8.664 9.4555C8.742 9.3755 8.8045 9.2795 8.846 9.1735L8.848 9.1675C8.889 9.0855 8.9245 8.9895 8.95 8.8895L8.952 8.8795C8.952 8.7995 9 8.6795 9.04 8.5115C9.08 8.3435 9.088 8.2315 9.112 8.1435C9.148 8.022 9.1885 7.9185 9.2375 7.8195L9.232 7.8315C9.28064 7.72179 9.34836 7.62157 9.432 7.5355C9.4656 7.50006 9.50608 7.47185 9.55095 7.45259C9.59583 7.43333 9.64417 7.42344 9.693 7.4235H9.7045H9.704L9.75 7.423C9.9105 7.423 10.0655 7.4465 10.2115 7.4905L10.2 7.4875C10.3365 7.522 10.4565 7.574 10.565 7.6425L10.56 7.6395C10.6525 7.708 10.7315 7.787 10.798 7.8765L10.8 7.8795C10.8535 7.9622 10.9002 8.04916 10.9395 8.1395L10.944 8.1515C10.944 8.2315 10.992 8.3355 11.016 8.4555C11.0217 8.54558 11.0217 8.63592 11.016 8.726L11.0165 8.7195C11.0211 8.80127 11.0211 8.88323 11.0165 8.965L11.017 8.9595C11.014 9.123 10.9935 9.2795 10.958 9.4305L10.961 9.4155C10.9265 9.5555 10.885 9.6755 10.835 9.7905L10.841 9.7755C10.7931 9.89598 10.7372 10.0131 10.6735 10.126L10.681 10.1115L10.617 10.2155L10.553 10.3515L10.505 10.4955H12.169C12.4738 10.4976 12.7655 10.6196 12.9811 10.8351C13.1967 11.0505 13.3188 11.3422 13.321 11.647V11.6675C13.321 12.001 13.1965 12.3055 12.9915 12.537L12.9925 12.5355C13.0615 12.6675 13.1145 12.8205 13.143 12.982L13.1445 12.9915L13.144 12.992Z" fill="#009DD8"/>
<path d="M21.75 8.75C21.75 8.33578 21.4142 8 21 8C20.5858 8 20.25 8.33578 20.25 8.75V12H18.2732C18.0485 12 17.9202 12.2454 18.055 12.4174L20.7819 15.8957C20.8909 16.0348 21.1091 16.0348 21.2182 15.8957L23.945 12.4174C24.0798 12.2454 23.9515 12 23.7268 12H21.75V8.75Z" fill="#009DD8"/>
</svg>
