<svg width="24" height="24" viewBox="0 0 24 24" fill="none" xmlns="http://www.w3.org/2000/svg">
<path d="M18.5545 7H5.51942C4.71973 7 4 7.69231 4 8.46154V15.4615C4 16.3077 4.71973 17 5.51942 17H18.4745C19.3542 17 19.9939 16.3077 19.9939 15.5385V8.46154C20.0739 7.69231 19.3542 7 18.5545 7ZM16.0754 14.6923H8.23839C6.71896 14.5385 5.59939 13.2308 5.59939 11.7692C5.59939 10.2308 6.8789 8.92308 8.55826 8.92308C10.1577 8.92308 11.5171 10.1538 11.5171 11.7692C11.5171 12.3846 11.2772 12.7692 10.9574 13.1538H13.2765C12.9566 12.6923 12.7966 12.3846 12.7966 11.7692C12.7966 10.2308 14.0762 8.92308 15.7555 8.92308C17.3549 8.92308 18.7144 10.1538 18.7144 11.7692C18.7144 13.6154 17.4349 14.6154 16.0754 14.6923Z" fill="#A94219"/>
<path d="M8.55826 10.5385C7.83854 10.5385 7.19878 11.1538 7.19878 11.8462C7.19878 12.5385 7.83854 13.1538 8.55826 13.1538C9.27799 13.1538 9.91775 12.5385 9.91775 11.8462C9.91775 11.1538 9.35796 10.5385 8.55826 10.5385Z" fill="#A94219"/>
<path d="M17.4349 11.8462C17.4349 12.5685 16.8263 13.1538 16.0754 13.1538C15.3245 13.1538 14.7159 12.5685 14.7159 11.8462C14.7159 11.1238 15.3245 10.5385 16.0754 10.5385C16.8263 10.5385 17.4349 11.1238 17.4349 11.8462Z" fill="#A94219"/>
</svg>
