<svg width="24" height="24" viewBox="0 0 24 24" fill="none" xmlns="http://www.w3.org/2000/svg">
<path d="M16.305 14.5483C16.305 14.5483 15.6007 15.6502 15.5383 15.7435C15.4759 15.8368 15.3368 16.1136 14.6807 15.927C13.1676 15.3579 11.8299 14.4237 10.7947 13.2131C9.5709 12.1557 8.63817 10.8199 8.08057 9.32636C7.89327 8.6699 8.17038 8.53416 8.26348 8.4684C8.35658 8.40265 9.45843 7.69848 9.45843 7.69848C10.1999 7.26366 9.36095 5.40459 8.00937 4.50951C7.01157 3.84775 6.57346 3.9135 6.15397 4.23908C5.47076 4.78622 4.85974 5.41275 4.33471 6.10452C4.06887 6.47565 3.95525 6.92932 4.01599 7.37714C4.23512 8.79233 4.74058 10.1517 5.50338 11.3774C6.36318 12.8336 7.41671 14.1743 8.63697 15.3649C9.8162 16.5763 11.1565 17.6305 12.6227 18.4998C13.8364 19.2581 15.1996 19.7637 16.6259 19.9845C17.0768 20.0442 17.5339 19.9299 17.8986 19.6664C18.5942 19.1358 19.2196 18.5242 19.7606 17.8455C20.0892 17.4213 20.1494 16.9886 19.489 15.9896C18.5985 14.6448 16.7398 13.807 16.305 14.5483Z" fill="#5B2F81"/>
</svg>
