<svg width="24" height="24" viewBox="0 0 24 24" fill="none" xmlns="http://www.w3.org/2000/svg">
<path d="M12.305 14.5483C12.305 14.5483 11.6007 15.6502 11.5383 15.7435C11.4759 15.8368 11.3368 16.1136 10.6807 15.927C9.16763 15.3579 7.82992 14.4237 6.79467 13.2131C5.5709 12.1557 4.63817 10.8199 4.08057 9.32636C3.89327 8.6699 4.17038 8.53416 4.26348 8.4684C4.35658 8.40265 5.45843 7.69848 5.45843 7.69848C6.19993 7.26366 5.36095 5.40459 4.00937 4.50951C3.01157 3.84775 2.57346 3.9135 2.15397 4.23908C1.47076 4.78622 0.85974 5.41275 0.334713 6.10452C0.0688709 6.47565 -0.0447503 6.92932 0.0159874 7.37714C0.235123 8.79233 0.740578 10.1517 1.50338 11.3774C2.36318 12.8336 3.41671 14.1743 4.63697 15.3649C5.8162 16.5763 7.15651 17.6305 8.62269 18.4998C9.83636 19.2581 11.1996 19.7637 12.6259 19.9845C13.0768 20.0442 13.5339 19.9299 13.8986 19.6664C14.5942 19.1358 15.2196 18.5242 15.7606 17.8455C16.0892 17.4213 16.1494 16.9886 15.489 15.9896C14.5985 14.6448 12.7398 13.807 12.305 14.5483Z" fill="#5B2F81"/>
<path d="M21.75 8.75C21.75 8.33578 21.4142 8 21 8C20.5858 8 20.25 8.33578 20.25 8.75V12H18.2732C18.0485 12 17.9202 12.2454 18.055 12.4174L20.7819 15.8957C20.8909 16.0348 21.1091 16.0348 21.2182 15.8957L23.945 12.4174C24.0798 12.2454 23.9515 12 23.7268 12H21.75V8.75Z" fill="#5B2F81"/>
</svg>
