<svg width="24" height="24" viewBox="0 0 24 24" fill="none" xmlns="http://www.w3.org/2000/svg">
<path d="M14.5545 7H1.51942C0.719726 7 0 7.69231 0 8.46154V15.4615C0 16.3077 0.719726 17 1.51942 17H14.4745C15.3542 17 15.9939 16.3077 15.9939 15.5385V8.46154C16.0739 7.69231 15.3542 7 14.5545 7ZM12.0754 14.6923H4.23839C2.71896 14.5385 1.59939 13.2308 1.59939 11.7692C1.59939 10.2308 2.8789 8.92308 4.55826 8.92308C6.15766 8.92308 7.51714 10.1538 7.51714 11.7692C7.51714 12.3846 7.27723 12.7692 6.95735 13.1538H9.27647C8.95659 12.6923 8.79665 12.3846 8.79665 11.7692C8.79665 10.2308 10.0762 8.92308 11.7555 8.92308C13.3549 8.92308 14.7144 10.1538 14.7144 11.7692C14.7144 13.6154 13.4349 14.6154 12.0754 14.6923Z" fill="#A94219"/>
<path d="M4.55826 10.5385C3.83854 10.5385 3.19878 11.1538 3.19878 11.8462C3.19878 12.5385 3.83854 13.1538 4.55826 13.1538C5.27799 13.1538 5.91775 12.5385 5.91775 11.8462C5.91775 11.1538 5.35796 10.5385 4.55826 10.5385Z" fill="#A94219"/>
<path d="M13.4349 11.8462C13.4349 12.5685 12.8263 13.1538 12.0754 13.1538C11.3245 13.1538 10.7159 12.5685 10.7159 11.8462C10.7159 11.1238 11.3245 10.5385 12.0754 10.5385C12.8263 10.5385 13.4349 11.1238 13.4349 11.8462Z" fill="#A94219"/>
<path d="M21.75 8.75C21.75 8.33578 21.4142 8 21 8C20.5858 8 20.25 8.33578 20.25 8.75V12H18.2732C18.0485 12 17.9202 12.2454 18.055 12.4174L20.7819 15.8957C20.8909 16.0348 21.1091 16.0348 21.2182 15.8957L23.945 12.4174C24.0798 12.2454 23.9515 12 23.7268 12H21.75V8.75Z" fill="#A94219"/>
</svg>
