<svg width="24" height="24" viewBox="0 0 24 24" fill="none" xmlns="http://www.w3.org/2000/svg">
<path d="M16.761 4.00998H7.23694C5.45317 4.00998 4.00897 5.45417 4.00897 7.23794V16.764C4.00897 18.5458 5.45317 19.99 7.23694 19.99H16.763C18.5448 19.99 19.991 18.5458 19.991 16.762V7.23794C19.989 5.45417 18.5448 4.00998 16.761 4.00998Z" fill="#0e94f6"/>
<path d="M11.9311 7.68138L12.2547 7.12208C12.4544 6.77252 12.8999 6.65467 13.2494 6.85442C13.599 7.05417 13.7168 7.49961 13.5171 7.84917L10.399 13.2464H12.6542C13.3852 13.2464 13.7947 14.1054 13.4771 14.7006H6.8654C6.4619 14.7006 6.13831 14.377 6.13831 13.9735C6.13831 13.57 6.4619 13.2464 6.8654 13.2464H8.71908L11.0921 9.13357L10.351 7.84718C10.1513 7.49761 10.2691 7.05617 10.6187 6.85242C10.9683 6.65267 11.4097 6.77052 11.6135 7.12009L11.9311 7.68138ZM9.12657 15.4497L8.42744 16.6622C8.22769 17.0117 7.78225 17.1296 7.43269 16.9298C7.08312 16.7301 6.96527 16.2846 7.16502 15.9351L7.68437 15.0362C8.27164 14.8544 8.74904 14.9942 9.12657 15.4497V15.4497ZM15.147 13.2504H17.0387C17.4422 13.2504 17.7658 13.574 17.7658 13.9775C17.7658 14.381 17.4422 14.7046 17.0387 14.7046H15.988L16.6971 15.9351C16.8969 16.2846 16.779 16.7261 16.4294 16.9298C16.0799 17.1296 15.6384 17.0117 15.4347 16.6622C14.2402 14.5907 13.3433 13.0407 12.748 12.008C12.1388 10.9573 12.5743 9.90261 13.0037 9.54505C13.4811 10.364 14.1942 11.6005 15.147 13.2504V13.2504Z" fill="white"/>
</svg>
