<svg width="24" height="24" viewBox="0 0 24 24" fill="none" xmlns="http://www.w3.org/2000/svg">
  <path d="M12.7664 4H3.2316C1.44582 4 0 5.44582 0 7.2316V16.7684C0 18.5522 1.44582 19.998 3.2316 19.998H12.7684C14.5522 19.998 16 18.5522 16 16.7664V7.2316C15.998 5.44582 14.5522 4 12.7664 4Z" fill="#0e94f6"></path>
  <path d="M7.93105 7.92708L8.25501 7.36715C8.45498 7.0172 8.90093 6.89921 9.25089 7.09919C9.60084 7.29916 9.71883 7.74511 9.51885 8.09506L6.39724 13.4984H8.65496C9.38687 13.4984 9.79682 14.3583 9.47886 14.9542H2.85968C2.45573 14.9542 2.13177 14.6302 2.13177 14.2263C2.13177 13.8223 2.45573 13.4984 2.85968 13.4984H4.71545L7.09116 9.3809L6.34925 8.09306C6.14927 7.74311 6.26726 7.30116 6.61721 7.09719C6.96717 6.89721 7.40912 7.0152 7.61309 7.36515L7.93105 7.92708ZM5.1234 15.7041L4.42349 16.918C4.22351 17.2679 3.77757 17.3859 3.42761 17.1859C3.07766 16.986 2.95967 16.54 3.15965 16.1901L3.67958 15.2902C4.26751 15.1082 4.74545 15.2482 5.1234 15.7041ZM11.1506 13.5024H13.0444C13.4484 13.5024 13.7723 13.8263 13.7723 14.2303C13.7723 14.6342 13.4484 14.9582 13.0444 14.9582H11.9925L12.7025 16.1901C12.9024 16.54 12.7844 16.982 12.4345 17.1859C12.0845 17.3859 11.6426 17.2679 11.4386 16.918C10.2428 14.8442 9.34487 13.2924 8.74895 12.2585C8.13902 11.2067 8.57497 10.1508 9.00492 9.79285C9.48286 10.6127 10.1968 11.8506 11.1506 13.5024Z" fill="white"></path>
  <path d="M 20.889 9.255 C 20.889 8.841 20.553 8.505 20.139 8.505 C 19.725 8.505 19.389 8.841 19.389 9.255 L 19.389 12.505 L 17.412 12.505 C 17.188 12.505 17.059 12.75 17.194 12.922 L 19.921 16.4 C 20.03 16.54 20.248 16.54 20.357 16.4 L 23.084 12.922 C 23.219 12.75 23.091 12.505 22.866 12.505 L 20.889 12.505 L 20.889 9.255 Z" fill="#1BB7FA"></path>
</svg>