<svg width="24" height="24" viewBox="0 0 24 24" fill="none" xmlns="http://www.w3.org/2000/svg">
<path d="M19.1439 16.161C18.8686 17.0893 18.4455 17.9672 17.8909 18.761C17.1749 19.835 16.3689 20.91 15.2049 20.999C14.0409 20.999 13.6829 20.283 12.3399 20.283C10.9969 20.283 10.5489 21 9.47494 21C8.31094 21.09 7.41594 19.836 6.69994 18.762C5.17794 16.519 4.01594 12.49 5.62494 9.715C5.98955 9.055 6.51985 8.5014 7.16358 8.10878C7.80731 7.71616 8.54225 7.49807 9.29594 7.476C10.4599 7.476 11.5339 8.282 12.1609 8.282C12.8769 8.282 14.1309 7.297 15.5609 7.476C16.1992 7.50985 16.8214 7.68873 17.3803 7.99907C17.9391 8.30941 18.4198 8.74303 18.7859 9.267C18.2223 9.64082 17.7571 10.145 17.4298 10.7369C17.1026 11.3288 16.9229 11.9909 16.9059 12.667C16.9005 13.4033 17.1092 14.1253 17.5065 14.7453C17.9038 15.3652 18.4727 15.8563 19.1439 16.159V16.161ZM14.5779 5.859C15.2285 5.05421 15.5484 4.03207 15.4729 3C14.4645 3.09219 13.5318 3.57398 12.8729 4.343C12.5379 4.71734 12.2848 5.15755 12.1298 5.63542C11.9748 6.11329 11.9214 6.61828 11.9729 7.118C12.4728 7.11909 12.9664 7.00692 13.4167 6.78991C13.8671 6.57289 14.2624 6.25668 14.5729 5.865" fill="#CCCCCC"/>
</svg>
