<svg width="24" height="24" viewBox="0 0 24 24" fill="none" xmlns="http://www.w3.org/2000/svg">
<path d="M15.294 16.161C15.0186 17.0893 14.5955 17.9672 14.041 18.761C13.325 19.835 12.519 20.91 11.355 20.999C10.191 20.999 9.83296 20.283 8.48996 20.283C7.14696 20.283 6.69896 21 5.62496 21C4.46096 21.09 3.56596 19.836 2.84996 18.762C1.32796 16.519 0.165964 12.49 1.77496 9.715C2.13957 9.055 2.66988 8.5014 3.31361 8.10878C3.95734 7.71616 4.69227 7.49807 5.44596 7.476C6.60996 7.476 7.68396 8.282 8.31096 8.282C9.02696 8.282 10.281 7.297 11.711 7.476C12.3493 7.50985 12.9715 7.68873 13.5303 7.99907C14.0891 8.30941 14.5698 8.74303 14.936 9.267C14.3723 9.64082 13.9071 10.145 13.5799 10.7369C13.2526 11.3288 13.0729 11.9909 13.056 12.667C13.0506 13.4033 13.2592 14.1253 13.6565 14.7453C14.0538 15.3652 14.6227 15.8563 15.294 16.159V16.161ZM10.728 5.859C11.3785 5.05421 11.6985 4.03207 11.623 3C10.6145 3.09219 9.68179 3.57398 9.02296 4.343C8.68792 4.71734 8.4348 5.15755 8.27981 5.63542C8.12483 6.11329 8.0714 6.61828 8.12296 7.118C8.62284 7.11909 9.11646 7.00692 9.56677 6.78991C10.0171 6.57289 10.4124 6.25668 10.723 5.865" fill="#CCCCCC"/>
<path d="M20.75 8.75C20.75 8.33578 20.4142 8 20 8C19.5858 8 19.25 8.33578 19.25 8.75V12H17.2732C17.0485 12 16.9202 12.2454 17.055 12.4174L19.7819 15.8957C19.8909 16.0348 20.1091 16.0348 20.2182 15.8957L22.945 12.4174C23.0798 12.2454 22.9515 12 22.7268 12H20.75V8.75Z" fill="#CCCCCC"/>
</svg>
