<?xml version="1.0" standalone="no"?>
<svg xmlns="http://www.w3.org/2000/svg" version="1.1" width="32" height="32" viewBox="0 0 32 32"><path d="M19.521 31.998c-1.14-0.020-2.060-0.939-2.080-2.078l-0-0.002v-16.639c0.020-1.14 0.939-2.060 2.078-2.080l0.002-0h10.399c1.139 0.023 2.057 0.941 2.080 2.078l0 0.002v16.639c-0.023 1.139-0.941 2.057-2.078 2.080l-0.002 0zM23.68 29.919h2.080v-2.080h-2.080zM19.521 25.759h10.399v-12.479h-10.399zM5.761 28.639c-0.568-0.236-0.96-0.786-0.96-1.427 0-0.005 0-0.009 0-0.014v0.001-4.8h-3.2c-0.026 0.002-0.057 0.003-0.087 0.003-0.837 0-1.515-0.678-1.515-1.515 0-0.031 0.001-0.061 0.003-0.091l-0 0.004v-19.199c-0.002-0.027-0.003-0.058-0.003-0.089 0-0.836 0.678-1.514 1.514-1.514 0.031 0 0.062 0.001 0.093 0.003l-0.004-0h25.599c0.027-0.002 0.059-0.003 0.091-0.003 0.835 0 1.512 0.677 1.512 1.512 0 0.032-0.001 0.064-0.003 0.095l0-0.004v7.2h-9.28c-2.452 0.053-4.426 2.027-4.48 4.475l-0 0.005v9.12l-7.68 6.080c-0.275 0.17-0.601 0.284-0.95 0.319l-0.010 0.001c-0.030 0.003-0.066 0.005-0.101 0.005-0.201 0-0.388-0.062-0.542-0.167l0.003 0.002zM4.801 12.799c-0.002 0.027-0.003 0.058-0.003 0.089 0 0.836 0.678 1.514 1.514 1.514 0.031 0 0.062-0.001 0.093-0.003l-0.004 0h4.8c0.884 0 1.6-0.716 1.6-1.6s-0.716-1.6-1.6-1.6v0h-4.8c-0.026-0.002-0.057-0.003-0.087-0.003-0.837 0-1.515 0.678-1.515 1.515 0 0.031 0.001 0.061 0.003 0.091l-0-0.004zM4.801 6.4c-0.002 0.026-0.003 0.057-0.003 0.087 0 0.837 0.678 1.515 1.515 1.515 0.031 0 0.061-0.001 0.091-0.003l-0.004 0h9.6c0.026 0.002 0.057 0.003 0.087 0.003 0.837 0 1.515-0.678 1.515-1.515 0-0.031-0.001-0.061-0.003-0.091l0 0.004c0.002-0.027 0.003-0.058 0.003-0.089 0-0.836-0.678-1.514-1.514-1.514-0.031 0-0.062 0.001-0.093 0.003l0.004-0h-9.6c-0.027-0.002-0.058-0.003-0.089-0.003-0.836 0-1.514 0.678-1.514 1.514 0 0.031 0.001 0.062 0.003 0.093l-0-0.004z"/></svg>