<svg width="24" height="24" viewBox="0 0 24 24" fill="none" xmlns="http://www.w3.org/2000/svg">
<path d="M15.8013 6.52582V5.68372C15.8013 5.67876 15.8013 5.67332 15.8013 5.66787C15.8013 4.7525 15.0641 4.00941 14.1512 4H14.1503H7.65104C6.73715 4.0099 6 4.75299 6 5.66787C6 5.67332 6 5.67926 6 5.68471V5.68372V18.3163C6 18.3212 6 18.3267 6 18.3321C6 19.2475 6.73715 19.9906 7.65005 20H7.65104H14.1503C15.0641 19.9901 15.8013 19.247 15.8013 18.3321C15.8013 18.3267 15.8013 18.3207 15.8013 18.3153V18.3163V14.9474H14.1507V16.2108C14.1507 16.2123 14.1507 16.2137 14.1507 16.2157C14.1507 16.4444 13.9666 16.6301 13.7384 16.6326H8.06442C7.8362 16.6301 7.65154 16.4444 7.65154 16.2157C7.65154 16.2142 7.65154 16.2123 7.65154 16.2108V6.10502C7.65154 6.10353 7.65154 6.10205 7.65154 6.10006C7.65154 5.87135 7.8357 5.6857 8.06393 5.68322H13.7379C13.9661 5.6857 14.1507 5.87135 14.1507 6.10006C14.1507 6.10155 14.1507 6.10353 14.1507 6.10502V6.52632L15.8013 6.52582ZM10.0759 17.4747H11.7264C12.1913 17.4747 12.5685 17.8514 12.5685 18.3168C12.5685 18.7821 12.1918 19.1589 11.7264 19.1589H10.0759C9.611 19.1589 9.23376 18.7821 9.23376 18.3168C9.23376 17.8514 9.61051 17.4747 10.0759 17.4747ZM17.5563 9.89573V11.5799C17.5563 11.5849 17.5563 11.5903 17.5563 11.5958C17.5563 12.5112 16.8191 13.2542 15.9062 13.2637H15.9053H12.6037L10.9531 14.9479V13.2637C10.0392 13.2538 9.30208 12.5107 9.30208 11.5958C9.30208 11.5903 9.30208 11.5844 9.30208 11.5789V11.5799V9.89523C9.30208 9.89028 9.30208 9.88484 9.30208 9.87939C9.30208 8.96402 10.0392 8.22092 10.9521 8.21152H10.9531H15.9053C16.8191 8.22142 17.5563 8.96451 17.5563 9.87939C17.5563 9.88484 17.5563 9.89078 17.5563 9.89622V9.89523V9.89573Z" fill="#55A734"/>
</svg>
