<svg width="24" height="24" viewBox="0 0 24 24" fill="none" xmlns="http://www.w3.org/2000/svg">
<path d="M11.8013 6.52582V5.68372C11.8013 5.67876 11.8013 5.67332 11.8013 5.66787C11.8013 4.7525 11.0641 4.00941 10.1512 4H10.1503H3.65104C2.73715 4.0099 2 4.75299 2 5.66787C2 5.67332 2 5.67926 2 5.68471V5.68372V18.3163C2 18.3212 2 18.3267 2 18.3321C2 19.2475 2.73715 19.9906 3.65005 20H3.65104H10.1503C11.0641 19.9901 11.8013 19.247 11.8013 18.3321C11.8013 18.3267 11.8013 18.3207 11.8013 18.3153V18.3163V14.9474H10.1507V16.2108C10.1507 16.2123 10.1507 16.2137 10.1507 16.2157C10.1507 16.4444 9.96658 16.6301 9.73836 16.6326H4.06442C3.8362 16.6301 3.65154 16.4444 3.65154 16.2157C3.65154 16.2142 3.65154 16.2123 3.65154 16.2108V6.10502C3.65154 6.10353 3.65154 6.10205 3.65154 6.10006C3.65154 5.87135 3.8357 5.6857 4.06393 5.68322H9.73786C9.96609 5.6857 10.1507 5.87135 10.1507 6.10006C10.1507 6.10155 10.1507 6.10353 10.1507 6.10502V6.52632L11.8013 6.52582ZM6.07587 17.4747H7.72641C8.19128 17.4747 8.56852 17.8514 8.56852 18.3168C8.56852 18.7821 8.19178 19.1589 7.72641 19.1589H6.07587C5.611 19.1589 5.23376 18.7821 5.23376 18.3168C5.23376 17.8514 5.61051 17.4747 6.07587 17.4747ZM13.5563 9.89573V11.5799C13.5563 11.5849 13.5563 11.5903 13.5563 11.5958C13.5563 12.5112 12.8191 13.2542 11.9062 13.2637H11.9053H8.60367L6.95312 14.9479V13.2637C6.03923 13.2538 5.30208 12.5107 5.30208 11.5958C5.30208 11.5903 5.30208 11.5844 5.30208 11.5789V11.5799V9.89523C5.30208 9.89028 5.30208 9.88484 5.30208 9.87939C5.30208 8.96402 6.03923 8.22092 6.95213 8.21152H6.95312H11.9053C12.8191 8.22142 13.5563 8.96451 13.5563 9.87939C13.5563 9.88484 13.5563 9.89078 13.5563 9.89622V9.89523V9.89573Z" fill="#55A734"/>
<path d="M18.25 14.25C18.25 14.6642 18.5858 15 19 15C19.4142 15 19.75 14.6642 19.75 14.25V11H21.7268C21.9515 11 22.0798 10.7546 21.945 10.5826L19.2181 7.10435C19.1091 6.96522 18.8909 6.96522 18.7819 7.10435L16.055 10.5826C15.9202 10.7546 16.0485 11 16.2732 11H18.25V14.25Z" fill="#55A734"/>
</svg>
