<?xml version="1.0" encoding="utf-8"?>
<svg version="1.1" width="43" height="32" viewBox="0 0 43 32" xmlns="http://www.w3.org/2000/svg">
  <path fill="#ff4ca2" d="M 25.964 15.906 L 29.023 21.191 C 29.209 21.512 29.307 21.877 29.307 22.249 C 29.307 22.619 29.209 22.983 29.023 23.304 L 25.76 28.943 C 25.574 29.265 25.307 29.531 24.984 29.718 C 24.661 29.904 24.295 30 23.922 30 L 17.393 30 C 17.021 30 16.655 29.903 16.332 29.718 C 16.01 29.532 15.743 29.265 15.556 28.943 L 12.502 23.659 L 6.384 23.659 C 6.012 23.659 5.646 23.561 5.323 23.376 C 5.001 23.19 4.732 22.924 4.546 22.602 L 1.283 16.963 C 1.097 16.643 0.999 16.278 0.999 15.906 C 0.999 15.535 1.097 15.172 1.283 14.851 L 4.544 9.214 C 4.73 8.891 4.999 8.625 5.322 8.438 C 5.645 8.253 6.01 8.156 6.383 8.156 L 12.501 8.156 L 15.555 2.874 C 15.741 2.552 16.009 2.285 16.331 2.1 C 16.655 1.913 17.02 1.817 17.392 1.817 L 23.92 1.817 C 24.292 1.817 24.658 1.914 24.98 2.1 C 25.303 2.284 25.57 2.552 25.756 2.874 L 29.021 8.51 C 29.207 8.831 29.305 9.196 29.305 9.566 C 29.305 9.938 29.207 10.302 29.021 10.623 L 25.964 15.907 L 25.964 15.906 Z M 14.956 9.566 L 17.811 14.498 L 23.522 14.498 L 26.377 9.566 L 23.517 4.64 L 17.805 4.64 L 14.956 9.566 Z M 12.503 20.837 L 15.358 15.906 L 12.503 10.976 L 6.795 10.976 L 3.936 15.906 L 6.795 20.837 L 12.503 20.837 Z M 23.511 17.317 L 17.806 17.317 L 14.951 22.247 L 17.806 27.177 L 23.518 27.177 L 26.373 22.247 L 23.512 17.317 L 23.511 17.317 Z" style=""/>
  <path fill="#ff4ca2" d="M 35.41 20.024 C 35.41 20.673 35.939 21.198 36.59 21.198 C 37.241 21.198 37.769 20.673 37.769 20.024 L 37.769 14.934 L 40.88 14.934 C 41.231 14.934 41.434 14.551 41.222 14.282 L 36.933 8.836 C 36.761 8.619 36.419 8.619 36.248 8.836 L 31.96 14.282 C 31.747 14.552 31.949 14.934 32.302 14.934 L 35.411 14.934 L 35.411 20.024 L 35.41 20.024 Z" style=""/>
</svg>