<?xml version="1.0" encoding="utf-8"?>
<svg version="1.1" width="43" height="32" viewBox="0 0 43 32" xmlns="http://www.w3.org/2000/svg">
  <path fill="#ff4ca2" d="M 25.475 16.121 L 28.474 21.325 C 28.657 21.642 28.753 22.001 28.753 22.366 C 28.753 22.731 28.657 23.09 28.474 23.407 L 25.275 28.96 C 25.093 29.276 24.83 29.538 24.513 29.722 C 24.197 29.904 23.839 30 23.474 30 L 17.072 30 C 16.706 30 16.349 29.904 16.032 29.722 C 15.715 29.539 15.453 29.276 15.271 28.96 L 12.277 23.756 L 6.279 23.756 C 5.914 23.756 5.555 23.659 5.238 23.476 C 4.922 23.295 4.659 23.031 4.477 22.714 L 1.277 17.162 C 1.095 16.845 0.999 16.486 0.999 16.121 C 0.999 15.756 1.095 15.397 1.277 15.081 L 4.475 9.529 C 4.657 9.213 4.921 8.951 5.237 8.767 C 5.554 8.585 5.912 8.489 6.276 8.489 L 12.276 8.489 L 15.27 3.287 C 15.452 2.97 15.714 2.707 16.031 2.525 C 16.348 2.341 16.706 2.246 17.071 2.246 L 23.47 2.246 C 23.835 2.246 24.194 2.342 24.51 2.525 C 24.827 2.706 25.089 2.97 25.271 3.287 L 28.473 8.837 C 28.655 9.153 28.751 9.512 28.751 9.877 C 28.751 10.243 28.655 10.602 28.473 10.918 L 25.475 16.122 L 25.475 16.121 Z M 14.682 9.877 L 17.483 14.733 L 23.081 14.733 L 25.879 9.877 L 23.077 5.026 L 17.477 5.026 L 14.682 9.877 Z M 12.278 20.977 L 15.077 16.121 L 12.278 11.265 L 6.682 11.265 L 3.878 16.121 L 6.682 20.977 L 12.278 20.977 Z M 23.071 17.509 L 17.478 17.509 L 14.678 22.365 L 17.477 27.221 L 23.078 27.221 L 25.876 22.365 L 23.072 17.509 L 23.071 17.509 Z" style=""/>
  <path fill="#ff4ca2" d="M 37.916 10.154 C 37.916 9.514 37.398 8.998 36.76 8.998 C 36.122 8.998 35.604 9.515 35.604 10.154 L 35.604 15.166 L 32.555 15.166 C 32.21 15.166 32.011 15.544 32.218 15.808 L 36.423 21.171 C 36.592 21.385 36.927 21.385 37.096 21.171 L 41.301 15.808 C 41.508 15.543 41.311 15.166 40.964 15.166 L 37.915 15.166 L 37.915 10.154 L 37.916 10.154 Z" style=""/>
</svg>