<svg width="24" height="24" viewBox="0 0 24 24" fill="none" xmlns="http://www.w3.org/2000/svg">
<path fill-rule="evenodd" clip-rule="evenodd" d="M18.8741 11.999L20.8191 15.3739C20.9374 15.5791 20.9997 15.8119 20.9997 16.0488C20.9997 16.2858 20.9374 16.5186 20.8191 16.7238L18.7441 20.325C18.6257 20.5303 18.4555 20.7008 18.2504 20.8193C18.0454 20.9378 17.8128 21.0001 17.5761 21H13.4241C13.1874 21.0001 12.9548 20.9378 12.7497 20.8193C12.5447 20.7008 12.3744 20.5303 12.2561 20.325L10.3141 16.9501H6.42409C6.18736 16.9503 5.95478 16.8879 5.74975 16.7694C5.54471 16.651 5.37445 16.4805 5.25609 16.2752L3.18109 12.674C3.06277 12.4688 3.00049 12.236 3.00049 11.999C3.00049 11.762 3.06277 11.5292 3.18109 11.324L5.25509 7.72382C5.37345 7.51852 5.54371 7.34805 5.74875 7.22956C5.95378 7.11107 6.18636 7.04874 6.42309 7.04885H10.3141L12.2561 3.67498C12.3744 3.46967 12.5447 3.2992 12.7497 3.18071C12.9548 3.06222 13.1874 2.9999 13.4241 3H17.5741C17.8108 2.9999 18.0434 3.06222 18.2484 3.18071C18.4535 3.2992 18.6237 3.46967 18.7421 3.67498L20.8181 7.27417C20.9364 7.47939 20.9987 7.71218 20.9987 7.94915C20.9987 8.18611 20.9364 8.41891 20.8181 8.62412L18.8741 11.999ZM11.8741 7.94915L13.6901 11.0987H17.3211L19.1361 7.94915L17.3181 4.8026H13.6861L11.8741 7.94915ZM10.3141 15.1485L12.1301 11.999L10.3141 8.84945H6.68509L4.86709 11.999L6.68509 15.1485H10.3141ZM17.3141 12.8993H13.6871L11.8711 16.0478L13.6861 19.1974H17.3181L19.1331 16.0478L17.3141 12.8993Z" fill="#FF4CA2"/>
</svg>
