<svg width="24" height="24" viewBox="0 0 24 24" fill="none" xmlns="http://www.w3.org/2000/svg">
<path d="M16 12C16 7.58172 12.4183 4 8 4C3.58172 4 0 7.58172 0 12C0 15.993 2.9255 19.3027 6.75 19.9028V14.3125H4.71875V12H6.75V10.2375C6.75 8.2325 7.94434 7.125 9.77172 7.125C10.647 7.125 11.5625 7.28125 11.5625 7.28125V9.25H10.5537C9.55994 9.25 9.25 9.86666 9.25 10.4993V12H11.4688L11.1141 14.3125H9.25V19.9028C13.0745 19.3027 16 15.993 16 12Z" fill="#1877F2"/>
<path d="M11.1141 14.3125L11.4688 12H9.25V10.4993C9.25 9.86666 9.55991 9.25 10.5537 9.25H11.5625V7.28125C11.5625 7.28125 10.647 7.125 9.77172 7.125C7.94434 7.125 6.75 8.2325 6.75 10.2375V12H4.71875V14.3125H6.75V19.9028C7.15728 19.9667 7.57475 20 8 20C8.42525 20 8.84269 19.9667 9.25 19.9028V14.3125H11.1141Z" fill="white"/>
<path d="M21.75 7.75C21.75 7.33578 21.4142 7 21 7C20.5858 7 20.25 7.33578 20.25 7.75V11H18.2732C18.0485 11 17.9202 11.2454 18.055 11.4174L20.7819 14.8957C20.8909 15.0348 21.1091 15.0348 21.2181 14.8957L23.945 11.4174C24.0798 11.2454 23.9515 11 23.7268 11H21.75V7.75Z" fill="#1877F2"/>
</svg>
