<svg width="24" height="24" viewBox="0 0 24 24" fill="none" xmlns="http://www.w3.org/2000/svg">
<path fill-rule="evenodd" clip-rule="evenodd" d="M12 4.00505C10.9595 3.96742 9.92222 4.14054 8.95041 4.51399C7.97861 4.88743 7.09239 5.4535 6.34507 6.17814C5.59775 6.90278 5.00476 7.77102 4.60175 8.73065C4.19875 9.69028 3.99406 10.7215 4 11.7622C3.98626 12.8423 4.20333 13.9129 4.6367 14.9024C5.07007 15.8919 5.70976 16.7776 6.513 17.5001C6.57781 17.5577 6.63033 17.6277 6.66744 17.7061C6.70456 17.7844 6.72549 17.8694 6.729 17.956L6.772 19.3784C6.77515 19.4834 6.80408 19.586 6.85622 19.6772C6.90837 19.7684 6.98214 19.8454 7.07104 19.9014C7.15994 19.9574 7.26125 19.9907 7.36604 19.9983C7.47084 20.0059 7.57591 19.9877 7.672 19.9452L9.259 19.2455C9.3934 19.186 9.54423 19.1747 9.686 19.2135C10.44 19.4192 11.2184 19.5225 12 19.5204C13.0387 19.5516 14.0732 19.374 15.042 18.9982C16.0108 18.6223 16.8943 18.0559 17.64 17.3325C18.3858 16.609 18.9787 15.7433 19.3836 14.7865C19.7885 13.8298 19.9971 12.8015 19.9971 11.7627C19.9971 10.7239 19.7885 9.69564 19.3836 8.7389C18.9787 7.78217 18.3858 6.91642 17.64 6.19297C16.8943 5.46952 16.0108 4.90309 15.042 4.52727C14.0732 4.15144 13.0387 3.97386 12 4.00505ZM16.8 9.97287L14.453 13.7015C14.3646 13.8417 14.2481 13.962 14.1109 14.0549C13.9736 14.1478 13.8186 14.2113 13.6556 14.2414C13.4926 14.2714 13.3251 14.2674 13.1638 14.2295C13.0024 14.1917 12.8506 14.1208 12.718 14.0214L10.849 12.6219C10.7657 12.5591 10.6643 12.5252 10.56 12.5252C10.4557 12.5252 10.3543 12.5591 10.271 12.6219L7.747 14.5372C7.67611 14.5907 7.58869 14.6177 7.49996 14.6135C7.41123 14.6093 7.32678 14.5741 7.26129 14.5141C7.1958 14.4541 7.15341 14.373 7.14148 14.285C7.12955 14.197 7.14884 14.1076 7.196 14.0324L9.546 10.3057C9.63441 10.1656 9.75091 10.0453 9.88815 9.95235C10.0254 9.85943 10.1804 9.79595 10.3434 9.76589C10.5064 9.73584 10.6739 9.73987 10.8352 9.77773C10.9966 9.81559 11.1484 9.88646 11.281 9.98587L13.15 11.3854C13.2333 11.4481 13.3347 11.4821 13.439 11.4821C13.5433 11.4821 13.6447 11.4481 13.728 11.3854L16.252 9.47005C16.3229 9.41926 16.4092 9.39441 16.4963 9.39968C16.5834 9.40495 16.666 9.44002 16.7303 9.499C16.7946 9.55798 16.8366 9.63727 16.8493 9.72357C16.862 9.80986 16.8446 9.89789 16.8 9.97287Z" fill="#3B5998"/>
</svg>
