<svg width="24" height="24" viewBox="0 0 24 24" fill="none" xmlns="http://www.w3.org/2000/svg">
<path fill-rule="evenodd" clip-rule="evenodd" d="M8.00061 4.00505C6.96015 3.96742 5.92283 4.14054 4.95102 4.51399C3.97922 4.88743 3.093 5.4535 2.34568 6.17814C1.59836 6.90278 1.00537 7.77102 0.602364 8.73065C0.199361 9.69028 -0.00532544 10.7215 0.000614095 11.7622C-0.0131289 12.8423 0.203941 13.9129 0.637313 14.9024C1.07068 15.8919 1.71037 16.7776 2.51361 17.5001C2.57842 17.5577 2.63094 17.6277 2.66805 17.7061C2.70517 17.7844 2.7261 17.8694 2.72961 17.956L2.77261 19.3784C2.77576 19.4834 2.80469 19.586 2.85683 19.6772C2.90898 19.7684 2.98275 19.8454 3.07165 19.9014C3.16055 19.9574 3.26186 19.9907 3.36666 19.9983C3.47145 20.0059 3.57652 19.9877 3.67262 19.9452L5.25961 19.2455C5.39401 19.186 5.54485 19.1747 5.68661 19.2135C6.44066 19.4192 7.21899 19.5225 8.00061 19.5204C9.03935 19.5516 10.0738 19.374 11.0426 18.9982C12.0114 18.6223 12.8949 18.0559 13.6406 17.3325C14.3864 16.609 14.9793 15.7433 15.3842 14.7865C15.7891 13.8298 15.9977 12.8015 15.9977 11.7627C15.9977 10.7239 15.7891 9.69564 15.3842 8.7389C14.9793 7.78217 14.3864 6.91642 13.6406 6.19297C12.8949 5.46952 12.0114 4.90309 11.0426 4.52727C10.0738 4.15144 9.03935 3.97386 8.00061 4.00505ZM12.8006 9.97287L10.4536 13.7015C10.3652 13.8417 10.2487 13.962 10.1115 14.0549C9.97423 14.1478 9.81922 14.2113 9.65621 14.2414C9.4932 14.2714 9.32574 14.2674 9.16437 14.2295C9.003 14.1917 8.85122 14.1208 8.71861 14.0214L6.84962 12.6219C6.76635 12.5591 6.6649 12.5252 6.56061 12.5252C6.45633 12.5252 6.35488 12.5591 6.27161 12.6219L3.74761 14.5372C3.67672 14.5907 3.5893 14.6177 3.50057 14.6135C3.41184 14.6093 3.32739 14.5741 3.2619 14.5141C3.19641 14.4541 3.15402 14.373 3.14209 14.285C3.13016 14.197 3.14945 14.1076 3.19661 14.0324L5.54661 10.3057C5.63502 10.1656 5.75152 10.0453 5.88876 9.95235C6.026 9.85943 6.18101 9.79595 6.34402 9.76589C6.50702 9.73584 6.67449 9.73987 6.83586 9.77773C6.99723 9.81559 7.149 9.88646 7.28161 9.98587L9.15061 11.3854C9.23388 11.4481 9.33533 11.4821 9.43961 11.4821C9.5439 11.4821 9.64535 11.4481 9.72861 11.3854L12.2526 9.47005C12.3235 9.41926 12.4098 9.39441 12.4969 9.39968C12.584 9.40495 12.6666 9.44002 12.7309 9.499C12.7952 9.55798 12.8372 9.63727 12.8499 9.72357C12.8626 9.80986 12.8452 9.89789 12.8006 9.97287Z" fill="#3B5998"/>
<path d="M21.75 8.75C21.75 8.33578 21.4142 8 21 8C20.5858 8 20.25 8.33578 20.25 8.75V12H18.2732C18.0485 12 17.9202 12.2454 18.055 12.4174L20.7819 15.8957C20.8909 16.0348 21.1091 16.0348 21.2182 15.8957L23.945 12.4174C24.0798 12.2454 23.9515 12 23.7268 12H21.75V8.75Z" fill="#3B5998"/>
</svg>
