<svg width="24" height="24" viewBox="0 0 24 24" fill="none" xmlns="http://www.w3.org/2000/svg">
<path d="M16 13.0489C16 8.60361 12.4183 5 8 5C3.58172 5 0 8.60361 0 13.0489C0 17.0663 2.9255 20.3962 6.75 21V15.3755H4.71875V13.0489H6.75V11.2756C6.75 9.25837 7.94434 8.1441 9.77172 8.1441C10.647 8.1441 11.5625 8.3013 11.5625 8.3013V10.2821H10.5537C9.55994 10.2821 9.25 10.9025 9.25 11.539V13.0489H11.4688L11.1141 15.3755H9.25V21C13.0745 20.3962 16 17.0663 16 13.0489Z" fill="#1877F2"/>
<path d="M11.1141 15.3125L11.4688 13H9.25V11.4993C9.25 10.8667 9.55991 10.25 10.5537 10.25H11.5625V8.28125C11.5625 8.28125 10.647 8.125 9.77172 8.125C7.94434 8.125 6.75 9.2325 6.75 11.2375V13H4.71875V15.3125H6.75V20.9028C7.15728 20.9667 7.57475 21 8 21C8.42525 21 8.84269 20.9667 9.25 20.9028V15.3125H11.1141Z" fill="white"/>
<path d="M20.25 15.8864C20.25 16.3006 20.5858 16.6364 21 16.6364C21.4142 16.6364 21.75 16.3006 21.75 15.8864V12.6364H23.7268C23.9515 12.6364 24.0798 12.3909 23.945 12.219L21.2181 8.7407C21.1091 8.60157 20.8909 8.60157 20.7819 8.7407L18.055 12.219C17.9202 12.3909 18.0485 12.6364 18.2732 12.6364H20.25V15.8864Z" fill="#1877F2"/>
</svg>
