<svg width="24" height="24" viewBox="0 0 24 24" fill="none" xmlns="http://www.w3.org/2000/svg">
<path fill-rule="evenodd" clip-rule="evenodd" d="M4.31564 3.27342C4.1152 3.48884 4 3.82039 4 4.25123V19.5759C4 20.0068 4.1152 20.3383 4.32313 20.5463L4.37745 20.5922L12.9642 12.0054V11.8124L4.36996 3.22752L4.31564 3.27342Z" fill="#00D2FF"/>
<path fill-rule="evenodd" clip-rule="evenodd" d="M15.8209 14.8789L12.9567 12.0138V11.8134L15.8218 8.9483L15.8836 8.9867L19.2722 10.9124C20.2426 11.4593 20.2426 12.3603 19.2722 12.9148L15.8836 14.8405C15.8827 14.8405 15.8209 14.8789 15.8209 14.8789Z" fill="#FFA500"/>
<path fill-rule="evenodd" clip-rule="evenodd" d="M15.8836 14.8405L12.9568 11.9136L4.31565 20.5547C4.63128 20.8938 5.16234 20.9322 5.75615 20.6006L15.8836 14.8405Z" fill="#C31162"/>
<path fill-rule="evenodd" clip-rule="evenodd" d="M15.8827 8.98763L5.75615 3.23501C5.16328 2.89596 4.63128 2.94185 4.31565 3.2809L12.9568 11.9136L15.8827 8.98763Z" fill="#15CF74"/>
<path fill-rule="evenodd" clip-rule="evenodd" d="M15.8209 14.7787L5.76364 20.4929C5.20168 20.816 4.70059 20.7935 4.37747 20.5004L4.32314 20.5547L4.37747 20.6006C4.70059 20.8928 5.20168 20.9162 5.76364 20.5931L15.8902 14.8405L15.8209 14.7787Z" fill="black"/>
<path fill-rule="evenodd" clip-rule="evenodd" d="M19.2713 12.8146L15.8134 14.7787L15.8752 14.8405L19.2638 12.9148C19.749 12.6376 19.9878 12.2761 19.9878 11.9136C19.9569 12.2452 19.7106 12.5608 19.2713 12.8146Z" fill="black"/>
<path fill-rule="evenodd" clip-rule="evenodd" d="M5.75613 3.33524L19.2713 11.0135C19.7106 11.2598 19.9569 11.583 19.9953 11.9145C19.9953 11.553 19.7565 11.1905 19.2713 10.9133L5.75615 3.23501C4.78582 2.68054 4 3.14229 4 4.25123V4.35145C4 3.24251 4.78581 2.78826 5.75613 3.33524Z" fill="white"/>
</svg>
