<svg width="24" height="24" viewBox="0 0 24 24" fill="none" xmlns="http://www.w3.org/2000/svg">
<g clip-path="url(#clip0_25_543)">
<path d="M9.07153 15.8507C9.56567 16.468 10.067 17.2415 10.3305 17.7098C10.6513 18.3186 10.7831 18.7296 11.0223 19.463C11.1627 19.8669 11.2944 19.99 11.5737 19.99C11.8788 19.99 12.0177 19.7838 12.1252 19.463C12.3472 18.7712 12.5205 18.2455 12.7912 17.7428C13.3254 16.7803 14.0015 15.9238 14.6589 15.1016C14.8393 14.871 15.9923 13.5132 16.5108 12.4362C16.5108 12.4362 17.1439 11.2588 17.1439 9.61312C17.1439 8.07484 16.518 7.00492 16.518 7.00492L14.7076 7.49047L13.6047 10.3866L13.3326 10.7819L13.2753 10.8563L13.2008 10.9466L13.0776 11.0941L12.8972 11.2746L11.9175 12.0724L9.474 13.4875L9.07153 15.8507Z" fill="#34A853"/>
<path d="M6.54497 12.2385C7.1451 13.6049 8.2895 14.798 9.07153 15.8507L13.2108 10.9466C13.2108 10.9466 12.6265 11.7114 11.5737 11.7114C10.3964 11.7114 9.44249 10.7733 9.44249 9.58877C9.44249 8.7738 9.92803 8.2152 9.92803 8.2152L7.12075 8.96429L6.54497 12.2385Z" fill="#FBBC04"/>
<path d="M13.2595 4.26496C14.6331 4.70897 15.8104 5.63852 16.518 7.01352L13.2094 10.9552C13.2094 10.9552 13.6949 10.388 13.6949 9.58161C13.6949 8.37132 12.6752 7.45896 11.5723 7.45896C10.5267 7.45896 9.9266 8.21664 9.9266 8.21664V5.73019L13.2595 4.26496Z" fill="#4285F4"/>
<path d="M7.30122 6.00089C8.12335 5.0212 9.56423 4.01001 11.5551 4.01001C12.5176 4.01001 13.2495 4.26496 13.2495 4.26496L9.9266 8.2152H7.57335L7.30122 6.00089Z" fill="#1A73E8"/>
<path d="M6.54497 12.2385C6.54497 12.2385 6.00214 11.16 6.00214 9.60596C6.00214 8.13356 6.57792 6.8488 7.30981 6.00948L9.9352 8.22237L6.54497 12.2385Z" fill="#EA4335"/>
</g>
<defs>
<clipPath id="clip0_25_543">
<rect width="11.1461" height="16" fill="white" transform="translate(6 4)"/>
</clipPath>
</defs>
</svg>
