<svg width="24" height="24" viewBox="0 0 24 24" fill="none" xmlns="http://www.w3.org/2000/svg">
<path d="M15.4709 10.5078H14.8572V10.4762H8.00003V13.5238H12.3059C11.6777 15.2979 9.98974 16.5714 8.00003 16.5714C5.47546 16.5714 3.4286 14.5246 3.4286 12C3.4286 9.47543 5.47546 7.42857 8.00003 7.42857C9.16536 7.42857 10.2256 7.86819 11.0328 8.58628L13.1878 6.43124C11.8271 5.16305 10.0069 4.38095 8.00003 4.38095C3.79241 4.38095 0.380981 7.79238 0.380981 12C0.380981 16.2076 3.79241 19.619 8.00003 19.619C12.2076 19.619 15.6191 16.2076 15.6191 12C15.6191 11.4891 15.5665 10.9905 15.4709 10.5078Z" fill="#FFC107"/>
<path d="M1.25946 8.45371L3.7627 10.2895C4.44003 8.61257 6.08041 7.42857 8.00003 7.42857C9.16536 7.42857 10.2256 7.86819 11.0328 8.58628L13.1878 6.43124C11.8271 5.16305 10.0069 4.38095 8.00003 4.38095C5.07355 4.38095 2.53565 6.03314 1.25946 8.45371Z" fill="#FF3D00"/>
<path d="M8.00003 19.619C9.96803 19.619 11.7562 18.8659 13.1082 17.6411L10.7501 15.6457C9.98517 16.2251 9.03431 16.5714 8.00003 16.5714C6.01831 16.5714 4.33565 15.3078 3.70174 13.5444L1.21717 15.4587C2.47812 17.9261 5.03889 19.619 8.00003 19.619Z" fill="#4CAF50"/>
<path d="M15.4709 10.5078H14.8572V10.4762H8.00003V13.5238H12.3059C12.0042 14.376 11.456 15.1109 10.749 15.6461C10.7494 15.6457 10.7497 15.6461 10.7501 15.6457L13.1082 17.6411C12.9414 17.7928 15.6191 15.8095 15.6191 12C15.6191 11.4891 15.5665 10.9905 15.4709 10.5078Z" fill="#1976D2"/>
<path d="M20.25 15.25C20.25 15.6642 20.5858 16 21 16C21.4142 16 21.75 15.6642 21.75 15.25V12H23.7268C23.9515 12 24.0798 11.7546 23.945 11.5826L21.2181 8.10435C21.1091 7.96522 20.8909 7.96522 20.7819 8.10435L18.055 11.5826C17.9202 11.7546 18.0485 12 18.2732 12H20.25V15.25Z" fill="#1A73E8"/>
</svg>
