<svg width="24" height="24" viewBox="0 0 24 24" fill="none" xmlns="http://www.w3.org/2000/svg">
<path d="M19.4709 10.1269H18.8572V10.0952H12V13.1429H16.3059C15.6777 14.917 13.9897 16.1905 12 16.1905C9.47546 16.1905 7.4286 14.1436 7.4286 11.619C7.4286 9.09448 9.47546 7.04762 12 7.04762C13.1654 7.04762 14.2256 7.48724 15.0328 8.20533L17.1878 6.05029C15.8271 4.7821 14.0069 4 12 4C7.79241 4 4.38098 7.41143 4.38098 11.619C4.38098 15.8267 7.79241 19.2381 12 19.2381C16.2076 19.2381 19.6191 15.8267 19.6191 11.619C19.6191 11.1082 19.5665 10.6095 19.4709 10.1269Z" fill="#FFC107"/>
<path d="M5.25946 8.07276L7.7627 9.90857C8.44003 8.23162 10.0804 7.04762 12 7.04762C13.1654 7.04762 14.2256 7.48724 15.0328 8.20533L17.1878 6.05029C15.8271 4.7821 14.0069 4 12 4C9.07355 4 6.53565 5.65219 5.25946 8.07276Z" fill="#FF3D00"/>
<path d="M12 19.2381C13.968 19.2381 15.7562 18.485 17.1082 17.2602L14.7501 15.2648C13.9852 15.8442 13.0343 16.1905 12 16.1905C10.0183 16.1905 8.33565 14.9269 7.70174 13.1634L5.21717 15.0777C6.47812 17.5451 9.03889 19.2381 12 19.2381Z" fill="#4CAF50"/>
<path d="M19.4709 10.1269H18.8572V10.0952H12V13.1429H16.3059C16.0042 13.995 15.456 14.7299 14.749 15.2651C14.7494 15.2648 14.7497 15.2651 14.7501 15.2648L17.1082 17.2602C16.9414 17.4118 19.6191 15.4286 19.6191 11.619C19.6191 11.1082 19.5665 10.6095 19.4709 10.1269Z" fill="#1976D2"/>
</svg>
