<svg width="24" height="24" viewBox="0 0 24 24" fill="none" xmlns="http://www.w3.org/2000/svg">
<path d="M5.03128 15.8507C5.51894 16.468 6.01367 17.2415 6.27376 17.7098C6.59038 18.3186 6.72043 18.7296 6.95649 19.463C7.09501 19.8669 7.22505 19.99 7.50069 19.99C7.80177 19.99 7.93888 19.7838 8.04489 19.463C8.26399 18.7712 8.43502 18.2455 8.70218 17.7428C9.22942 16.7803 9.8966 15.9238 10.5454 15.1016C10.7235 14.871 11.8614 13.5132 12.3731 12.4362C12.3731 12.4362 12.9979 11.2588 12.9979 9.61312C12.9979 8.07484 12.3801 7.00492 12.3801 7.00492L10.5935 7.49047L9.50506 10.3866L9.23649 10.7819L9.17995 10.8563L9.10644 10.9466L8.98488 11.0941L8.80678 11.2746L7.83993 12.0724L5.42847 13.4875L5.03128 15.8507Z" fill="#34A853"/>
<path d="M2.53783 12.2385C3.13009 13.6049 4.25949 14.798 5.03128 15.8507L9.11634 10.9466C9.11634 10.9466 8.53962 11.7114 7.50069 11.7114C6.33878 11.7114 5.39738 10.7733 5.39738 9.58877C5.39738 8.7738 5.87656 8.2152 5.87656 8.2152L3.10606 8.96429L2.53783 12.2385Z" fill="#FBBC04"/>
<path d="M9.1644 4.26496C10.52 4.70897 11.6819 5.63852 12.3801 7.01352L9.11493 10.9552C9.11493 10.9552 9.59411 10.388 9.59411 9.58161C9.59411 8.37132 8.58768 7.45896 7.49928 7.45896C6.46741 7.45896 5.87514 8.21664 5.87514 8.21664V5.73019L9.1644 4.26496Z" fill="#4285F4"/>
<path d="M3.28417 6.00089C4.09553 5.0212 5.51752 4.01001 7.48231 4.01001C8.4322 4.01001 9.1545 4.26496 9.1545 4.26496L5.87514 8.2152H3.55274L3.28417 6.00089Z" fill="#1A73E8"/>
<path d="M2.53783 12.2385C2.53783 12.2385 2.00214 11.16 2.00214 9.60596C2.00214 8.13356 2.57037 6.8488 3.29268 6.00948L5.88365 8.22237L2.53783 12.2385Z" fill="#EA4335"/>
<path d="M19.75 7.75C19.75 7.33578 19.4142 7 19 7C18.5858 7 18.25 7.33578 18.25 7.75V11H16.2732C16.0485 11 15.9202 11.2454 16.055 11.4174L18.7819 14.8957C18.8909 15.0348 19.1091 15.0348 19.2181 14.8957L21.945 11.4174C22.0798 11.2454 21.9515 11 21.7268 11H19.75V7.75Z" fill="#34A853"/>
</svg>
