<svg width="24" height="24" viewBox="0 0 24 24" fill="none" xmlns="http://www.w3.org/2000/svg">
<path fill-rule="evenodd" clip-rule="evenodd" d="M0.372459 3.27342C0.172026 3.48884 0.0568237 3.82039 0.0568237 4.25123V19.5759C0.0568237 20.0068 0.172026 20.3383 0.379952 20.5463L0.434275 20.5922L9.02106 12.0054V11.8124L0.426782 3.22752L0.372459 3.27342Z" fill="#00D2FF"/>
<path fill-rule="evenodd" clip-rule="evenodd" d="M11.8777 14.8789L9.01355 12.0138V11.8134L11.8786 8.9483L11.9404 8.9867L15.3291 10.9124C16.2994 11.4593 16.2994 12.3603 15.3291 12.9148L11.9404 14.8405C11.9395 14.8405 11.8777 14.8789 11.8777 14.8789Z" fill="#FFA500"/>
<path fill-rule="evenodd" clip-rule="evenodd" d="M11.9404 14.8405L9.01358 11.9136L0.372473 20.5547C0.688109 20.8938 1.21916 20.9322 1.81297 20.6006L11.9404 14.8405Z" fill="#C31162"/>
<path fill-rule="evenodd" clip-rule="evenodd" d="M11.9395 8.98763L1.81297 3.23501C1.2201 2.89596 0.688109 2.94185 0.372473 3.2809L9.01358 11.9136L11.9395 8.98763Z" fill="#15CF74"/>
<path fill-rule="evenodd" clip-rule="evenodd" d="M11.8777 14.7787L1.82046 20.4929C1.2585 20.816 0.757418 20.7935 0.434289 20.5004L0.379966 20.5547L0.434289 20.6006C0.757418 20.8928 1.2585 20.9162 1.82046 20.5931L11.947 14.8405L11.8777 14.7787Z" fill="black"/>
<path fill-rule="evenodd" clip-rule="evenodd" d="M15.3281 12.8146L11.8702 14.7787L11.932 14.8405L15.3206 12.9148C15.8058 12.6376 16.0446 12.2761 16.0446 11.9136C16.0137 12.2452 15.7674 12.5608 15.3281 12.8146Z" fill="black"/>
<path fill-rule="evenodd" clip-rule="evenodd" d="M1.81296 3.33524L15.3281 11.0135C15.7674 11.2598 16.0137 11.583 16.0521 11.9145C16.0521 11.553 15.8133 11.1905 15.3281 10.9133L1.81297 3.23501C0.842648 2.68054 0.0568237 3.14229 0.0568237 4.25123V4.35145C0.0568237 3.24251 0.842634 2.78826 1.81296 3.33524Z" fill="white"/>
<path d="M20.25 15.25C20.25 15.6642 20.5858 16 21 16C21.4142 16 21.75 15.6642 21.75 15.25V12H23.7268C23.9515 12 24.0798 11.7546 23.945 11.5826L21.2181 8.10435C21.1091 7.96522 20.8909 7.96522 20.7819 8.10435L18.055 11.5826C17.9202 11.7546 18.0485 12 18.2732 12H20.25V15.25Z" fill="#01D8FF"/>
</svg>
