<svg width="24" height="24" viewBox="0 0 24 24" fill="none" xmlns="http://www.w3.org/2000/svg">
<path d="M11.999 5.44301C14.135 5.44301 14.388 5.45101 15.232 5.49001C15.7398 5.49402 16.2432 5.58535 16.72 5.76001C17.0653 5.89292 17.3789 6.09678 17.6406 6.35842C17.9022 6.62007 18.1061 6.93368 18.239 7.27901C18.415 7.75461 18.508 8.25691 18.514 8.76401C18.552 9.60801 18.561 9.86401 18.561 11.997C18.561 14.13 18.553 14.386 18.514 15.23C18.508 15.7371 18.415 16.2394 18.239 16.715C18.1062 17.0609 17.9025 17.3751 17.6408 17.6374C17.3792 17.8997 17.0655 18.1043 16.72 18.238C16.2444 18.414 15.7421 18.5071 15.235 18.513C14.392 18.551 14.135 18.56 12.002 18.56C9.869 18.56 9.613 18.552 8.769 18.513C8.2619 18.5071 7.7596 18.414 7.284 18.238C6.93867 18.1051 6.62506 17.9012 6.36341 17.6396C6.10177 17.3779 5.89791 17.0643 5.765 16.719C5.58897 16.2434 5.49595 15.7411 5.49 15.234C5.452 14.39 5.443 14.134 5.443 12.001C5.443 9.86801 5.451 9.61201 5.49 8.76801C5.49595 8.26091 5.58897 7.75861 5.765 7.28301C5.89733 6.93704 6.10082 6.62271 6.36231 6.36035C6.62381 6.098 6.93747 5.89347 7.283 5.76001C7.7586 5.58398 8.2609 5.49096 8.768 5.48501C9.612 5.44701 9.868 5.43801 12.001 5.43801L11.999 5.44301ZM12.001 3.99701C9.828 3.99701 9.556 4.00601 8.701 4.04501C8.03723 4.05863 7.38058 4.18475 6.759 4.41801C6.22742 4.62379 5.74474 4.93844 5.34193 5.34176C4.93913 5.74508 4.6251 6.22817 4.42 6.76001C4.18712 7.38166 4.06133 8.0383 4.048 8.70201C4.009 9.55301 4 9.82701 4 12.002C4 14.177 4.009 14.447 4.048 15.302C4.06167 15.9644 4.18745 16.6197 4.42 17.24C4.6256 17.7715 4.93995 18.2542 5.3429 18.6571C5.74585 19.0601 6.22852 19.3744 6.76 19.58C7.3816 19.8131 8.03827 19.9388 8.702 19.952C9.553 19.991 9.828 20 12.002 20C14.176 20 14.447 19.991 15.302 19.952C15.9651 19.9388 16.6211 19.813 17.242 19.58C17.7736 19.3746 18.2564 19.0604 18.6594 18.6574C19.0623 18.2544 19.3766 17.7716 19.582 17.24C19.8151 16.6184 19.9408 15.9617 19.954 15.298C19.993 14.447 20.002 14.172 20.002 11.998C20.002 9.82401 19.993 9.55301 19.954 8.69801C19.9408 8.03493 19.815 7.37892 19.582 6.75801C19.3764 6.22653 19.0621 5.74386 18.6591 5.34091C18.2561 4.93796 17.7735 4.62361 17.242 4.41801C16.6203 4.18513 15.9637 4.05934 15.3 4.04601C14.449 4.00701 14.175 3.99801 12 3.99801L12.001 3.99701Z" fill="#BF1FA0"/>
<path d="M12 7.89301C11.1875 7.89301 10.3933 8.13394 9.71771 8.58533C9.04216 9.03672 8.51563 9.6783 8.20471 10.4289C7.89378 11.1796 7.81243 12.0056 7.97093 12.8024C8.12944 13.5993 8.5207 14.3313 9.09521 14.9058C9.66972 15.4803 10.4017 15.8716 11.1986 16.0301C11.9954 16.1886 12.8214 16.1072 13.5721 15.7963C14.3227 15.4854 14.9643 14.9589 15.4157 14.2833C15.8671 13.6077 16.108 12.8135 16.108 12.001C16.108 10.9115 15.6752 9.86662 14.9048 9.09622C14.1344 8.32582 13.0895 7.89301 12 7.89301ZM12 14.668C11.4725 14.668 10.9569 14.5116 10.5183 14.2185C10.0797 13.9255 9.73787 13.509 9.53601 13.0216C9.33415 12.5343 9.28134 11.998 9.38425 11.4807C9.48716 10.9634 9.74117 10.4881 10.1142 10.1152C10.4871 9.74217 10.9623 9.48816 11.4797 9.38526C11.997 9.28235 12.5333 9.33516 13.0206 9.53702C13.5079 9.73888 13.9245 10.0807 14.2175 10.5193C14.5106 10.9579 14.667 11.4735 14.667 12.001C14.667 12.7083 14.386 13.3867 13.8859 13.8869C13.3857 14.387 12.7073 14.668 12 14.668Z" fill="#BF1FA0"/>
<path d="M16.27 8.69001C16.8002 8.69001 17.23 8.2602 17.23 7.73001C17.23 7.19982 16.8002 6.77001 16.27 6.77001C15.7398 6.77001 15.31 7.19982 15.31 7.73001C15.31 8.2602 15.7398 8.69001 16.27 8.69001Z" fill="#BF1FA0"/>
</svg>
