<svg width="24" height="24" viewBox="0 0 24 24" fill="none" xmlns="http://www.w3.org/2000/svg">
<path d="M7.999 5.44301C10.135 5.44301 10.388 5.45101 11.232 5.49001C11.7398 5.49402 12.2432 5.58535 12.72 5.76001C13.0653 5.89292 13.3789 6.09678 13.6406 6.35842C13.9022 6.62007 14.1061 6.93368 14.239 7.27901C14.415 7.75461 14.508 8.25691 14.514 8.76401C14.552 9.60801 14.561 9.86401 14.561 11.997C14.561 14.13 14.553 14.386 14.514 15.23C14.508 15.7371 14.415 16.2394 14.239 16.715C14.1062 17.0609 13.9025 17.3751 13.6408 17.6374C13.3792 17.8997 13.0655 18.1043 12.72 18.238C12.2444 18.414 11.7421 18.5071 11.235 18.513C10.392 18.551 10.135 18.56 8.002 18.56C5.869 18.56 5.613 18.552 4.769 18.513C4.2619 18.5071 3.7596 18.414 3.284 18.238C2.93867 18.1051 2.62506 17.9012 2.36341 17.6396C2.10177 17.3779 1.89791 17.0643 1.765 16.719C1.58897 16.2434 1.49595 15.7411 1.49 15.234C1.452 14.39 1.443 14.134 1.443 12.001C1.443 9.86801 1.451 9.61201 1.49 8.76801C1.49595 8.26091 1.58897 7.75861 1.765 7.28301C1.89733 6.93704 2.10082 6.62271 2.36231 6.36035C2.62381 6.098 2.93747 5.89347 3.283 5.76001C3.7586 5.58398 4.2609 5.49096 4.768 5.48501C5.612 5.44701 5.868 5.43801 8.001 5.43801L7.999 5.44301ZM8.001 3.99701C5.828 3.99701 5.556 4.00601 4.701 4.04501C4.03723 4.05863 3.38058 4.18475 2.759 4.41801C2.22742 4.62379 1.74474 4.93844 1.34193 5.34176C0.939127 5.74508 0.625098 6.22817 0.42 6.76001C0.187118 7.38166 0.0613349 8.0383 0.0479999 8.70201C0.00899986 9.55301 0 9.82701 0 12.002C0 14.177 0.00899986 14.447 0.0479999 15.302C0.0616701 15.9644 0.18745 16.6197 0.42 17.24C0.625603 17.7715 0.939949 18.2542 1.3429 18.6571C1.74585 19.0601 2.22852 19.3744 2.76 19.58C3.3816 19.8131 4.03827 19.9388 4.702 19.952C5.553 19.991 5.828 20 8.002 20C10.176 20 10.447 19.991 11.302 19.952C11.9651 19.9388 12.6211 19.813 13.242 19.58C13.7736 19.3746 14.2564 19.0604 14.6594 18.6574C15.0623 18.2544 15.3766 17.7716 15.582 17.24C15.8151 16.6184 15.9408 15.9617 15.954 15.298C15.993 14.447 16.002 14.172 16.002 11.998C16.002 9.82401 15.993 9.55301 15.954 8.69801C15.9408 8.03493 15.815 7.37892 15.582 6.75801C15.3764 6.22653 15.0621 5.74386 14.6591 5.34091C14.2561 4.93796 13.7735 4.62361 13.242 4.41801C12.6203 4.18513 11.9637 4.05934 11.3 4.04601C10.449 4.00701 10.175 3.99801 8 3.99801L8.001 3.99701Z" fill="#BF1FA0"/>
<path d="M8 7.89301C7.18752 7.89301 6.39327 8.13394 5.71771 8.58533C5.04216 9.03672 4.51563 9.6783 4.20471 10.4289C3.89378 11.1796 3.81243 12.0056 3.97093 12.8024C4.12944 13.5993 4.5207 14.3313 5.09521 14.9058C5.66972 15.4803 6.40169 15.8716 7.19857 16.0301C7.99544 16.1886 8.82143 16.1072 9.57207 15.7963C10.3227 15.4854 10.9643 14.9589 11.4157 14.2833C11.8671 13.6077 12.108 12.8135 12.108 12.001C12.108 10.9115 11.6752 9.86662 10.9048 9.09622C10.1344 8.32582 9.08951 7.89301 8 7.89301ZM8 14.668C7.47252 14.668 6.95688 14.5116 6.5183 14.2185C6.07971 13.9255 5.73787 13.509 5.53601 13.0216C5.33415 12.5343 5.28134 11.998 5.38425 11.4807C5.48716 10.9634 5.74117 10.4881 6.11415 10.1152C6.48714 9.74217 6.96235 9.48816 7.47969 9.38526C7.99704 9.28235 8.53329 9.33516 9.02062 9.53702C9.50795 9.73888 9.92448 10.0807 10.2175 10.5193C10.5106 10.9579 10.667 11.4735 10.667 12.001C10.667 12.7083 10.386 13.3867 9.88585 13.8869C9.38569 14.387 8.70734 14.668 8 14.668Z" fill="#BF1FA0"/>
<path d="M12.27 8.69001C12.8002 8.69001 13.23 8.2602 13.23 7.73001C13.23 7.19982 12.8002 6.77001 12.27 6.77001C11.7398 6.77001 11.31 7.19982 11.31 7.73001C11.31 8.2602 11.7398 8.69001 12.27 8.69001Z" fill="#BF1FA0"/>
<path d="M21.75 15.25C21.75 15.6642 21.4142 16 21 16C20.5858 16 20.25 15.6642 20.25 15.25V12H18.2732C18.0485 12 17.9202 11.7546 18.055 11.5826L20.7819 8.10435C20.8909 7.96522 21.1091 7.96522 21.2182 8.10435L23.945 11.5826C24.0798 11.7546 23.9515 12 23.7268 12H21.75V15.25Z" fill="#BF1FA0"/>
</svg>
