<svg width="24" height="24" viewBox="0 0 24 24" fill="none" xmlns="http://www.w3.org/2000/svg">
<path d="M14.495 8.39789C13.8867 7.83489 12.9403 7.87408 12.3807 8.48191L8.99199 12.1641V5.49999C8.99199 4.671 8.32286 4 7.49605 4C6.66926 4 6 4.671 6 5.49999V18.4999C6 19.3279 6.66929 20 7.49605 20C8.3229 20 8.99199 19.3279 8.99199 18.4999V16.5861L9.98931 15.503L12.1903 19.2588C12.4685 19.735 12.9682 20 13.4807 20C13.7381 20 13.9994 19.9339 14.2368 19.793C14.9488 19.3738 15.1872 18.4539 14.7683 17.7398L12.1095 13.2L14.5787 10.518C15.1393 9.90891 15.1014 8.95887 14.495 8.39789Z" fill="#9CDB53"/>
<path d="M18.9649 14.5C18.9649 15.3283 18.2951 15.9999 17.469 15.9999C16.6428 15.9999 15.9728 15.3283 15.9728 14.5C15.9728 13.6717 16.6428 12.9999 17.469 12.9999C18.2951 12.9999 18.9649 13.6717 18.9649 14.5Z" fill="#9CDB53"/>
</svg>
