<svg width="24" height="24" viewBox="0 0 24 24" fill="none" xmlns="http://www.w3.org/2000/svg">
<path d="M8.59009 8.34015C7.98176 7.77715 7.03543 7.81634 6.47581 8.42418L3.08708 12.1064V5.44225C3.08708 4.61326 2.41796 3.94226 1.59114 3.94226C0.764352 3.94226 0.0950928 4.61326 0.0950928 5.44225V18.4421C0.0950928 19.2702 0.764386 19.9423 1.59114 19.9423C2.41799 19.9423 3.08708 19.2701 3.08708 18.4421V16.5283L4.0844 15.4453L6.28535 19.2011C6.56362 19.6772 7.06325 19.9423 7.57579 19.9423C7.83323 19.9423 8.09454 19.8761 8.33192 19.7352C9.04384 19.3161 9.28229 18.3962 8.86341 17.6821L6.20463 13.1423L8.67375 10.4603C9.23441 9.85117 9.19645 8.90113 8.59009 8.34015Z" fill="#9CDB53"/>
<path d="M13.06 14.4423C13.06 15.2706 12.3902 15.9421 11.5641 15.9421C10.7379 15.9421 10.0679 15.2706 10.0679 14.4423C10.0679 13.614 10.7379 12.9421 11.5641 12.9421C12.3902 12.9421 13.06 13.6139 13.06 14.4423Z" fill="#9CDB53"/>
<path d="M18.25 15.25C18.25 15.6642 18.5858 16 19 16C19.4142 16 19.75 15.6642 19.75 15.25V12H21.7268C21.9515 12 22.0798 11.7546 21.945 11.5826L19.2181 8.10435C19.1091 7.96522 18.8909 7.96522 18.7819 8.10435L16.055 11.5826C15.9202 11.7546 16.0485 12 16.2732 12H18.25V15.25Z" fill="#9CDB53"/>
</svg>
