<svg width="24" height="24" viewBox="0 0 24 24" fill="none" xmlns="http://www.w3.org/2000/svg">
<path fill-rule="evenodd" clip-rule="evenodd" d="M11.9999 3.99998C16.4114 3.99998 20 6.91231 20 10.4921C20 11.9248 19.445 13.215 18.2856 14.4863C16.6072 16.4182 12.8538 18.7713 11.9999 19.131C11.1701 19.4808 11.266 18.9342 11.3039 18.7176C11.305 18.7114 11.3061 18.7054 11.307 18.6998C11.3273 18.5796 11.4211 18.015 11.4211 18.015C11.4481 17.8108 11.476 17.4939 11.3954 17.2916C11.3057 17.0689 10.9511 16.9533 10.6905 16.8972C6.84607 16.3889 4 13.7013 4 10.4921C4 6.91231 7.58911 3.99998 11.9999 3.99998ZM9.02189 11.6863H7.49717V8.91793C7.49717 8.8319 7.42739 8.76212 7.34151 8.76212H6.7802C6.69417 8.76212 6.62439 8.8319 6.62439 8.91793V12.4032C6.62439 12.4451 6.64111 12.4833 6.66794 12.5112C6.66856 12.5119 6.66917 12.5127 6.67009 12.5135L6.67239 12.5156C6.70046 12.5426 6.73818 12.5592 6.78005 12.5592H9.02189C9.10792 12.5592 9.17739 12.4893 9.17739 12.4032V11.8421C9.17739 11.756 9.10792 11.6863 9.02189 11.6863ZM9.8134 8.7622H10.3745C10.4606 8.7622 10.5304 8.83198 10.5304 8.91771V12.4036C10.5304 12.4895 10.4606 12.5591 10.3745 12.5591H9.8134C9.72736 12.5591 9.65743 12.4895 9.65743 12.4036V8.91771C9.65743 8.83198 9.72736 8.7622 9.8134 8.7622ZM13.6758 8.7622H14.2369C14.3231 8.7622 14.3927 8.83198 14.3927 8.91771V12.4036C14.3927 12.4895 14.3231 12.5591 14.2369 12.5591H13.6758C13.662 12.5591 13.6486 12.5571 13.6359 12.5538C13.6351 12.5536 13.6344 12.5533 13.6336 12.5533C13.6301 12.5522 13.6267 12.5511 13.623 12.5498L13.6184 12.5481L13.6107 12.5449C13.6083 12.5438 13.6057 12.5426 13.6034 12.5412L13.6023 12.5406L13.5989 12.5389L13.5893 12.533L13.5877 12.5318C13.5729 12.5217 13.5592 12.509 13.5482 12.4933L11.9488 10.3332V12.4036C11.9488 12.4895 11.879 12.5591 11.7928 12.5591H11.2318C11.1458 12.5591 11.0758 12.4895 11.0758 12.4036V8.91771C11.0758 8.83198 11.1458 8.7622 11.2318 8.7622H11.7928L11.7983 8.76251C11.8011 8.76266 11.8037 8.76266 11.8063 8.76297C11.8091 8.76328 11.8118 8.76343 11.8146 8.76404L11.8212 8.76481L11.8301 8.76681L11.8327 8.76753L11.8354 8.76834C11.8387 8.76911 11.8417 8.77018 11.8448 8.77125L11.8499 8.77309C11.8529 8.77417 11.8558 8.77554 11.8587 8.77692L11.8607 8.77778L11.8637 8.77923L11.8678 8.78148L11.8719 8.78398L11.8738 8.78492L11.8767 8.78674L11.8817 8.79009L11.8848 8.79226L11.8859 8.7931C11.8869 8.79385 11.8879 8.79458 11.8888 8.79548C11.8917 8.79763 11.8945 8.79993 11.8971 8.80238L11.9 8.80499C11.9032 8.80806 11.9063 8.81113 11.9094 8.81465L11.9104 8.81557C11.9147 8.82063 11.9189 8.82585 11.9225 8.83137L13.52 10.9887V8.91771C13.52 8.83198 13.5897 8.7622 13.6758 8.7622ZM17.4913 9.47923C17.4913 9.56542 17.4218 9.63505 17.3358 9.63505H15.8112V10.2241H17.3358C17.4218 10.2241 17.4913 10.294 17.4913 10.3801V10.9412C17.4913 11.0273 17.4218 11.097 17.3358 11.097H15.8112V11.6863H17.3358C17.4218 11.6863 17.4913 11.7562 17.4913 11.8421V12.4034C17.4913 12.4893 17.4218 12.5592 17.3358 12.5592H15.0938C15.0521 12.5592 15.0142 12.5425 14.9863 12.5156L14.9853 12.5148L14.984 12.5135C14.9832 12.5129 14.9825 12.5119 14.9818 12.5112C14.955 12.4833 14.9383 12.4452 14.9383 12.4034V8.91793C14.9383 8.87622 14.9548 8.83849 14.9815 8.81058L14.984 8.80782L14.985 8.80683L14.9858 8.80613C15.0139 8.77899 15.0521 8.76212 15.0941 8.76212H17.3358C17.4218 8.76212 17.4913 8.83205 17.4913 8.91809V9.47923Z" fill="#1DC760"/>
</svg>
