<svg width="24" height="24" viewBox="0 0 24 24" fill="none" xmlns="http://www.w3.org/2000/svg">
<path fill-rule="evenodd" clip-rule="evenodd" d="M7.99992 4C12.4114 4 16 6.91232 16 10.4921C16 11.9248 15.445 13.215 14.2856 14.4864C12.6072 16.4183 8.85384 18.7713 7.99992 19.1311C7.17013 19.4808 7.26596 18.9342 7.30394 18.7176C7.30503 18.7114 7.30607 18.7054 7.30704 18.6998C7.32728 18.5796 7.42114 18.015 7.42114 18.015C7.44813 17.8108 7.47604 17.4939 7.39538 17.2916C7.30566 17.069 6.95109 16.9533 6.69053 16.8972C2.84607 16.389 0 13.7013 0 10.4921C0 6.91232 3.58911 4 7.99992 4ZM5.02189 11.6862H3.49717V8.91793C3.49717 8.83189 3.42739 8.76212 3.34151 8.76212H2.7802C2.69417 8.76212 2.62439 8.83189 2.62439 8.91793V12.4032C2.62439 12.4451 2.64111 12.4833 2.66794 12.5112C2.66856 12.5119 2.66917 12.5127 2.67009 12.5135L2.67239 12.5156C2.70046 12.5426 2.73818 12.5592 2.78005 12.5592H5.02189C5.10792 12.5592 5.17739 12.4892 5.17739 12.4032V11.8421C5.17739 11.756 5.10792 11.6862 5.02189 11.6862ZM5.8134 8.7622H6.37454C6.46058 8.7622 6.53036 8.83198 6.53036 8.91771V12.4036C6.53036 12.4895 6.46058 12.5591 6.37454 12.5591H5.8134C5.72736 12.5591 5.65743 12.4895 5.65743 12.4036V8.91771C5.65743 8.83198 5.72736 8.7622 5.8134 8.7622ZM9.67577 8.7622H10.2369C10.3231 8.7622 10.3927 8.83198 10.3927 8.91771V12.4036C10.3927 12.4895 10.3231 12.5591 10.2369 12.5591H9.67577C9.66197 12.5591 9.64863 12.5571 9.6359 12.5537C9.63513 12.5536 9.63436 12.5533 9.6336 12.5533C9.63007 12.5522 9.6267 12.5511 9.62302 12.5498L9.61841 12.5481L9.61075 12.5449C9.60829 12.5438 9.60569 12.5426 9.60338 12.5412L9.60225 12.5406L9.59894 12.5389L9.58928 12.533L9.58774 12.5318C9.57287 12.5217 9.55922 12.509 9.54818 12.4933L7.94877 10.3332V12.4036C7.94877 12.4895 7.87899 12.5591 7.79281 12.5591H7.23181C7.14578 12.5591 7.07584 12.4895 7.07584 12.4036V8.91771C7.07584 8.83198 7.14578 8.7622 7.23181 8.7622H7.79281L7.79581 8.76238L7.79833 8.76251C7.80109 8.76266 7.80369 8.76266 7.8063 8.76297L7.81033 8.76338L7.81458 8.76404L7.82118 8.76481L7.83007 8.7668L7.83265 8.76753L7.83544 8.76834C7.83866 8.7691 7.84173 8.77018 7.84479 8.77125L7.84986 8.77309C7.85292 8.77416 7.85583 8.77554 7.85875 8.77692L7.86181 8.77832L7.86366 8.77922C7.86642 8.7806 7.86918 8.78229 7.87194 8.78398C7.87363 8.78475 7.87516 8.78567 7.87669 8.78674L7.88168 8.79009L7.88482 8.79226L7.8873 8.79415L7.88881 8.79548C7.89172 8.79763 7.89448 8.79993 7.89709 8.80238L7.90001 8.80499C7.90323 8.80806 7.90629 8.81112 7.90936 8.81465L7.91043 8.81557C7.91473 8.82063 7.91887 8.82585 7.92255 8.83137L9.51996 10.9887V8.91771C9.51996 8.83198 9.58974 8.7622 9.67577 8.7622ZM13.4913 9.47923C13.4913 9.56542 13.4218 9.63505 13.3358 9.63505H11.8112V10.2241H13.3358C13.4218 10.2241 13.4913 10.294 13.4913 10.3801V10.9412C13.4913 11.0273 13.4218 11.097 13.3358 11.097H11.8112V11.6862H13.3358C13.4218 11.6862 13.4913 11.7562 13.4913 11.8421V12.4034C13.4913 12.4892 13.4218 12.5592 13.3358 12.5592H11.0938C11.0521 12.5592 11.0142 12.5425 10.9863 12.5156L10.9853 12.5148L10.984 12.5135C10.9832 12.5129 10.9825 12.5119 10.9818 12.5112C10.955 12.4833 10.9383 12.4452 10.9383 12.4034V8.91793C10.9383 8.87622 10.9548 8.83849 10.9815 8.81058L10.984 8.80782L10.985 8.80683L10.9858 8.80613C11.0139 8.77899 11.0521 8.76212 11.0941 8.76212H13.3358C13.4218 8.76212 13.4913 8.83205 13.4913 8.91808V9.47923Z" fill="#1DC760"/>
<path d="M21.75 15.25C21.75 15.6642 21.4142 16 21 16C20.5858 16 20.25 15.6642 20.25 15.25V12H18.2732C18.0485 12 17.9202 11.7546 18.055 11.5826L20.7819 8.10435C20.8909 7.96522 21.1091 7.96522 21.2182 8.10435L23.945 11.5826C24.0798 11.7546 23.9515 12 23.7268 12H21.75V15.25Z" fill="#1DC760"/>
</svg>
