<svg width="24" height="24" viewBox="0 0 24 24" fill="none" xmlns="http://www.w3.org/2000/svg">
<path d="M16 5.17647V18.8235C16 19.1355 15.8761 19.4348 15.6554 19.6554C15.4348 19.8761 15.1355 20 14.8235 20H1.17647C0.864451 20 0.565211 19.8761 0.34458 19.6554C0.123949 19.4348 0 19.1355 0 18.8235L0 5.17647C0 4.86445 0.123949 4.56521 0.34458 4.34458C0.565211 4.12395 0.864451 4 1.17647 4H14.8235C15.1355 4 15.4348 4.12395 15.6554 4.34458C15.8761 4.56521 16 4.86445 16 5.17647ZM4.70588 10.1176H2.35294V17.6471H4.70588V10.1176ZM4.91765 7.52941C4.91889 7.35143 4.88506 7.17495 4.81809 7.01004C4.75113 6.84513 4.65233 6.69503 4.52736 6.56831C4.40238 6.44158 4.25366 6.34071 4.0897 6.27146C3.92574 6.20221 3.74975 6.16594 3.57176 6.16471H3.52941C3.16747 6.16471 2.82035 6.30849 2.56442 6.56442C2.30849 6.82035 2.16471 7.16747 2.16471 7.52941C2.16471 7.89135 2.30849 8.23847 2.56442 8.4944C2.82035 8.75034 3.16747 8.89412 3.52941 8.89412C3.70741 8.8985 3.88452 8.86776 4.05063 8.80367C4.21674 8.73957 4.36859 8.64338 4.49751 8.52057C4.62643 8.39777 4.72989 8.25077 4.80198 8.08797C4.87407 7.92517 4.91337 7.74976 4.91765 7.57176V7.52941ZM13.6471 13.0729C13.6471 10.8094 12.2071 9.92941 10.7765 9.92941C10.3081 9.90596 9.8417 10.0057 9.42389 10.2188C9.00607 10.4318 8.65142 10.7507 8.39529 11.1435H8.32941V10.1176H6.11765V17.6471H8.47059V13.6424C8.43658 13.2322 8.56577 12.8252 8.83011 12.5098C9.09445 12.1943 9.47258 11.9959 9.88235 11.9576H9.97176C10.72 11.9576 11.2753 12.4282 11.2753 13.6141V17.6471H13.6282L13.6471 13.0729Z" fill="#1065BE"/>
<path d="M21.75 8.75C21.75 8.33578 21.4142 8 21 8C20.5858 8 20.25 8.33578 20.25 8.75V12H18.2732C18.0485 12 17.9202 12.2454 18.055 12.4174L20.7819 15.8957C20.8909 16.0348 21.1091 16.0348 21.2182 15.8957L23.945 12.4174C24.0798 12.2454 23.9515 12 23.7268 12H21.75V8.75Z" fill="#1065BE"/>
</svg>
