<svg width="24" height="24" viewBox="0 0 24 24" fill="none" xmlns="http://www.w3.org/2000/svg">
<path d="M11.0197 10.2222H14.9689C15.342 10.2222 15.6444 10.5247 15.6444 10.8978V14.4949C15.6444 15.8662 14.5328 16.9778 13.1616 16.9778H13.1498C11.7786 16.978 10.6668 15.8665 10.6666 14.4953V10.5753C10.6666 10.3803 10.8247 10.2222 11.0197 10.2222V10.2222Z" fill="#5059C9"/>
<path d="M13.6889 9.5111C14.5725 9.5111 15.2889 8.79475 15.2889 7.9111C15.2889 7.02744 14.5725 6.3111 13.6889 6.3111C12.8052 6.3111 12.0889 7.02744 12.0889 7.9111C12.0889 8.79475 12.8052 9.5111 13.6889 9.5111Z" fill="#5059C9"/>
<path d="M8.71114 9.51111C9.98753 9.51111 11.0222 8.47639 11.0222 7.2C11.0222 5.92361 9.98753 4.88889 8.71114 4.88889C7.43474 4.88889 6.40002 5.92361 6.40002 7.2C6.40002 8.47639 7.43474 9.51111 8.71114 9.51111Z" fill="#7B83EB"/>
<path d="M11.7927 10.2222H5.27393C4.90528 10.2314 4.61365 10.5373 4.6222 10.906V15.0087C4.57072 17.2211 6.32103 19.057 8.53331 19.1111C10.7456 19.057 12.4959 17.2211 12.4444 15.0087V10.906C12.453 10.5373 12.1613 10.2314 11.7927 10.2222V10.2222Z" fill="#7B83EB"/>
<path opacity="0.1" d="M8.88886 10.2222V15.9716C8.88709 16.2352 8.72733 16.4721 8.48353 16.5724C8.40591 16.6053 8.32248 16.6222 8.2382 16.6222H4.93509C4.88887 16.5049 4.8462 16.3876 4.81064 16.2667C4.68618 15.8587 4.62268 15.4346 4.62219 15.008V10.9049C4.61365 10.5368 4.90479 10.2314 5.27286 10.2222H8.88886Z" fill="black"/>
<path opacity="0.2" d="M8.53331 10.2222V16.3271C8.5333 16.4114 8.51638 16.4948 8.48353 16.5724C8.38315 16.8162 8.14629 16.976 7.88264 16.9778H5.1022C5.04175 16.8604 4.98487 16.7431 4.93509 16.6222C4.88531 16.5013 4.8462 16.3876 4.81064 16.2667C4.68618 15.8587 4.62267 15.4346 4.62219 15.008V10.9049C4.61365 10.5368 4.90479 10.2314 5.27286 10.2222H8.53331Z" fill="black"/>
<path opacity="0.2" d="M8.53337 10.2222V15.616C8.53066 15.9742 8.24093 16.264 7.8827 16.2667H4.8107C4.68624 15.8587 4.62274 15.4346 4.62225 15.008V10.9049C4.61371 10.5368 4.90486 10.2314 5.27292 10.2222H8.53337Z" fill="black"/>
<path opacity="0.2" d="M8.17781 10.2222V15.616C8.1751 15.9742 7.88537 16.264 7.52714 16.2667H4.8107C4.68624 15.8587 4.62274 15.4346 4.62225 15.008V10.9049C4.61371 10.5368 4.90486 10.2314 5.27292 10.2222H8.17781Z" fill="black"/>
<path opacity="0.1" d="M8.88888 8.384V9.504C8.82844 9.50755 8.77155 9.51111 8.7111 9.51111C8.65066 9.51111 8.59377 9.50756 8.53332 9.504C8.4133 9.49603 8.29428 9.47699 8.17777 9.44711C7.45777 9.2766 6.86293 8.77165 6.57777 8.08889C6.52871 7.97423 6.49061 7.85518 6.46399 7.73334H8.23821C8.597 7.7347 8.88752 8.02521 8.88888 8.384V8.384Z" fill="black"/>
<path opacity="0.2" d="M8.53331 8.73953V9.50397C8.41329 9.49601 8.29427 9.47697 8.17776 9.44709C7.45776 9.27658 6.86292 8.77163 6.57776 8.08887H7.88265C8.24143 8.09023 8.53195 8.38074 8.53331 8.73953Z" fill="black"/>
<path opacity="0.2" d="M8.53331 8.73953V9.50397C8.41329 9.49601 8.29427 9.47697 8.17776 9.44709C7.45776 9.27658 6.86292 8.77163 6.57776 8.08887H7.88265C8.24143 8.09023 8.53195 8.38074 8.53331 8.73953Z" fill="black"/>
<path opacity="0.2" d="M8.17776 8.73953V9.44709C7.45776 9.27658 6.86292 8.77163 6.57776 8.08887H7.52709C7.88588 8.09023 8.17639 8.38075 8.17776 8.73953Z" fill="black"/>
<path d="M1.00726 8.08887H7.52601C7.88595 8.08887 8.17774 8.38066 8.17774 8.7406V15.2593C8.17774 15.6193 7.88595 15.9111 7.52601 15.9111H1.00726C0.647316 15.9111 0.35553 15.6193 0.35553 15.2593V8.7406C0.35553 8.38066 0.647323 8.08887 1.00726 8.08887Z" fill="#4D55BD"/>
<path d="M5.98184 10.5699H4.67873V14.1184H3.84851V10.5699H2.55144V9.88158H5.98184V10.5699Z" fill="white"/>
<path d="M20.25 15.25C20.25 15.6642 20.5858 16 21 16C21.4142 16 21.75 15.6642 21.75 15.25V12H23.7268C23.9515 12 24.0798 11.7546 23.945 11.5826L21.2181 8.10435C21.1091 7.96522 20.8909 7.96522 20.7819 8.10435L18.055 11.5826C17.9202 11.7546 18.0485 12 18.2732 12H20.25V15.25Z" fill="#7B83EB"/>
</svg>
