<svg width="24" height="24" viewBox="0 0 24 24" fill="none" xmlns="http://www.w3.org/2000/svg">
<path d="M14.0198 10.2222H17.9689C18.342 10.2222 18.6445 10.5247 18.6445 10.8978V14.4949C18.6445 15.8662 17.5329 16.9778 16.1616 16.9778H16.1499C14.7786 16.978 13.6669 15.8665 13.6667 14.4953V10.5753C13.6667 10.3803 13.8248 10.2222 14.0198 10.2222V10.2222Z" fill="#5059C9"/>
<path d="M16.6889 9.5111C17.5725 9.5111 18.2889 8.79475 18.2889 7.9111C18.2889 7.02744 17.5725 6.3111 16.6889 6.3111C15.8052 6.3111 15.0889 7.02744 15.0889 7.9111C15.0889 8.79475 15.8052 9.5111 16.6889 9.5111Z" fill="#5059C9"/>
<path d="M11.7111 9.51111C12.9875 9.51111 14.0222 8.47639 14.0222 7.2C14.0222 5.92361 12.9875 4.88889 11.7111 4.88889C10.4347 4.88889 9.40002 5.92361 9.40002 7.2C9.40002 8.47639 10.4347 9.51111 11.7111 9.51111Z" fill="#7B83EB"/>
<path d="M14.7927 10.2222H8.27393C7.90528 10.2314 7.61365 10.5373 7.6222 10.906V15.0087C7.57072 17.2211 9.32103 19.057 11.5333 19.1111C13.7456 19.057 15.4959 17.2211 15.4444 15.0087V10.906C15.453 10.5373 15.1613 10.2314 14.7927 10.2222V10.2222Z" fill="#7B83EB"/>
<path opacity="0.1" d="M11.8889 10.2222V15.9716C11.8871 16.2352 11.7273 16.4721 11.4835 16.5724C11.4059 16.6053 11.3225 16.6222 11.2382 16.6222H7.93509C7.88887 16.5049 7.8462 16.3876 7.81064 16.2667C7.68618 15.8587 7.62268 15.4346 7.62219 15.008V10.9049C7.61365 10.5368 7.90479 10.2314 8.27286 10.2222H11.8889Z" fill="black"/>
<path opacity="0.2" d="M11.5333 10.2222V16.3271C11.5333 16.4114 11.5164 16.4948 11.4835 16.5724C11.3831 16.8162 11.1463 16.976 10.8826 16.9778H8.1022C8.04175 16.8604 7.98487 16.7431 7.93509 16.6222C7.88531 16.5013 7.8462 16.3876 7.81064 16.2667C7.68618 15.8587 7.62267 15.4346 7.62219 15.008V10.9049C7.61365 10.5368 7.90479 10.2314 8.27286 10.2222H11.5333Z" fill="black"/>
<path opacity="0.2" d="M11.5334 10.2222V15.616C11.5307 15.9742 11.2409 16.264 10.8827 16.2667H7.8107C7.68624 15.8587 7.62274 15.4346 7.62225 15.008V10.9049C7.61371 10.5368 7.90486 10.2314 8.27292 10.2222H11.5334Z" fill="black"/>
<path opacity="0.2" d="M11.1778 10.2222V15.616C11.1751 15.9742 10.8854 16.264 10.5271 16.2667H7.8107C7.68624 15.8587 7.62274 15.4346 7.62225 15.008V10.9049C7.61371 10.5368 7.90486 10.2314 8.27292 10.2222H11.1778Z" fill="black"/>
<path opacity="0.1" d="M11.8889 8.384V9.504C11.8284 9.50755 11.7715 9.51111 11.7111 9.51111C11.6507 9.51111 11.5938 9.50756 11.5333 9.504C11.4133 9.49603 11.2943 9.47699 11.1778 9.44711C10.4578 9.2766 9.86293 8.77165 9.57777 8.08889C9.52871 7.97423 9.49061 7.85518 9.46399 7.73334H11.2382C11.597 7.7347 11.8875 8.02521 11.8889 8.384V8.384Z" fill="black"/>
<path opacity="0.2" d="M11.5333 8.73953V9.50397C11.4133 9.49601 11.2943 9.47697 11.1778 9.44709C10.4578 9.27658 9.86292 8.77163 9.57776 8.08887H10.8826C11.2414 8.09023 11.5319 8.38074 11.5333 8.73953Z" fill="black"/>
<path opacity="0.2" d="M11.5333 8.73953V9.50397C11.4133 9.49601 11.2943 9.47697 11.1778 9.44709C10.4578 9.27658 9.86292 8.77163 9.57776 8.08887H10.8826C11.2414 8.09023 11.5319 8.38074 11.5333 8.73953Z" fill="black"/>
<path opacity="0.2" d="M11.1778 8.73953V9.44709C10.4578 9.27658 9.86292 8.77163 9.57776 8.08887H10.5271C10.8859 8.09023 11.1764 8.38075 11.1778 8.73953Z" fill="black"/>
<path d="M4.00726 8.08887H10.526C10.886 8.08887 11.1777 8.38066 11.1777 8.7406V15.2593C11.1777 15.6193 10.8859 15.9111 10.526 15.9111H4.00726C3.64732 15.9111 3.35553 15.6193 3.35553 15.2593V8.7406C3.35553 8.38066 3.64732 8.08887 4.00726 8.08887Z" fill="#4D55BD"/>
<path d="M8.98184 10.5699H7.67873V14.1184H6.84851V10.5699H5.55144V9.88158H8.98184V10.5699Z" fill="white"/>
</svg>
