<svg width="24" height="24" viewBox="0 0 24 24" fill="none" xmlns="http://www.w3.org/2000/svg">
<path d="M7.35737 14.0981C7.35737 15.0221 6.60261 15.7768 5.67868 15.7768C4.75476 15.7768 4 15.0221 4 14.0981C4 13.1742 4.75476 12.4194 5.67868 12.4194H7.35737V14.0981Z" fill="#E01E5A"/>
<path d="M8.20321 14.0981C8.20321 13.1742 8.95797 12.4194 9.8819 12.4194C10.8058 12.4194 11.5606 13.1742 11.5606 14.0981V18.3013C11.5606 19.2253 10.8058 19.98 9.8819 19.98C8.95797 19.98 8.20321 19.2253 8.20321 18.3013V14.0981Z" fill="#E01E5A"/>
<path d="M9.8819 7.35737C8.95797 7.35737 8.20321 6.60261 8.20321 5.67868C8.20321 4.75476 8.95797 4 9.8819 4C10.8058 4 11.5606 4.75476 11.5606 5.67868V7.35737H9.8819Z" fill="#36C5F0"/>
<path d="M9.8819 8.20322C10.8058 8.20322 11.5606 8.95797 11.5606 9.8819C11.5606 10.8058 10.8058 11.5606 9.8819 11.5606H5.67868C4.75476 11.5606 4 10.8058 4 9.8819C4 8.95797 4.75476 8.20322 5.67868 8.20322H9.8819Z" fill="#36C5F0"/>
<path d="M16.6227 9.8819C16.6227 8.95797 17.3774 8.20322 18.3013 8.20322C19.2253 8.20322 19.98 8.95797 19.98 9.8819C19.98 10.8058 19.2253 11.5606 18.3013 11.5606H16.6227V9.8819Z" fill="#2EB67D"/>
<path d="M15.7768 9.8819C15.7768 10.8058 15.0221 11.5606 14.0981 11.5606C13.1742 11.5606 12.4194 10.8058 12.4194 9.8819V5.67868C12.4194 4.75476 13.1742 4 14.0981 4C15.0221 4 15.7768 4.75476 15.7768 5.67868V9.8819Z" fill="#2EB67D"/>
<path d="M14.0981 16.6227C15.0221 16.6227 15.7768 17.3774 15.7768 18.3013C15.7768 19.2253 15.0221 19.98 14.0981 19.98C13.1742 19.98 12.4194 19.2253 12.4194 18.3013V16.6227H14.0981Z" fill="#ECB22E"/>
<path d="M14.0981 15.7768C13.1742 15.7768 12.4194 15.0221 12.4194 14.0981C12.4194 13.1742 13.1742 12.4194 14.0981 12.4194H18.3013C19.2253 12.4194 19.98 13.1742 19.98 14.0981C19.98 15.0221 19.2253 15.7768 18.3013 15.7768H14.0981Z" fill="#ECB22E"/>
</svg>
