<svg width="24" height="24" viewBox="0 0 24 24" fill="none" xmlns="http://www.w3.org/2000/svg">
<path d="M3.36738 14.1081C3.36738 15.0321 2.61262 15.7868 1.68869 15.7868C0.764767 15.7868 0.0100098 15.0321 0.0100098 14.1081C0.0100098 13.1842 0.764767 12.4295 1.68869 12.4295H3.36738V14.1081Z" fill="#E01E5A"/>
<path d="M4.21322 14.1081C4.21322 13.1842 4.96798 12.4295 5.89191 12.4295C6.81583 12.4295 7.57059 13.1842 7.57059 14.1081V18.3114C7.57059 19.2353 6.81583 19.99 5.89191 19.99C4.96798 19.99 4.21322 19.2353 4.21322 18.3114V14.1081Z" fill="#E01E5A"/>
<path d="M5.89191 7.36738C4.96798 7.36738 4.21322 6.61262 4.21322 5.68869C4.21322 4.76477 4.96798 4.01001 5.89191 4.01001C6.81583 4.01001 7.57059 4.76477 7.57059 5.68869V7.36738H5.89191Z" fill="#36C5F0"/>
<path d="M5.89191 8.21323C6.81584 8.21323 7.57059 8.96798 7.57059 9.89191C7.57059 10.8158 6.81584 11.5706 5.89191 11.5706H1.68869C0.764767 11.5706 0.0100098 10.8158 0.0100098 9.89191C0.0100098 8.96798 0.764767 8.21323 1.68869 8.21323H5.89191Z" fill="#36C5F0"/>
<path d="M12.6327 9.89191C12.6327 8.96798 13.3874 8.21323 14.3114 8.21323C15.2353 8.21323 15.99 8.96798 15.99 9.89191C15.99 10.8158 15.2353 11.5706 14.3114 11.5706H12.6327V9.89191Z" fill="#2EB67D"/>
<path d="M11.7868 9.89191C11.7868 10.8158 11.0321 11.5706 10.1081 11.5706C9.18421 11.5706 8.42945 10.8158 8.42945 9.89191V5.68869C8.42945 4.76477 9.18421 4.01001 10.1081 4.01001C11.0321 4.01001 11.7868 4.76477 11.7868 5.68869V9.89191Z" fill="#2EB67D"/>
<path d="M10.1081 16.6327C11.0321 16.6327 11.7868 17.3874 11.7868 18.3114C11.7868 19.2353 11.0321 19.99 10.1081 19.99C9.18421 19.99 8.42945 19.2353 8.42945 18.3114V16.6327H10.1081Z" fill="#ECB22E"/>
<path d="M10.1081 15.7868C9.18421 15.7868 8.42945 15.0321 8.42945 14.1081C8.42945 13.1842 9.18421 12.4295 10.1081 12.4295H14.3114C15.2353 12.4295 15.99 13.1842 15.99 14.1081C15.99 15.0321 15.2353 15.7868 14.3114 15.7868H10.1081Z" fill="#ECB22E"/>
<path d="M21.75 8.75C21.75 8.33578 21.4142 8 21 8C20.5858 8 20.25 8.33578 20.25 8.75V12H18.2732C18.0485 12 17.9202 12.2454 18.055 12.4174L20.7819 15.8957C20.8909 16.0348 21.1091 16.0348 21.2181 15.8957L23.945 12.4174C24.0798 12.2454 23.9515 12 23.7268 12H21.75V8.75Z" fill="#ECB22E"/>
</svg>
