<svg width="24" height="24" viewBox="0 0 24 24" fill="none" xmlns="http://www.w3.org/2000/svg">
<path fill-rule="evenodd" clip-rule="evenodd" d="M16 12C16 16.4183 12.4183 20 8 20C3.58172 20 0 16.4183 0 12C0 7.58172 3.58172 4 8 4C12.4183 4 16 7.58172 16 12ZM8.28666 9.90595C7.50854 10.2296 5.9534 10.8995 3.62124 11.9156C3.24253 12.0662 3.04415 12.2135 3.02609 12.3575C2.99557 12.601 3.30045 12.6969 3.71563 12.8274C3.7721 12.8452 3.83062 12.8636 3.8906 12.8831C4.29907 13.0159 4.84853 13.1712 5.13417 13.1774C5.39328 13.183 5.68246 13.0761 6.00174 12.8569C8.18075 11.386 9.30557 10.6425 9.37619 10.6265C9.42601 10.6152 9.49504 10.601 9.54182 10.6426C9.5886 10.6841 9.584 10.7629 9.57905 10.784C9.54884 10.9128 8.35206 12.0254 7.73273 12.6012C7.53965 12.7807 7.40269 12.908 7.3747 12.9371C7.31198 13.0022 7.24806 13.0639 7.18663 13.1231C6.80716 13.4889 6.52259 13.7632 7.20239 14.2112C7.52907 14.4265 7.79049 14.6045 8.05128 14.7821C8.33609 14.9761 8.62017 15.1695 8.98772 15.4105C9.08136 15.4718 9.1708 15.5356 9.25791 15.5977C9.58936 15.834 9.88715 16.0463 10.255 16.0124C10.4688 15.9928 10.6896 15.7917 10.8018 15.1922C11.0668 13.7754 11.5877 10.7056 11.7081 9.44065C11.7187 9.32982 11.7054 9.18798 11.6947 9.12572C11.6841 9.06345 11.6618 8.97474 11.5809 8.90907C11.485 8.83129 11.3371 8.81489 11.2709 8.816C10.97 8.82136 10.5083 8.98188 8.28666 9.90595Z" fill="#2AABEE"/>
<path d="M21.75 8.75C21.75 8.33578 21.4142 8 21 8C20.5858 8 20.25 8.33578 20.25 8.75V12H18.2732C18.0485 12 17.9202 12.2454 18.055 12.4174L20.7819 15.8957C20.8909 16.0348 21.1091 16.0348 21.2182 15.8957L23.945 12.4174C24.0798 12.2454 23.9515 12 23.7268 12H21.75V8.75Z" fill="#2AABEE"/>
</svg>
