<svg width="24" height="24" viewBox="0 0 24 24" fill="none" xmlns="http://www.w3.org/2000/svg">
<path d="M20 17.0108C19.9949 17.802 19.6785 18.5594 19.1193 19.1189C18.56 19.6784 17.8029 19.9949 17.012 20H7.00723C6.21299 20 5.451 19.6857 4.88758 19.1257C4.32417 18.5656 4.00509 17.8053 4 17.0108V7.0085C4 6.21059 4.31683 5.44537 4.8808 4.88117C5.44476 4.31697 6.20966 4 7.00723 4H17.0053C17.7995 4.00509 18.5595 4.32431 19.1193 4.88796C19.6791 5.45161 19.9933 6.21392 19.9933 7.0085L20 17.0108ZM16.0781 9.37769C16.5402 9.10451 16.887 8.67224 17.0535 8.16175C16.6232 8.41628 16.1524 8.59502 15.6617 8.69017C15.3598 8.37456 14.9706 8.15634 14.544 8.06348C14.1174 7.97062 13.6727 8.00736 13.2671 8.16898C12.8614 8.33059 12.5133 8.60973 12.2673 8.9706C12.0213 9.33147 11.8886 9.75762 11.8863 10.1944C11.8653 10.3593 11.8653 10.5261 11.8863 10.691C11.0188 10.6443 10.1708 10.4164 9.3967 10.0219C8.62263 9.62752 7.93968 9.07532 7.39181 8.40089C7.19397 8.73543 7.08791 9.11629 7.08434 9.50497C7.07844 9.86362 7.16187 10.2181 7.32711 10.5364C7.49235 10.8548 7.7342 11.1269 8.03084 11.3284C7.66822 11.3112 7.3131 11.219 6.98795 11.0574C6.99374 11.5715 7.17733 12.0677 7.50751 12.4617C7.83768 12.8556 8.29406 13.123 8.79904 13.2183C8.6278 13.2706 8.44986 13.2975 8.27084 13.2984H7.87084C7.99743 13.7483 8.26444 14.146 8.63289 14.4335C9.00135 14.7209 9.45198 14.883 9.91904 14.8962C9.1277 15.4612 8.17155 15.7481 7.2 15.7119H6.67181C7.61721 16.3188 8.70919 16.6583 9.8319 16.6945C10.9546 16.7307 12.0662 16.4622 13.0486 15.9174C14.0311 15.3727 14.8479 14.5721 15.4123 13.6005C15.9767 12.6288 16.2677 11.5225 16.2545 10.3988C16.2601 10.3025 16.2601 10.2059 16.2545 10.1096C16.6853 9.80272 17.0545 9.41736 17.3427 8.97366C16.9425 9.16788 16.5167 9.30393 16.0781 9.37769Z" fill="#1DA1F2"/>
</svg>
