<svg width="24" height="24" viewBox="0 0 24 24" fill="none" xmlns="http://www.w3.org/2000/svg">
<path d="M16 17.0108C15.9949 17.802 15.6785 18.5594 15.1193 19.1189C14.56 19.6784 13.8029 19.9949 13.012 20H3.00723C2.21299 20 1.451 19.6857 0.887583 19.1257C0.32417 18.5656 0.00509127 17.8053 0 17.0108L0 7.0085C0 6.21059 0.316832 5.44537 0.880797 4.88117C1.44476 4.31697 2.20966 4 3.00723 4H13.0053C13.7995 4.00509 14.5595 4.32431 15.1193 4.88796C15.6791 5.45161 15.9933 6.21392 15.9933 7.0085L16 17.0108ZM12.0781 9.37769C12.5402 9.10451 12.887 8.67224 13.0535 8.16175C12.6232 8.41628 12.1524 8.59502 11.6617 8.69017C11.3598 8.37456 10.9706 8.15634 10.544 8.06348C10.1174 7.97062 9.67271 8.00736 9.26707 8.16898C8.86144 8.33059 8.51329 8.60973 8.26728 8.9706C8.02126 9.33147 7.88859 9.75762 7.88626 10.1944C7.86531 10.3593 7.86531 10.5261 7.88626 10.691C7.01883 10.6443 6.17078 10.4164 5.3967 10.0219C4.62263 9.62752 3.93968 9.07532 3.39181 8.40089C3.19397 8.73543 3.08791 9.11629 3.08434 9.50497C3.07844 9.86362 3.16187 10.2181 3.32711 10.5364C3.49235 10.8548 3.7342 11.1269 4.03084 11.3284C3.66822 11.3112 3.3131 11.219 2.98795 11.0574C2.99374 11.5715 3.17733 12.0677 3.50751 12.4617C3.83768 12.8556 4.29406 13.123 4.79904 13.2183C4.6278 13.2706 4.44986 13.2975 4.27084 13.2984H3.87084C3.99743 13.7483 4.26444 14.146 4.63289 14.4335C5.00135 14.7209 5.45198 14.883 5.91904 14.8962C5.1277 15.4612 4.17155 15.7481 3.2 15.7119H2.67181C3.61721 16.3188 4.70919 16.6583 5.8319 16.6945C6.9546 16.7307 8.06616 16.4622 9.04865 15.9174C10.0311 15.3727 10.8479 14.5721 11.4123 13.6005C11.9767 12.6288 12.2677 11.5225 12.2545 10.3988C12.2601 10.3025 12.2601 10.2059 12.2545 10.1096C12.6853 9.80272 13.0545 9.41736 13.3427 8.97366C12.9425 9.16788 12.5167 9.30393 12.0781 9.37769Z" fill="#1DA1F2"/>
<path d="M21.75 15.25C21.75 15.6642 21.4142 16 21 16C20.5858 16 20.25 15.6642 20.25 15.25V12H18.2732C18.0485 12 17.9202 11.7546 18.055 11.5826L20.7819 8.10435C20.8909 7.96522 21.1091 7.96522 21.2182 8.10435L23.945 11.5826C24.0798 11.7546 23.9515 12 23.7268 12H21.75V15.25Z" fill="#1DA1F2"/>
</svg>
