<svg width="24" height="24" viewBox="0 0 24 24" fill="none" xmlns="http://www.w3.org/2000/svg">
<path d="M13.3069 5.55998C12.9115 5.19498 11.3298 4.02798 7.78787 4.01098C7.78787 4.01098 3.61521 3.75598 1.58077 5.64398C0.448884 6.78898 0.0495107 8.46498 0.00898015 10.544C-0.0315503 12.623 -0.0898748 16.516 3.6241 17.572V19.183C3.6241 19.183 3.60038 19.836 4.02545 19.968C4.53851 20.129 4.84002 19.634 5.33133 19.099C5.59922 18.806 5.97191 18.374 6.25265 18.045C7.83151 18.1924 9.4236 18.0738 10.9641 17.694C12.0169 17.5188 12.9779 16.9819 13.6852 16.1737C14.3925 15.3655 14.8028 14.3354 14.8471 13.257C15.3345 9.24598 14.6128 6.70498 13.3069 5.55998ZM13.737 12.97C13.7162 13.8549 13.3844 14.7034 12.801 15.3632C12.2177 16.023 11.4209 16.4508 10.5538 16.57C9.2288 16.8977 7.86146 17.0151 6.50078 16.918C6.50078 16.918 4.8934 18.877 4.39319 19.389C4.36558 19.4237 4.32993 19.451 4.28941 19.4684C4.24889 19.4858 4.20475 19.4929 4.16088 19.489C4.07587 19.467 4.05214 19.364 4.05214 19.213C4.05214 18.997 4.06598 16.536 4.06598 16.536C0.928331 15.655 1.11121 12.336 1.1468 10.603C1.03508 9.11064 1.50723 7.63361 2.46157 6.48998C4.18263 4.91498 7.72658 5.14998 7.72658 5.14998C10.7199 5.16398 12.1533 6.07398 12.4855 6.37898C13.5877 7.32898 14.1502 9.61798 13.737 12.97Z" fill="#665CAC"/>
<path d="M9.244 10.703C9.18046 10.7031 9.11933 10.6784 9.07331 10.6341C9.02729 10.5897 8.99992 10.5292 8.99687 10.465C9.01139 10.3317 8.99679 10.1969 8.9541 10.07C8.91141 9.94304 8.84167 9.82717 8.74981 9.73053C8.65796 9.63389 8.54624 9.55885 8.42254 9.51072C8.29885 9.46258 8.16622 9.44253 8.03402 9.45198C7.96867 9.44827 7.90744 9.41851 7.86372 9.36923C7.82001 9.31995 7.79737 9.25516 7.80077 9.18904C7.80417 9.12292 7.83333 9.06085 7.88186 9.01642C7.93039 8.97199 7.99434 8.94883 8.05972 8.95198C8.25298 8.94501 8.44555 8.97909 8.62499 9.05202C8.80443 9.12495 8.96678 9.23512 9.10155 9.37541C9.23632 9.5157 9.34054 9.68301 9.40747 9.86654C9.4744 10.0501 9.50257 10.2458 9.49015 10.441C9.49175 10.4738 9.48692 10.5067 9.47596 10.5376C9.46499 10.5686 9.4481 10.597 9.42624 10.6214C9.40439 10.6457 9.378 10.6654 9.3486 10.6794C9.31919 10.6934 9.28734 10.7014 9.25488 10.703H9.244Z" fill="#665CAC"/>
<path d="M10.2711 11.051H10.2652C10.2327 11.0502 10.2007 11.043 10.171 11.0297C10.1413 11.0164 10.1145 10.9973 10.0921 10.9735C10.0697 10.9498 10.0522 10.9218 10.0405 10.8911C10.0288 10.8605 10.0232 10.8278 10.024 10.795C10.0424 10.4898 10.0001 10.1839 9.89957 9.89549C9.79905 9.60709 9.64235 9.34202 9.43875 9.11598C9.2159 8.88325 8.9499 8.69722 8.65595 8.56853C8.36199 8.43985 8.04585 8.37102 7.72559 8.36598C7.66005 8.36134 7.59901 8.33055 7.55591 8.28039C7.5128 8.23022 7.49117 8.16479 7.49575 8.09848C7.50034 8.03218 7.53078 7.97044 7.58037 7.92683C7.62996 7.88323 7.69465 7.86134 7.76019 7.86598C8.53277 7.88679 9.2663 8.21398 9.80253 8.77698C10.0482 9.05051 10.238 9.37053 10.3608 9.7186C10.4837 10.0667 10.5372 10.4359 10.5182 10.805C10.5172 10.8706 10.4907 10.9332 10.4445 10.9792C10.3982 11.0252 10.336 11.051 10.2711 11.051Z" fill="#665CAC"/>
<path d="M11.3229 11.468C11.2577 11.468 11.1952 11.4419 11.1489 11.3955C11.1026 11.349 11.0763 11.2859 11.0758 11.22C11.1022 10.6956 11.0214 10.1714 10.8386 9.67998C10.6558 9.18859 10.3747 8.7406 10.0131 8.36398C9.66624 8.02244 9.25583 7.75394 8.80563 7.57404C8.35544 7.39415 7.87443 7.30643 7.39047 7.31598C7.32493 7.31598 7.26207 7.28965 7.21572 7.24276C7.16937 7.19588 7.14334 7.13229 7.14334 7.06598C7.14334 6.99968 7.16937 6.93609 7.21572 6.88921C7.26207 6.84232 7.32493 6.81598 7.39047 6.81598C7.93805 6.80595 8.48215 6.90596 8.99123 7.11024C9.50031 7.31451 9.96423 7.61898 10.3561 8.00598C10.763 8.42975 11.0803 8.93292 11.2887 9.4848C11.4971 10.0367 11.5921 10.6257 11.5681 11.216C11.5683 11.2488 11.5622 11.2814 11.55 11.3118C11.5378 11.3422 11.5199 11.3699 11.4971 11.3933C11.4743 11.4168 11.4472 11.4354 11.4173 11.4482C11.3875 11.461 11.3554 11.4677 11.3229 11.468Z" fill="#665CAC"/>
<path d="M8.08839 13.16C8.16802 13.166 8.248 13.1543 8.32265 13.1256C8.39731 13.0969 8.46481 13.052 8.52038 12.994L8.81695 12.619C8.91926 12.5054 9.05767 12.4318 9.20811 12.4108C9.35855 12.3898 9.51152 12.4227 9.64041 12.504C9.82823 12.612 10.1653 12.821 10.3739 12.977C10.5825 13.133 11.055 13.529 11.055 13.529C11.1618 13.6171 11.233 13.7418 11.2553 13.8794C11.2775 14.017 11.2491 14.158 11.1756 14.276C11.0124 14.5629 10.8048 14.8215 10.5607 15.042C10.3858 15.2008 10.1692 15.305 9.93697 15.342C9.90711 15.3459 9.87688 15.3459 9.84702 15.342C9.75679 15.3427 9.66702 15.3288 9.5811 15.301L9.57418 15.291C8.97607 15.0857 8.40088 14.8176 7.85806 14.491C7.35168 14.2121 6.86982 13.89 6.41774 13.528C6.19088 13.3469 5.97436 13.1529 5.76925 12.947L5.68226 12.859C5.47872 12.6518 5.28696 12.4331 5.10791 12.204C4.75065 11.7463 4.43219 11.2589 4.15594 10.747C3.83311 10.1979 3.56804 9.61601 3.3651 9.01098L3.35522 9.00398C3.32651 8.91735 3.31279 8.82634 3.31469 8.73498C3.31078 8.70478 3.31078 8.67419 3.31469 8.64398C3.35117 8.40907 3.45418 8.1899 3.61125 8.01298C3.82875 7.76559 4.08448 7.55553 4.36848 7.39098C4.48507 7.31661 4.62453 7.28796 4.76056 7.31043C4.89659 7.33291 5.01979 7.40495 5.10693 7.51298C5.10693 7.51298 5.48949 7.97598 5.6526 8.20198C5.82073 8.44119 5.97679 8.68884 6.12019 8.94398C6.20051 9.07437 6.23311 9.22911 6.21234 9.38129C6.19158 9.53348 6.11874 9.67349 6.00651 9.77698L5.6358 10.077C5.57856 10.1333 5.53421 10.2016 5.50586 10.2771C5.47751 10.3526 5.46585 10.4334 5.4717 10.514C5.65478 11.141 5.99016 11.7116 6.44723 12.1738C6.9043 12.636 7.46852 12.975 8.08839 13.16Z" fill="#665CAC"/>
<path d="M21.75 15.25C21.75 15.6642 21.4142 16 21 16C20.5858 16 20.25 15.6642 20.25 15.25V12H18.2732C18.0485 12 17.9202 11.7546 18.055 11.5826L20.7819 8.10435C20.8909 7.96522 21.1091 7.96522 21.2182 8.10435L23.945 11.5826C24.0798 11.7546 23.9515 12 23.7268 12H21.75V15.25Z" fill="#665CAC"/>
</svg>
