<svg width="24" height="24" viewBox="0 0 24 24" fill="none" xmlns="http://www.w3.org/2000/svg">
<path d="M19.9 18.3174C20.5317 17.9011 21.053 17.3373 21.4188 16.6745C21.7846 16.0117 21.9841 15.2699 22 14.5128C22 11.8095 19.3 9.50671 16 9.50671C12.7 9.50671 10 11.7094 10 14.5128C10 17.2161 12.7 19.5189 16 19.5189C16.7106 19.5174 17.4174 19.4163 18.1 19.2185H18.4L19.7 19.9194C20 20.1196 20.2 19.9194 20.1 19.619L19.8 18.5177C19.7 18.5177 19.8 18.3174 19.9 18.3174ZM14 13.7118C13.8945 13.7133 13.7898 13.6936 13.6921 13.6539C13.5944 13.6142 13.5056 13.5552 13.431 13.4805C13.3564 13.4059 13.2976 13.317 13.2579 13.2191C13.2182 13.1213 13.1985 13.0165 13.2 12.9109C13.214 12.7031 13.3028 12.5074 13.4499 12.3601C13.597 12.2128 13.7924 12.1239 14 12.1099C14.1055 12.1084 14.2102 12.1281 14.3079 12.1678C14.4056 12.2076 14.4944 12.2665 14.569 12.3412C14.6436 12.4159 14.7024 12.5047 14.7421 12.6026C14.7818 12.7004 14.8015 12.8053 14.8 12.9109C14.786 13.1187 14.6972 13.3143 14.5501 13.4616C14.403 13.6089 14.2076 13.6978 14 13.7118ZM18 13.7118C17.8945 13.7133 17.7898 13.6936 17.6921 13.6539C17.5944 13.6142 17.5056 13.5552 17.431 13.4805C17.3564 13.4059 17.2976 13.317 17.2579 13.2191C17.2182 13.1213 17.1985 13.0165 17.2 12.9109C17.214 12.7031 17.3028 12.5074 17.4499 12.3601C17.597 12.2128 17.7924 12.1239 18 12.1099C18.1055 12.1084 18.2102 12.1281 18.3079 12.1678C18.4056 12.2076 18.4944 12.2665 18.569 12.3412C18.6436 12.4159 18.7024 12.5047 18.7421 12.6026C18.7818 12.7004 18.8015 12.8053 18.8 12.9109C18.786 13.1187 18.6972 13.3143 18.5501 13.4616C18.403 13.6089 18.2076 13.6978 18 13.7118ZM16 9.0061H16.4C15.9 6.20268 12.9 4 9.2 4C5.2 4 2 6.70329 2 10.0073C2.03116 10.9027 2.274 11.778 2.70859 12.5612C3.14318 13.3444 3.75712 14.0133 4.5 14.5128C4.62514 14.6498 4.69623 14.8278 4.7 15.0134L4.4 16.315C4.3 16.7155 4.5 16.8156 4.8 16.6154L6.4 15.7143C6.54984 15.6234 6.72677 15.5879 6.9 15.6142C7.68466 15.8125 8.49072 15.9134 9.3 15.9145H9.7C9.53571 15.4319 9.46775 14.9216 9.5 14.4127C9.4 11.409 12.4 9.0061 16 9.0061ZM11.7 7.10378C11.8978 7.10378 12.0911 7.1625 12.2556 7.27252C12.42 7.38253 12.5482 7.5389 12.6239 7.72185C12.6996 7.9048 12.7194 8.10611 12.6808 8.30033C12.6422 8.49455 12.547 8.67295 12.4071 8.81297C12.2673 8.95299 12.0891 9.04835 11.8951 9.08698C11.7011 9.12562 11.5 9.10579 11.3173 9.03001C11.1346 8.95423 10.9784 8.8259 10.8685 8.66125C10.7586 8.4966 10.7 8.30302 10.7 8.105C10.692 7.97143 10.7124 7.83767 10.7598 7.71255C10.8072 7.58744 10.8806 7.47382 10.9751 7.3792C11.0696 7.28458 11.1831 7.2111 11.308 7.16362C11.433 7.11615 11.5666 7.09575 11.7 7.10378ZM6.8 9.0061C6.60222 9.0061 6.40888 8.94738 6.24443 8.83736C6.07998 8.72735 5.95181 8.57098 5.87612 8.38803C5.80043 8.20508 5.78063 8.00377 5.81921 7.80955C5.8578 7.61533 5.95304 7.43693 6.09289 7.29691C6.23275 7.15689 6.41093 7.06153 6.60491 7.0229C6.79889 6.98427 6.99996 7.00409 7.18268 7.07987C7.36541 7.15565 7.52159 7.28398 7.63147 7.44863C7.74135 7.61328 7.8 7.80686 7.8 8.00488C7.80802 8.13846 7.78765 8.27222 7.74023 8.39733C7.69281 8.52244 7.61943 8.63606 7.52492 8.73068C7.43041 8.82531 7.31693 8.89878 7.19197 8.94626C7.06701 8.99373 6.93341 9.01413 6.8 9.0061Z" fill="#51C332"/>
</svg>
