<svg width="24" height="24" viewBox="0 0 24 24" fill="none" xmlns="http://www.w3.org/2000/svg">
<path d="M14.32 17.6329C14.8254 17.2946 15.2424 16.8365 15.535 16.298C15.8277 15.7595 15.9873 15.1568 16 14.5417C16 12.3452 13.84 10.4742 11.2 10.4742C8.56 10.4742 6.4 12.2639 6.4 14.5417C6.4 16.7381 8.56 18.6091 11.2 18.6091C11.7685 18.6079 12.3339 18.5257 12.88 18.3651H13.12L14.16 18.9345C14.4 19.0972 14.56 18.9345 14.48 18.6905L14.24 17.7956C14.16 17.7956 14.24 17.6329 14.32 17.6329ZM9.6 13.8909C9.51563 13.8921 9.43187 13.8761 9.35369 13.8438C9.2755 13.8115 9.20448 13.7636 9.14481 13.7029C9.08514 13.6423 9.03805 13.57 9.0063 13.4905C8.97456 13.411 8.95882 13.3259 8.96 13.2401C8.97123 13.0712 9.04227 12.9123 9.15994 12.7926C9.27762 12.6729 9.43396 12.6007 9.6 12.5893C9.68437 12.5881 9.76813 12.6041 9.84631 12.6364C9.9245 12.6686 9.99552 12.7165 10.0552 12.7772C10.1149 12.8379 10.162 12.9101 10.1937 12.9896C10.2254 13.0691 10.2412 13.1543 10.24 13.2401C10.2288 13.4089 10.1577 13.5679 10.0401 13.6876C9.92238 13.8072 9.76604 13.8794 9.6 13.8909ZM12.8 13.8909C12.7156 13.8921 12.6319 13.8761 12.5537 13.8438C12.4755 13.8115 12.4045 13.7636 12.3448 13.7029C12.2851 13.6423 12.238 13.57 12.2063 13.4905C12.1746 13.411 12.1588 13.3259 12.16 13.2401C12.1712 13.0712 12.2423 12.9123 12.3599 12.7926C12.4776 12.6729 12.634 12.6007 12.8 12.5893C12.8844 12.5881 12.9681 12.6041 13.0463 12.6364C13.1245 12.6686 13.1955 12.7165 13.2552 12.7772C13.3149 12.8379 13.362 12.9101 13.3937 12.9896C13.4254 13.0691 13.4412 13.1543 13.44 13.2401C13.4288 13.4089 13.3577 13.5679 13.2401 13.6876C13.1224 13.8072 12.966 13.8794 12.8 13.8909ZM11.2 10.0675H11.52C11.12 7.78968 8.72 6 5.76 6C2.56 6 0 8.19643 0 10.8809C0.0249241 11.6085 0.219199 12.3196 0.566871 12.956C0.914542 13.5924 1.4057 14.1358 2 14.5417C2.10011 14.653 2.15698 14.7976 2.16 14.9484L1.92 16.0059C1.84 16.3313 2 16.4127 2.24 16.25L3.52 15.5178C3.63987 15.444 3.78141 15.4152 3.92 15.4365C4.54773 15.5976 5.19258 15.6796 5.84 15.6805H6.16C6.02857 15.2884 5.9742 14.8738 6 14.4603C5.92 12.0198 8.32 10.0675 11.2 10.0675ZM7.76 8.52182C7.91822 8.52182 8.0729 8.56953 8.20446 8.65892C8.33602 8.74831 8.43855 8.87536 8.4991 9.024C8.55965 9.17265 8.5755 9.33622 8.54463 9.49402C8.51376 9.65182 8.43757 9.79677 8.32569 9.91054C8.2138 10.0243 8.07126 10.1018 7.91607 10.1332C7.76089 10.1646 7.60003 10.1485 7.45385 10.0869C7.30767 10.0253 7.18273 9.92104 7.09482 9.78727C7.00692 9.65349 6.96 9.49621 6.96 9.33531C6.95358 9.22678 6.96988 9.1181 7.00782 9.01645C7.04575 8.9148 7.10446 8.82248 7.18007 8.7456C7.25567 8.66872 7.34646 8.60902 7.44642 8.57045C7.54639 8.53187 7.65327 8.5153 7.76 8.52182ZM3.84 10.0675C3.68178 10.0675 3.5271 10.0197 3.39554 9.93036C3.26398 9.84097 3.16145 9.71392 3.1009 9.56527C3.04035 9.41663 3.0245 9.25306 3.05537 9.09526C3.08624 8.93746 3.16243 8.79251 3.27431 8.67874C3.3862 8.56497 3.52874 8.48749 3.68393 8.4561C3.83911 8.42472 3.99997 8.44083 4.14615 8.5024C4.29233 8.56397 4.41727 8.66824 4.50518 8.80201C4.59308 8.93579 4.64 9.09307 4.64 9.25396C4.64642 9.3625 4.63012 9.47118 4.59218 9.57283C4.55425 9.67448 4.49554 9.7668 4.41993 9.84368C4.34433 9.92056 4.25354 9.98026 4.15358 10.0188C4.05361 10.0574 3.94673 10.074 3.84 10.0675Z" fill="#51C332"/>
<path d="M21.75 15.25C21.75 15.6642 21.4142 16 21 16C20.5858 16 20.25 15.6642 20.25 15.25V12H18.2732C18.0485 12 17.9202 11.7546 18.055 11.5826L20.7819 8.10435C20.8909 7.96522 21.1091 7.96522 21.2182 8.10435L23.945 11.5826C24.0798 11.7546 23.9515 12 23.7268 12H21.75V15.25Z" fill="#51C332"/>
</svg>
