<svg width="24" height="24" viewBox="0 0 24 24" fill="none" xmlns="http://www.w3.org/2000/svg">
<path d="M13.6894 6.33514C12.2071 4.82162 10.158 4 8.06539 4C3.61853 4 0.0435967 7.58919 0.0871935 11.9568C0.0871935 13.3405 0.479564 14.6811 1.13351 15.8919L0 20L4.22888 18.9189C5.40599 19.5676 6.7139 19.8703 8.0218 19.8703C12.4251 19.8703 16 16.2811 16 11.9135C16 9.79459 15.1717 7.80541 13.6894 6.33514ZM8.06539 18.5297C6.88828 18.5297 5.71117 18.227 4.70845 17.6216L4.44687 17.4919L1.91826 18.1405L2.57221 15.6757L2.39782 15.4162C0.479564 12.3459 1.3951 8.28108 4.53406 6.37838C7.67302 4.47568 11.7275 5.38378 13.6458 8.4973C15.564 11.6108 14.6485 15.6324 11.5095 17.5351C10.5068 18.1838 9.2861 18.5297 8.06539 18.5297ZM11.9019 13.7297L11.4223 13.5135C11.4223 13.5135 10.7248 13.2108 10.2888 12.9946C10.2452 12.9946 10.2016 12.9514 10.158 12.9514C10.0272 12.9514 9.94005 12.9946 9.85286 13.0378C9.85286 13.0378 9.80926 13.0811 9.19891 13.773C9.15531 13.8595 9.06812 13.9027 8.98093 13.9027H8.93733C8.89373 13.9027 8.80654 13.8595 8.76294 13.8162L8.54496 13.7297C8.06539 13.5135 7.62943 13.2541 7.28065 12.9081C7.19346 12.8216 7.06267 12.7351 6.97548 12.6486C6.6703 12.3459 6.36512 12 6.14714 11.6108L6.10354 11.5243C6.05995 11.4811 6.05995 11.4378 6.01635 11.3514C6.01635 11.2649 6.01635 11.1784 6.05994 11.1351C6.05994 11.1351 6.23433 10.9189 6.36512 10.7892C6.45232 10.7027 6.49591 10.573 6.58311 10.4865C6.6703 10.3568 6.7139 10.1838 6.6703 10.0541C6.6267 9.83784 6.10354 8.67027 5.97275 8.41081C5.88556 8.28108 5.79836 8.23784 5.66757 8.19459H5.18801C5.10082 8.19459 5.01362 8.23784 4.92643 8.23784L4.88283 8.28108C4.79564 8.32432 4.70845 8.41081 4.62125 8.45405C4.53406 8.54054 4.49046 8.62703 4.40327 8.71351C4.09809 9.1027 3.92371 9.57838 3.92371 10.0541C3.92371 10.4 4.0109 10.7459 4.14169 11.0486L4.18529 11.1784C4.57766 12 5.10082 12.7351 5.79836 13.3838L5.97275 13.5568C6.10354 13.6865 6.23433 13.773 6.32153 13.9027C7.23706 14.6811 8.28338 15.2432 9.46049 15.5459C9.59128 15.5892 9.76567 15.5892 9.89646 15.6324H10.3324C10.5504 15.6324 10.812 15.5459 10.9864 15.4595C11.1172 15.373 11.2044 15.373 11.2916 15.2865L11.3787 15.2C11.4659 15.1135 11.5531 15.0703 11.6403 14.9838C11.7275 14.8973 11.8147 14.8108 11.8583 14.7243C11.9455 14.5514 11.9891 14.3351 12.0327 14.1189V13.8162C12.0327 13.8162 11.9891 13.773 11.9019 13.7297Z" fill="#25D366"/>
<path d="M21.75 15.25C21.75 15.6642 21.4142 16 21 16C20.5858 16 20.25 15.6642 20.25 15.25V12H18.2732C18.0485 12 17.9202 11.7546 18.055 11.5826L20.7819 8.10435C20.8909 7.96522 21.1091 7.96522 21.2182 8.10435L23.945 11.5826C24.0798 11.7546 23.9515 12 23.7268 12H21.75V15.25Z" fill="#25D366"/>
</svg>
