<svg width="24" height="24" viewBox="0 0 24 24" fill="none" xmlns="http://www.w3.org/2000/svg">
<path d="M19.3743 8.61514C19.2054 7.9794 18.708 7.47872 18.0762 7.3088C16.9314 7 12.3405 7 12.3405 7C12.3405 7 7.74963 7 6.60476 7.3088C5.97301 7.47872 5.47547 7.9794 5.30674 8.61514C5 9.76746 5 12.1717 5 12.1717C5 12.1717 5 14.5759 5.30674 15.7284C5.47547 16.3642 5.97301 16.8647 6.6047 17.0348C7.74957 17.3435 12.3404 17.3435 12.3404 17.3435C12.3404 17.3435 16.9314 17.3435 18.0762 17.0348C18.7079 16.8648 19.2053 16.3642 19.3742 15.7284C19.681 14.576 19.681 12.1718 19.681 12.1718C19.681 12.1718 19.6811 9.76746 19.3743 8.61514Z" fill="#FF0000"/>
<path d="M10.839 14.3546L14.6761 12.1719L10.839 9.98886V14.3546Z" fill="white"/>
</svg>
