<svg width="24" height="24" viewBox="0 0 24 24" fill="none" xmlns="http://www.w3.org/2000/svg">
<g clip-path="url(#clip0_22_502)">
<path d="M15.0337 9.0192C14.8649 8.38345 14.3675 7.88277 13.7357 7.71285C12.5909 7.40405 7.99998 7.40405 7.99998 7.40405C7.99998 7.40405 3.40911 7.40405 2.26424 7.71285C1.6325 7.88277 1.13495 8.38345 0.966222 9.0192C0.659485 10.1715 0.659485 12.5758 0.659485 12.5758C0.659485 12.5758 0.659485 14.98 0.966222 16.1324C1.13495 16.7682 1.6325 17.2688 2.26418 17.4389C3.40905 17.7475 7.99992 17.7476 7.99992 17.7476C7.99992 17.7476 12.5908 17.7475 13.7357 17.4389C14.3674 17.2688 14.8648 16.7682 15.0337 16.1325C15.3405 14.98 15.3405 12.5759 15.3405 12.5759C15.3405 12.5759 15.3405 10.1715 15.0337 9.0192Z" fill="#FF0000"/>
<path d="M6.49851 14.7587L10.3356 12.5759L6.49851 10.3929V14.7587Z" fill="white"/>
</g>
<path d="M21.75 8.75C21.75 8.33578 21.4142 8 21 8C20.5858 8 20.25 8.33578 20.25 8.75V12H18.2732C18.0485 12 17.9202 12.2454 18.055 12.4174L20.7819 15.8957C20.8909 16.0348 21.1091 16.0348 21.2181 15.8957L23.945 12.4174C24.0798 12.2454 23.9515 12 23.7268 12H21.75V8.75Z" fill="#FF0000"/>
<defs>
<clipPath id="clip0_22_502">
<rect width="16" height="10.9091" fill="white" transform="translate(0 7)"/>
</clipPath>
</defs>
</svg>
